<mxfile host="65bd71144e">
    <diagram id="I0kLtuCq7wafPAWgQC_6" name="ページ1">
        <mxGraphModel dx="1961" dy="628" grid="1" gridSize="10" guides="1" tooltips="1" connect="1" arrows="1" fold="1" page="1" pageScale="1" pageWidth="827" pageHeight="1169" math="0" shadow="0">
            <root>
                <mxCell id="0"/>
                <mxCell id="1" parent="0"/>
                <mxCell id="HWHSqS2P6HCf4RbeMcaz-14" value="Local Dev" style="fillColor=#ffe6cc;strokeColor=#d79b00;dashed=0;verticalAlign=top;fontStyle=0;fontColor=#000000;" parent="1" vertex="1">
                    <mxGeometry x="-30" y="150" width="670" height="300" as="geometry"/>
                </mxCell>
                <mxCell id="HWHSqS2P6HCf4RbeMcaz-11" value="" style="fillColor=none;strokeColor=#5A6C86;dashed=1;verticalAlign=top;fontStyle=0;fontColor=#5A6C86;" parent="1" vertex="1">
                    <mxGeometry x="140" y="190" width="110" height="240" as="geometry"/>
                </mxCell>
                <mxCell id="ekPZyuRq7W89Y46g-SNz-10" style="edgeStyle=orthogonalEdgeStyle;rounded=0;orthogonalLoop=1;jettySize=auto;html=1;strokeColor=#000000;" parent="1" target="ekPZyuRq7W89Y46g-SNz-7" edge="1">
                    <mxGeometry relative="1" as="geometry">
                        <mxPoint x="250" y="304" as="sourcePoint"/>
                    </mxGeometry>
                </mxCell>
                <mxCell id="-kEWRbQdguksYZ6EH8o2-5" value="" style="shape=image;verticalLabelPosition=bottom;verticalAlign=top;imageAspect=0;image=data:image/png,iVBORw0KGgoAAAANSUhEUgAABuwAAALoCAIAAAAcCkQ/AAAKN2lDQ1BzUkdCIElFQzYxOTY2LTIuMQAAeJydlndUU9kWh8+9N71QkhCKlNBraFICSA29SJEuKjEJEErAkAAiNkRUcERRkaYIMijggKNDkbEiioUBUbHrBBlE1HFwFBuWSWStGd+8ee/Nm98f935rn73P3Wfvfda6AJD8gwXCTFgJgAyhWBTh58WIjYtnYAcBDPAAA2wA4HCzs0IW+EYCmQJ82IxsmRP4F726DiD5+yrTP4zBAP+flLlZIjEAUJiM5/L42VwZF8k4PVecJbdPyZi2NE3OMErOIlmCMlaTc/IsW3z2mWUPOfMyhDwZy3PO4mXw5Nwn4405Er6MkWAZF+cI+LkyviZjg3RJhkDGb+SxGXxONgAoktwu5nNTZGwtY5IoMoIt43kA4EjJX/DSL1jMzxPLD8XOzFouEiSniBkmXFOGjZMTi+HPz03ni8XMMA43jSPiMdiZGVkc4XIAZs/8WRR5bRmyIjvYODk4MG0tbb4o1H9d/JuS93aWXoR/7hlEH/jD9ld+mQ0AsKZltdn6h21pFQBd6wFQu/2HzWAvAIqyvnUOfXEeunxeUsTiLGcrq9zcXEsBn2spL+jv+p8Of0NffM9Svt3v5WF485M4knQxQ143bmZ6pkTEyM7icPkM5p+H+B8H/nUeFhH8JL6IL5RFRMumTCBMlrVbyBOIBZlChkD4n5r4D8P+pNm5lona+BHQllgCpSEaQH4eACgqESAJe2Qr0O99C8ZHA/nNi9GZmJ37z4L+fVe4TP7IFiR/jmNHRDK4ElHO7Jr8WgI0IABFQAPqQBvoAxPABLbAEbgAD+ADAkEoiARxYDHgghSQAUQgFxSAtaAYlIKtYCeoBnWgETSDNnAYdIFj4DQ4By6By2AE3AFSMA6egCnwCsxAEISFyBAVUod0IEPIHLKFWJAb5AMFQxFQHJQIJUNCSAIVQOugUqgcqobqoWboW+godBq6AA1Dt6BRaBL6FXoHIzAJpsFasBFsBbNgTzgIjoQXwcnwMjgfLoK3wJVwA3wQ7oRPw5fgEVgKP4GnEYAQETqiizARFsJGQpF4JAkRIauQEqQCaUDakB6kH7mKSJGnyFsUBkVFMVBMlAvKHxWF4qKWoVahNqOqUQdQnag+1FXUKGoK9RFNRmuizdHO6AB0LDoZnYsuRlegm9Ad6LPoEfQ4+hUGg6FjjDGOGH9MHCYVswKzGbMb0445hRnGjGGmsVisOtYc64oNxXKwYmwxtgp7EHsSewU7jn2DI+J0cLY4X1w8TogrxFXgWnAncFdwE7gZvBLeEO+MD8Xz8MvxZfhGfA9+CD+OnyEoE4wJroRIQiphLaGS0EY4S7hLeEEkEvWITsRwooC4hlhJPEQ8TxwlviVRSGYkNimBJCFtIe0nnSLdIr0gk8lGZA9yPFlM3kJuJp8h3ye/UaAqWCoEKPAUVivUKHQqXFF4pohXNFT0VFysmK9YoXhEcUjxqRJeyUiJrcRRWqVUo3RU6YbStDJV2UY5VDlDebNyi/IF5UcULMWI4kPhUYoo+yhnKGNUhKpPZVO51HXURupZ6jgNQzOmBdBSaaW0b2iDtCkVioqdSrRKnkqNynEVKR2hG9ED6On0Mvph+nX6O1UtVU9Vvuom1TbVK6qv1eaoeajx1UrU2tVG1N6pM9R91NPUt6l3qd/TQGmYaYRr5Grs0Tir8XQObY7LHO6ckjmH59zWhDXNNCM0V2ju0xzQnNbS1vLTytKq0jqj9VSbru2hnaq9Q/uE9qQOVcdNR6CzQ+ekzmOGCsOTkc6oZPQxpnQ1df11Jbr1uoO6M3rGelF6hXrtevf0Cfos/ST9Hfq9+lMGOgYhBgUGrQa3DfGGLMMUw12G/YavjYyNYow2GHUZPTJWMw4wzjduNb5rQjZxN1lm0mByzRRjyjJNM91tetkMNrM3SzGrMRsyh80dzAXmu82HLdAWThZCiwaLG0wS05OZw2xljlrSLYMtCy27LJ9ZGVjFW22z6rf6aG1vnW7daH3HhmITaFNo02Pzq62ZLde2xvbaXPJc37mr53bPfW5nbse322N3055qH2K/wb7X/oODo4PIoc1h0tHAMdGx1vEGi8YKY21mnXdCO3k5rXY65vTW2cFZ7HzY+RcXpkuaS4vLo3nG8/jzGueNueq5clzrXaVuDLdEt71uUnddd457g/sDD30PnkeTx4SnqWeq50HPZ17WXiKvDq/XbGf2SvYpb8Tbz7vEe9CH4hPlU+1z31fPN9m31XfKz95vhd8pf7R/kP82/xsBWgHcgOaAqUDHwJWBfUGkoAVB1UEPgs2CRcE9IXBIYMj2kLvzDecL53eFgtCA0O2h98KMw5aFfR+OCQ8Lrwl/GGETURDRv4C6YMmClgWvIr0iyyLvRJlESaJ6oxWjE6Kbo1/HeMeUx0hjrWJXxl6K04gTxHXHY+Oj45vipxf6LNy5cDzBPqE44foi40V5iy4s1licvvj4EsUlnCVHEtGJMYktie85oZwGzvTSgKW1S6e4bO4u7hOeB28Hb5Lvyi/nTyS5JpUnPUp2Td6ePJninlKR8lTAFlQLnqf6p9alvk4LTduf9ik9Jr09A5eRmHFUSBGmCfsytTPzMoezzLOKs6TLnJftXDYlChI1ZUPZi7K7xTTZz9SAxESyXjKa45ZTk/MmNzr3SJ5ynjBvYLnZ8k3LJ/J9879egVrBXdFboFuwtmB0pefK+lXQqqWrelfrry5aPb7Gb82BtYS1aWt/KLQuLC98uS5mXU+RVtGaorH1futbixWKRcU3NrhsqNuI2ijYOLhp7qaqTR9LeCUXS61LK0rfb+ZuvviVzVeVX33akrRlsMyhbM9WzFbh1uvb3LcdKFcuzy8f2x6yvXMHY0fJjpc7l+y8UGFXUbeLsEuyS1oZXNldZVC1tep9dUr1SI1XTXutZu2m2te7ebuv7PHY01anVVda926vYO/Ner/6zgajhop9mH05+x42Rjf2f836urlJo6m06cN+4X7pgYgDfc2Ozc0tmi1lrXCrpHXyYMLBy994f9Pdxmyrb6e3lx4ChySHHn+b+O31w0GHe4+wjrR9Z/hdbQe1o6QT6lzeOdWV0iXtjusePhp4tLfHpafje8vv9x/TPVZzXOV42QnCiaITn07mn5w+lXXq6enk02O9S3rvnIk9c60vvG/wbNDZ8+d8z53p9+w/ed71/LELzheOXmRd7LrkcKlzwH6g4wf7HzoGHQY7hxyHui87Xe4Znjd84or7ldNXva+euxZw7dLI/JHh61HXb95IuCG9ybv56Fb6ree3c27P3FlzF3235J7SvYr7mvcbfjT9sV3qID0+6j068GDBgztj3LEnP2X/9H686CH5YcWEzkTzI9tHxyZ9Jy8/Xvh4/EnWk5mnxT8r/1z7zOTZd794/DIwFTs1/lz0/NOvm1+ov9j/0u5l73TY9P1XGa9mXpe8UX9z4C3rbf+7mHcTM7nvse8rP5h+6PkY9PHup4xPn34D94Tz+49wZioAAAAJcEhZcwAALiMAAC4jAXilP3YAACAASURBVHic7N0JdFWFuejxG0YZBQERRRkca4tVS4vWOtWpXaKt1SdracURDZViFatiFa0WaSsok6h1QCYVBQQpraigWBTqgFpUsCiKgGMsM4EkJG/fsF6fl1vRwMneXw6/38rKClH292nCOWf/OTm7TkVFxX8BAHnnkUUr53y0LustgC19t3XDs/ZvnvUWAAA1TJ2sFwAAqsVbn294csnqrLcAttSgTq2sVwAAqHlETAAAAAAgNBETAAAAAAhNxAQAAAAAQhMxAQAAAIDQREwAAAAAIDQREwAAAAAITcQEAAAAAEITMQEAAACA0ERMAAAAACA0ERMAAAAACE3EBAAAAABCEzEBAAAAgNBETAAAAAAgNBETAAAAAAhNxAQAAAAAQhMxAQAAAIDQREwAAAAAIDQREwAAAAAITcQEAAAAAEITMQEAAACA0ERMAAAAACA0ERMAAAAACE3EBAAAAABCEzEBAAAAgNBETAAAAAAgNBETAAAAAAhNxAQAAAAAQhMxAQAAAIDQREwAAAAAIDQREwAAAAAITcQEAAAAAEITMQEAAACA0ERMAAAAACA0ERMAAAAACE3EBAAAAABCEzEBAAAAgNBETAAAAAAgNBETAAAAAAhNxAQAAAAAQhMxAQAAAIDQREwAAAAAIDQREwAAAAAITcQEAAAAAEITMQEAAACA0ERMAAAAACA0ERMAAAAACE3EBAAAAABCEzEBAAAAgNBETAAAAAAgNBETAAAAAAhNxAQAAAAAQhMxAQAAAIDQREwAAAAAIDQREwAAAAAITcQEAAAAAEITMQEAAACA0ERMAAAAACA0ERMAAAAACE3EBAAAAABCEzEBAAAAgNBETAAAAAAgNBETAAAAAAhNxAQAAAAAQhMxAQAAAIDQREwAAAAAIDQREwAAAAAITcQEgPx09gHNj92zcdZbAFtq3bBu1isAANQ8IiYA5Kd9m9VP3rLeAgAAIAdETAAAAAAgNBETAAAAAAhNxAQAAAAAQhMxAQAAAIDQREwAAAAAIDQREwAAAAAITcQEAAAAAEITMQEAAACA0ERMAAAAACA0ERMAAAAACE3EBAAAAABCEzEBAAAAgNBETAAAAAAgNBETAAAAAAhNxAQAAAAAQhMxAQAAAIDQREwAAAAAIDQREwAAAAAITcQEAAAAAEITMQEAAACA0ERMAAAAACA0ERMAAAAACE3EBAAAAABCEzEBAAAAgNBETAAAAAAgNBETAAAAAAhNxAQAAAAAQhMxAQAAAIDQREwAAAAAIDQREwAAAAAITcQEAAAAAEITMQEAAACA0ERMAAAAACA0ERMAAAAACE3EBAAAAABCEzEBAAAAgNBETAAAAAAgNBETAAAAAAhNxAQAAAAAQhMxAQAAAIDQREwAAAAAIDQREwAAAAAITcQEAAAAAEITMQEAAACA0ERMAAAAACA0ERMAAAAACE3EBAAAAABCEzEBAAAAgNBETADIT4Pmffr44lVZb5Ebfb+724/aNcl6i/9hVUn5hrLyrLcAttSgTq2m9WplvQUAkHsiJgDkpzUl5UXFZVlvkRslm8Llwj+8/MmUd1dmvQWwpf+zb/MbD9st6y0AgNwTMQEAAACA0ERMAAAAACA0ERMAAAAACE3EBAAAAABCEzEBAAAAgNBETAAAAAAgNBETAAAAAAhNxAQAAAAAQhMxAQAAAIDQREwAAAAAIDQREwAAAAAITcQEAAAAAEITMQEAAACA0ERMAAAAACA0ERMAAAAACE3EBAAAAABCEzEBAAAAgNBETAAAAAAgNBETAAAAAAhNxAQAAAAAQhMxAQAAAIDQREwAAAAAIDQREwAAAAAITcQEAAAAAEITMQEAAACA0ERMAAAAACA0ERMAAAAACE3EBAAAAABCEzEBAAAAgNBETAAAAAAgNBETAAAAAAhNxAQAAAAAQhMxAQAAAIDQREwAAAAAIDQREwAAAAAITcQEAAAAAEITMQEAAACA0ERMAAAAACA0ERMAAAAACE3EBAAAAABCEzEBAAAAgNBETAAAAAAgNBETAAAAAAhNxAQAAAAAQhMxAQAAAIDQREwAAAAAIDQREwAAAAAITcQEAAAAAEITMQEAAACA0ERMAAAAACA0ERMAAAAACE3EBAAAAABCEzEBAAAAgNBETAAAAAAgNBETAAAAAAhNxAQAAAAAQhMxAQAAAIDQREwAAAAAIDQREwAAAAAITcQEAAAAAEITMQEAAACA0ERMAAAAACA0ERMAAAAACE3EBAAAAABCEzEBAAAAgNBETAAAAAAgNBETAKDKWuxUe68m9bLeAnJjXVn558VlWW8BALA1IiYAQJX1OXTX5C3rLSA3pixede3zH2a9BQDA1oiYAAAAAEBoIiYAAAAAEJqICQAAAACEJmICAAAAAKGJmAAAAABAaCImAAAAABCaiAkAAAAAhCZiAgAAAAChiZgAAAAAQGgiJgAAAAAQmogJAAAAAIQmYgIAAAAAoYmYAAAAAEBoIiYAAAAAEJqICQAAAACEJmICAAAAAKGJmAAAAABAaCImAAAAABCaiAkAAAAAhCZiAgAAAAChiZgAAAAAQGgiJgAAAAAQmogJAAAAAIQmYgIAAAAAoYmYAAAAAEBoIiYAAAAAEJqICQAAAACEJmICAAAAAKGJmAAAAABAaCImAAAAABCaiAkAAAAAhCZiAgAAAAChiZgAAAAAQGgiJgAAAAAQmogJAAAAAIQmYgIAAAAAoYmYAAAAAEBoIiYAAAAAEJqICQAAAACEJmICAAAAAKGJmAAAAABAaCImAAAAABCaiAkAAAAAhCZiAgAAAAChiZgAAAAAQGgiJgAAAAAQmogJAAAAAIQmYgIAAAAAoYmYAEB0r35WXFBQkPUWkBt7Nq57cKsGWW8BAFDDiJgAQHSP/HNF8pb1FpAbP9m7mYgJAFBVIiYAAAAAEJqICQAAAACEJmICAAAAAKGJmAAAAABAaCImAAAAABCaiAkAAAAAhCZiAgAAAAChiZgAAAAAQGgiJgAAAAAQmogJAAAAAIQmYgIAAAAAoYmYAAAAAEBoIiYAAAAAEJqICQAAAACEJmICAAAAAKGJmAAAAABAaCImAAAAABCaiAkAAAAAhCZiAgAAAAChiZgAAAAAQGgiJgAAAAAQmogJAAAAAIQmYgIAAAAAoYmYAAAAAEBoIiYAAAAAEJqICQAAAACEJmICAAAAAKGJmAAAAABAaCImAAAAABCaiAkAAAAAhCZiAgAAAAChiZgAAAAAQGgiJgAAAAAQmogJAAAAAIQmYgIAAAAAoYmYAAAAAEBoIiYAAAAAEJqICQAAAACEJmICAAAAAKGJmAAAAABAaCImAAAAABCaiAkAAAAAhCZiAgAAAAChiZgAAAAAQGgiJgAAAAAQmogJAAAAAIQmYgIAAAAAoYmYAAAAAEBoIiYAAAAAEJqICQAAAACEJmICAAAAAKGJmAAAAABAaCImAAAAABCaiAkAAAAAhCZiAgAAAAChiZgAAAAAQGgiJgAAAAAQmogJAAAAAIQmYgIAAAAAoYmYAAAAAEBoIiYAAAAAEJqICQAAAACEJmICAAAAAKGJmAAAAABAaCImAAAAABCaiAkAAAAAhCZiAkB++s6uDSr+qyLrLYAtfbtVw6xXAACoeURMAMhPp3TcOXnLegugBji4VYN+XdpkvUVu7NOsXtYrAADVQsQEAIAdWrsm9ZK3rLcAANgaERMAAAAACE3EBAAAAABCEzEBAAAAgNBETAAAAAAgNBETAAAAAAhNxAQAAAAAQhMxAQAAAIDQREwAAAAAIDQREwAAAAAITcQEAAAAAEITMQEAAACA0ERMAAAAACA0ERMAAAAACE3EBAAAAABCEzEBAAAAgNBETAAAAAAgNBETAAAAAAhNxAQAAAAAQhMxAQAAAIDQREwAAAAAIDQREwAAAAAITcQEAAAAAEITMQEAAACA0ERMAAAAACA0ERMAAAAACE3EBAAAAABCEzEBAAAAgNBETAAAAAAgNBETAAAAAAhNxAQAAAAAQhMxAQAAAIDQREwAAAAAIDQREwAAAAAITcQEAAAAAEITMQEAAACA0ERMAAAAACA0ERMAAAAACE3EBAAAAABCEzEBAAAAgNBETAAAAAAgNBETAAAAAAhNxAQAAAAAQhMxAQAAAIDQREwAAAAAIDQREwAAAAAITcQEAAAAAEITMQEAAACA0ERMAAAAACA0ERMAoMru+EfRrGVrs94C2NLxezW5+Fstst4CAMg9ERMAoMqWry198/PirLcAtnTgLjtlvQIAUC1ETAAAAAAgNBETAAAAAAhNxAQAAAAAQhMxAQAAAIDQREwAAAAAIDQREwAAAAAITcQEAAAAAEITMQEAAACA0ERMAAAAACA0ERMAAAAACE3EBAAAAABCEzEBAAAAgNBETAAAAAAgNBETAAAAAAhNxAQAAAAAQhMxAQAAAIDQREwAAAAAIDQREwAAAAAITcQEAAAAAEITMQEAAACA0ERMAAAAACA0ERMAAAAACE3EBAAAAABCEzEBAAAAgNBETAAAAAAgNBETAAAAAAhNxAQAAAAAQhMxAQAAAIDQREwAAAAAIDQREwAAAAAITcQEAAAAAEITMQEAAACA0ERMAAAAACA0ERMAAAAACE3EBAAAAABCEzEBAAAAgNBETAAAAAAgNBETAAAAAAhNxAQAAAAAQhMxAQAAAIDQREwAAAAAIDQREwAAAAAITcQEAAAAAEITMQEAAACA0ERMAAAAACA0ERMAAAAACE3EBAAAAABCEzEBAAAAgNBETAAAAAAgNBETAAAAAAhNxAQAAAAAQhMxAQAAAIDQREwAAAAAIDQREwAAAAAITcQEAAAAAEITMQEAAACA0ERMAAAAACA0ERMAAAAACE3EBAAAAABCEzEBAAAAgNBETAAAAAAgNBETAAAAAAhNxAQAAAAAQhMxAQAAAIDQREwAAAAAIDQREwAAAAAITcQEAKiyyw5udcGBu2S9BbClnevXznoFAKBaiJgAAFXWumGd5C3rLQAAYEfhwTcAAAAAEJqICQAAAACEJmICAAAAAKGJmAAAAABAaCImAAAAABCaiAkAAAAAhCZiAgAAAAChiZgAAAAAQGgiJgAAAAAQmogJAAAAAIQmYgIAAAAAoYmYAAAAAEBoIiYAAAAAEJqICQAAAACEJmICAAAAAKGJmAAAAABAaCImAAAAABCaiAkAAAAAhCZiAgAAAAChiZgAAAAAQGgiJgAAAAAQmogJAAAAAIQmYgIAAAAAoYmYAAAAAEBoIiYAAAAAEJqICQAAAACEJmICAAAAAKGJmAAAAABAaCImAAAAABCaiAkAAAAAhCZiAgAAAAChiZgAAAAAQGgiJgAAAAAQmogJAAAAAIQmYgIAAAAAoYmYAAAAAEBoIiYAAAAAEJqICQAAAACEJmICAAAAAKGJmAAAAABAaCImAAAAABCaiAkAAAAAhCZiAgAAAAChiZgAAAAAQGgiJgAAAAAQmogJAAAAAIQmYgIAAAAAoYmYAAAAAEBoIiYAAAAAEJqICQAAAACEJmICAAAAAKGJmAAAAABAaCImAAAAABCaiAkAAAAAhCZiAgAAAAChiZgAAAAAQGgiJgAAAAAQmogJAAAAAIQmYgIAAAAAoYmYAAAAAEBoIiYAAAAAEJqICQAAAACEJmICAAAAAKGJmAAAAABAaCImAAAAABCaiAkAAAAAhCZiAgAAAAChiZgAAAAAQGgiJgAAAAAQmogJAAAAAIQmYgIAAAAAoYmYAAAAAEBoIiYAAAAAEJqICQAAAACEJmICAAAAAKGJmAAAAABAaCImAAAAABCaiAkAAAAAhCZiAgAAAAChiZgAAAAAQGgiJgAAAAAQmogJAAAAAIQmYgIAAAAAoYmYAAAAAEBoIiYAAAAAEJqICQAAAACEJmICAAAAAKGJmAAAAABAaCImAAAAABCaiAkAAAAAhCZiAgAAAAChiZgAAAAAQGgiJgAAAAAQmogJAAAAAIQmYgIAAAAAoYmYAAAAAEBoIiYAAAAAEJqICQAAAACEJmICAAAAAKGJmAAAAABAaCImAAAAABCaiAkAAAAAhCZiAgAAAAChiZgAAAAAQGgiJgAAAAAQmogJAAAAAIQmYgIAAAAAoYmYAAAAAEBoIiYAAAAAEJqICQAAAACEJmICAAAAAKGJmAAAAABAaCImAAAAABCaiAkAAAAAhCZiAgAAAAChiZgAAAAAQGgiJgAAAAAQmogJAAAAAIQmYgIAAAAAoYmYAAAAAEBoIiYAAAAAEJqICQAAAACEJmICAAAAAKGJmAAAAABAaCImAAAAABCaiAkAAAAAhCZiAgAAAAChiZgAAAAAQGgiJgAAAAAQmogJAAAAAIQmYgIAAAAAoYmYAAAAAEBoIiYAAAAAEJqICQAAAACEJmICAAAAAKGJmAAAAABAaCImAAAAABCaiAkAAAAAhCZiAgAAAAChiZgAAAAAQGgiJgAAAAAQmogJAAAAAIQmYgIAAAAAoYmYAAAAAEBoIiYAAAAAEJqICQAAAACEJmICAAAAAKGJmAAAAABAaCImAAAAABCaiAkAAAAAhCZiAgAAAAChiZgAAAAAQGgiJgAAAAAQmogJAAAAAIQmYgIAAAAAoYmYAAAAAEBoIiYAAAAAEJqICQAAAACEJmICAAAAAKGJmAAAAABAaCImAAAAABCaiAkAAAAAhBY0YhYVFX1WadWqVWsqbdy4sby8vLS0tKCgoG6lOnXq7LTTTk2bNm3cuHGTJk1atGjRunXr5IOsdwcAAMhbydnZsmXLli9f/vHHH3/00UfJWdvq/yf5R6WVysrKNm3aVLt27eSsLTl3q1evXnLWlpy77bzzzs2aNdtll13atGmze6U999yzUaNGWf83AVADZB8xKyoq3nnnnQULFvyz0nvvvZfcI27cuHHbjla/fv1WrVold4Tt27ffa6+9OnTosO+++yYfFxQU5HZtgHzy1ltv/f3vf6+mg3fu3LlTp07VdHAAoFol52uLFi167bXXkpO15IO33377008/zeHxkzO1Nm3aJGdt++yzzwEHHHDIIYd07Ngxh8cHIG9kEzHLy8vnz5///PPPz5079/XXX1+zZk2ujrxx48ZllebMmfPvTzZo0CC5OzzwwAOTe8Tvfve7e+65Z67GkZpVq1Y988wz1T3lpJNOSr5bqntKziWPKd9///3057Zr1y75M5X+XKrD7373u+QGuZoO/p3vfOfRRx+tpoMTU3JH/PLLL2e9RR6qU6dO165ds96iplq8ePE//vGPrLfIQ40aNTrhhBOy3oIcKysrmzdvXnK+lrxPztfWrl1bfbMqKio+rDRr1qzNn2natGnyILNz584/+MEPOnXqVKtWreqbTjSvvvrqkiVLqnVEmzZtunTpUq0jqKGSE6KPP/446y2qILl53PyE9+R93bp1k3vk5PazWaV69eplvV21SDVilpaWPvfcc9OnT58xY8aKFStSm1tcXPxqpXHjxiW/bNmy5fe+970jjzzy6KOP3m233VJbg+2xdOnSK664orqnzJ49u8ZFzGTniy66qKSkJOW5e+211/jx41MeSjV5++23q69gJl555ZU333zzm9/8ZvWNIJrki57CjfYOKHlsKmJus1mzZt18881Zb5GH2rZtK2Lmjc8+++zJJ59M/rDMmTNn3bp1Wa2xevXqWZUGDRqUnJAfccQRxx57bPJttvPOO2e1Eql56KGHJkyYUK0jjj/+eBGT/+iee+5J4blT6WjQoMFulVq3bt2mTZuOHTvuvffeyfvkRjXr1bZLShHzjTfeGD9+/LRp01auXJnOxK0oKir6S6Xk4/322+9HlQ444ICs94Iqe+211woLC9MvmMmN4Lhx45Jbw5TnUk1Gjx5d3SNGjRr1xz/+sbqnAADb4NNPP03O1KZPn/7SSy9VVFRkvc7/sHr16r9WqlOnzuGHH/7jSmomwNYVFxe/V2mLz7ds2fJb3/rWQQcdlLw/+OCDk19mst42q96IWVZWNmXKlOT0eP78+dU6aJttfiHOoUOHdujQoWvXrj/72c/atWuX9VLwtSTfuueff/769etTntuqVatx48btscceKc+lmiTnBpMnT67uKVOnTu3bt2/z5s2rexAA8DUlJ2szZsx49NFHZ82atWnTpqzX+QrJtn+r9Nvf/vakk07q1q3b4YcfnvVSADVMUVHRs5U2/3Lvvfc+7LDDunTpkryvEUGzuiJmSUnJgw8+eM8993z00UfVNCK33nvvvWHDhg0fPjz54p1++uldu3atX79+1kvBl1q2bFn37t1XrVqV8tzmzZuPHTu2ffv2Kc+l+jzyyCPFxcXVPWXjxo3jx48vLCys7kEAwFf67LPPxowZk5yv/etf/8p6lypLHlQ8Xqlt27bnnntut27dGjdunPVSADXSu5XGjRtXUFBw8MEHH3fccccff/x+++2X9V5fKvcRs6KiYtKkSYMHD16+fHnOD17dkuXnVurfv39yd/jzn//c080IqKioKPnmzO11Ib+Opk2bjh49et999015LtUnudFLzmHSmTV27NgePXrUrl07nXEAwP+2YMGC++67b+rUqaWlpVnvsr2WLVuWnLUNGTIkOXE7//zzd99996w3AqipkhPDzdeSGThwYMeOHU899dTTTjst4GWxcxwxX3vttRtvvDEPrvy4cuXKu++++5577jnxxBMvvfRS16MgjtWrV3fv3v2DDz5IeW6jRo0eeOABfxbyzMyZM5cuXZrOrA8//PDpp58+6aST0hkHAHzRW2+9NXTo0Keeeiraq15up7Vr1953332jR48+88wze/bsKWUCbKfFixcPHjx4yJAhhxxySLdu3U499dQ4P6mcs4hZXFw8aNCgkSNH5tOdYnl5+RNPPDF9+vSjjz66V69ehx56aNYbsaPbsGHDBRdcsHDhwpTn7rTTTvfee+/BBx+c8lyqWwqX9PmiUaNGiZgAkLJFixYlZ2r5ly+/qLS0dNy4cY888siZZ57Zu3fvVq1aZb0RQM2W3GXMq9S/f/8zzjjj7LPP7tChQ9ZL5Shizp8//7LLLnv//fdzcrRokq/c5tc9/eEPf9inT59vfOMbWW/EDip5cNazZ8/kRiTlufXq1bvrrru6dOmS8lyq2+LFi2fPnp3mxLlz57799tv7779/mkMBYIdVVFQ0ZMiQhx9+OP51e3Jic8qcNGnSxZUaNGiQ9UYANd7q1avvv//+kSNHnnDCCYWFhdk+tykHEfOBBx4YMGBAHryoyleaOXPmM88807Vr16uuusprZZKyioqKPn36zJo1K+W5derUGT58+FFHHZXyXFIwevTo9J+RkQzt379/ykMBYEdTVlZ277333nHHHevWrct6l7QVFxdvTrfXXHPNT37yk6zXAcgHyZnjk5UOO+yw3r17J+8zWWO7ImZJScn111//6KOP5mqb+JIv29SpU5MvW2GlOK8LQN7r16/fn//855SH1qpV67bbbjv++ONTnksK1q5dO3HixPTnPvbYY1dffXXTpk3THw0AO4h58+Zde+21//znP7NeJEuffPLJ5ZdfPmHChJtvvrl9+/ZZrwOQJzZfDfvII4/s06fPQQcdlPL0bY+YyQnwxRdfnKyew21qio0bNw4ZMiS5R7zxxhuPO+64rNch/916663jxo1LeWhBQcHvf//7rl27pjyXdEycODGTp2Zs2LDhkUceueiii9IfDQB5L7lzHzBgwEMPPZTHL39ZJc8///yPfvSjX/7yl4WFhbVr1856HYA88be//W327Nk//vGP+/btm+ZPKm9jxFy5cmX37t3feOON3G5TsyxfvrxHjx4nn3zyDTfc0LJly6zXIW/de++9d955Z8pDCwoKbrrppjPOOCPluaRmzJgxGY6+8MILk++xrBYAgLw0b968K6644oMPPsh6kVhKSkoGDRo0Y8aM5H2Eq1IA5IeKioq//OUvM2fOLCwsvOSSS9L5SeVtiZgrV648++yzFyxYkPNtaqJp06bNnj37pptuOuWUU7LehTz06KOPDhgwIP25ffv2Tf6Ypz+XdDz33HOLFy/OavrSpUuTuzpPYweAXCkvLx8yZMiIESN2kAv4bIPXXnvt5JNPvu66684666ysdwHIHxs2bBg8ePDEiRNvueWWI444orrHVTlirl+//txzz1Uwv2jVqlWXXXbZjBkzbr755iZNmmS9Dvlj+vTpffv2Tf+ngX71q1/5ad/8NmrUqMwXEDEBICeKiop69+69Y77MV5UkZ9rXXXfdiy++mJxpN2zYMOt1APLH0qVLu3fvfuaZZ1577bXVmsWqFjE3bdrUq1ev+fPnV9M2Ndrjjz/+8ssvDx48uHPnzlnvQj544YUXLrvssvLy8pTnFhYWJo+DUx5KmpYsWfLss89mu8Pzzz+/ePHijh07ZrsGANR08+bNu/TSSz/55JOsF6kxkrO2N998884779xnn32y3gUgf1RUVIwfP37WrFm33357ly5dqmlK1SLmgAEDMj/1jezDDz8866yzrr766gsvvDDrXajZXn/99YsvvrikpCTlud27d7/qqqtSHkrKxowZk/mL/ScLjBo16re//W22awBAjTZx4sRrr722tLQ060VqmHffffe0004bOnTosccem/UuAHnl448/Pvvss3v16tW7d+9atWrl/PhViJhTpky5//77c75BnikrK+vfv/+rr746fPjwrHehplq0aNF55523fv36lOd269btxhtvTHkoKSsuLp4wYULWW/y3SZMm/frXv27cuHHWiwBAjTRw4MARI0ZkvUVNtW7duh49evzmN785//zzs94FIK+Ul5cPHTp07ty5w4cPz/lFsL9uxFy6dOn111+f29l5zGXv2GbLli0755xzVq1alfLcU0899ZZbbkl5KOl77LHHVq9enfUW/y05eZgwYcJ5552X9SIAi1W0agAAIABJREFUUMOUlpZeeeWVU6dOzXqRmi05zb755ps/+OCDfv36FRQUZL0OQF558cUXTz311Lvuuuuggw7K4WG/VsSsqKi4/PLL165dm8PBeezAAw/0koJsm6KionPOOefTTz9Nee6JJ544aNAgj952BJlf0ueLxowZI2ICQJWUlJT07NnzmWeeyXqRPJE8NFq5cuWtt95ap06Vr3kLwFZ8/PHH3bp1GzBgwE9/+tNcHfNr3VIn55nz5s3L1cj8Vr9+/dtvv71u3bpZL0LNs2bNmnPPPXfJkiUpzz3mmGOGDRtWu3btlOeSvjlz5ixatCjrLf6/995777nnnjvqqKOyXgQAaob169f36NEjuUPPepG8MmXKlORx+B133JGcymW9C0Be2bhxY58+fZYtW9arV6+cHPCrI+Znn31266235mTYjiD58uy7775Zb0HNs2HDhgsuuGDBggUpzz388MPvvPNO2X0HEeppmJslK4mYAPB1bH64+OKLL2a9SB6aOXNmYWHh3XffXa9evax3AcgrFRUVt912W1FR0Q033LD9P/351RHz1ltvXbdu3XaO2UF06dLFdcnZBqWlpT179nzllVdSnnvooYfec889/s55B7F8+fKnn3466y229Oyzzy5ZsqRdu3ZZLwIAoZWUlBQWFiqY1WfWrFm9evUaMWKEnysHyLnRo0evWLHitttu286fAf2KG+iFCxdOnDhxewbsOBo3bjxw4ECvKkhVVVRUXHnllcnDppTndurUaeTIkQ0bNkx5LlkZO3ZseXl51ltsKfn+HzNmzHXXXZf1IgAQ16ZNm3r37v3cc89lvUiee/rppy+//PKhQ4c6pwPIuc3Xo9vOjvkVETO5BU/OMLf56DuUfv367bHHHllvQc2TfOekf3HJ/ffff9SoUU2aNEl5LlnZuHHj+PHjs97iP5swYcIVV1yhpwPAl7nhhhuefPLJrLfYIUybNm3XXXe9/vrrs14EIA9NnTq1oKDgtttuq1Wr1rYdYWsR85133pk+ffq2HXdHc+KJJ55xxhlZb0HNM3DgwHHjxqU8tGPHjmPGjGnWrFnKc8nQlClTVq5cmfUW/9nq1asnT5581llnZb0IAET0pz/96cEHH8x6ix3IyJEj99hjjwsuuCDrRQDy0OOPP96wYcNbbrll23771iLmqFGjPA3z62jRokX//v2z3oKa59577x0xYkTKQ9u2bTt27NiWLVumPJdsjR49OusVtia5uxExAeB/e+KJJ/7whz9kvcUOJzm523PPPU844YSsFwHIQw8//HCrVq0uv/zybfi9Xxox165dO2nSpO3YKpdq167dqFGjunXrJh+UlpaWlJSsX78+TmC95ZZbWrRokfUW1DATJkwYMGBAykPbtGnz4IMP7rbbbinPJVsvvfTSW2+9lfUWW7No0aI5c+YcfvjhWS8CAIEk949XXnllnLOeHUfy/7xPnz6TJ0/u2LFj1rsA5KFhw4a1bt16G57I8qUR84knniguLt6+rbZR06ZNO3fufMghh+y3337t27ffddddk89s8eLKmzZtWrlyZVFR0dJK77zzzsKFCxcsWLBhw4aUtz3jjDP8HR1V9eSTT15zzTUpPyRt2bLlmDFj2rZtm+ZQIgj+NMzNRo0aJWICwL+tWbPmkksuWb9+fdaLVEGDBg2aN2++884716tXb/N1G5KztpKSklWrVn3++ecbN27MesEqWLt2bfL/f/LkyY0aNcp6F4A8dMMNN3To0KGq54BfGjGnTJmy3StVTf369U855ZTTTz+9c+fOX3mtouRfaFFp//33//cny8rK3nzzzZdffnn27Nlz585N4W5yjz326NevX3VPIc+88MILvXv3Tvk60c2aNRszZoy/TN4BffLJJzXi1Y2ffvrp5cuXuzwaAGx25ZVXvv/++1lvsTVt27b99re/vX+ldu3aJXfiW+99K1asWLZs2QcffLBo0aKFCxfOmzevqKgotW23wbvvvnvNNdcMGzYs60UA8tCmTZt69eo1ZcqUKj3R6j9HzDVr1sydOzdHi32NJerU6d69+y9+8YtddtllO4/z7UoXXnjhhg0bZs2a9de//nXGjBnr1q3L1apfVFBQMHDgwMaNG1fHwclXr7/++iWXXFJSUpLm0KZNm44ePfqLxZ8dx7hx48rKyrLe4quVl5ePHTv26quvznoRaoxatWodc8wxWW+Rtp122inrFdia+vXrH3HEEVlvkTYvtF0dkvvEp556Kust/oPmzZsfffTRRx111Pe///1dd921qr830alTp39/5v333589e/bMmTPnzJkT83ma06ZNS+5rTj/99KwXAfLE7rvvfsABB+TqaMk51OZXXFy3bt3q1atXrVq1Zs2aXB08BStWrLj4/7Z353E1bf//wJ3mUkmFzJSuOcIVmTITkjkNhmTqUkSSMRLKmCGFNCnClT4lsyuEdM0ubmQsulQo0Xx+y+nz6+vjhspZa+9zzuv5hwep/Xo37bXX++y91rRpUVFR5Aqqgh9SfhMzPj6+uLhYfIV9T9OmTTdv3vzlYCYW5Cp/oMinT5/i4uIOHjyYlJQk3qd37e3tTUxMxHhAkHqPHj2aPHkypa76t6ipqe3Zs6dNmzYsQ4EnyHi2b98+rquoqMjIyDlz5lR8AAMZR35Udu/ezXUVAP9DV1cXP5bw81JSUqq8bSsl5JQ7aNCgESNGmJqaKih8b2/YSmkiYmtrS2bdJ0+e/P333xMTE/m2BqiHh8evv/7aqFEjrgsBAGnQo0cPqntjfPr0KT09/cmTJ2Qo+fvvv2/duvX48WO+nVe/9ODBA09Pz1WrVlXw/csfgS5duiS+kr6nc+fOO3fu1NTUpBehqqo6SoR8/0JDQ6OiosSybqahoaGrq+vPHwdkR1pa2oQJE969e8cylFxx7tq1q0OHDixDgT+OHj2amZnJdRUVRX47oqOjx44dy3UhAAAAnCkqKnJ2dma/0P+31K5de/LkyWR0rlmzJr0UDQ2N0inbo0ePyJTt4MGD/LkxMzc318XFhZT01SYNAAA8pKqq2lSkT58+pW/JyclJTEy8fPnymTNnnj9/zm155YqIiOjRo8fAgQMr8s7lNzGTkpLEWlL5jI2N9+zZo6amxiCLaN68uZeX17x580JFfqaXpKiouGnTJiUlJTGWB9ItIyPDzs4uPT2dZSj5EQ0ICMBmKbIsJCSE6xIqh5yc0cQEAABZRi7e7t27x3UVn9WuXXv27NljxoxhOetp1qzZypUrnZycAgMDyWUMT5q5169fDwsLmzBhAteFAABUmoaGRj+RpUuX3r9/PzY2NioqinFr4ofc3NyMjY0rskpJOU3MnJycx48fU6jqf+jo6OzYsYNZB7OMtrb2nDlzpk2bRqbKu3fvzsrKqsJByLDaqlUrsdcG0or8Tk2aNInx0uzy8vJbtmzp2bMny1DglZs3b96+fZvrKiqHTNuSkpJ+/fVXrgsBAADgAJmFbdu2jesqPt/I89tvv9nb23O1Dq+uri6Z0JLr540bNx46dIgPD0KuW7euf//+devW5boQAICqaykyf/78+Pj40NBQ8icfTrBEdnb2kiVLdu7c+cP3LKeJ+eDBAwafhru7e2WXghYjNTW1GTNmTJgwgXzb/P39yder4h9rbGxMPpZebSBl8vLyHBwcGL+iLhAINmzYMGDAAJahwDcSdxtmKVI2mpgAACCbyBSJ88eoyQXksmXL6tWrx20ZRJ06dby9va2trZcuXXr37l1ui8nNzfXw8AgICOC2DACAnycQCMxEkpOT/fz8YmNjS0pKuC6q2unTp2NiYoYNG/b9dyuniUk+DTol/Z+mTZuOGDGCdsoPlbYyybjo7+8fFBRUkSsGVVXVDRs2yMvLMygPpEBRUZGjoyOb9RnKkFPS2rVrLSwsWIYC32RkZMTFxXFdRVWcOHEiPT1dT0+P60IAAACYOnLkCOOLxq/UqFFjxYoVfLuGbNeuXVRU1K5du3x9fbnt8J46dSohIaFbt24c1gAAIEa//PLL5s2bZ86cuXbt2vj4eK7LqUbGoJ49e5LB6DvvU04T89mzZ9RK+q8xY8bwZ11kTU3NBQsW2NjYkG8bmfN//y7URYsWNWnShFVpINnIz9K8efPOnTvHOHf58uXkV4xxKPBNREREYWEh11VURXFxcXh4OPnd4boQAAAAdvLy8nx8fDgswNjYeOvWrXy4AfPf5OXlZ8yYYWZmNnv27JSUFA4r8fT0PHr0KO5oAQBp0rx586CgoDNnznh4eKSlpXFYSVZW1qZNm0gZ33mfcpqYqamptCr6/3i4Tl/9+vXJsG1ra7t8+fJv3Yvaq1cvGxsbxoWB5Fq2bFlMTAzjUDc3Nyw6DkVFRREREVxXUXX79+8nsxRsngYAALLD39+fw20WrKysVqxYoaioyFUBFdGiRYvo6OgFCxZw+KwJmSdGRkZaW1tzVQAAACV9+/bt2rXrmjVryESSw4Uyw8PDx48f37x582+9QzlNzNevX9MsqZqcnFyzZs2oRlSZiYnJ0aNHQ0NDN27cmJub++V/1ahRw9vbm6vCQOJs2LCB/PoxDnV2dp4+fTrjUOCh48ePUz2Ta2lpvXv3jt7xMzMzY2NjR44cSS8CAACAPzIyMiqymwENAoFg8eLF9vb2nKRXlpqa2rZt27Zs2eLr68vVHJukjx49Gi+1AoD0IedYT09PMzOz+fPnv3//npMaiouLSQ179+791juU08SkOjWtJtrfnc8nfXl5+cmTJw8aNGj58uWnT58uezv5OnK4ExFIlsDAwO3btzMOnTp1qrOzM+NQ4Kfg4GCqxyczh2nTplFdlyo0NBRNTAAAkBE7duzIy8tjn0smPt7e3hI34Do5OdWrV8/d3Z3Mddmnv379Ojw8nEwY2UcDADDQt2/f2NjY6dOnM96duMwlEVNT03L/t5wmJu2GK587mGXq1q27c+dO8p3z8PDIysoaNmzY0KFDuS4KJMOhQ4dWr17NONTOzo5cyTEOBX66e/fu9evX6R3fyMioR48e5ubmUVFR9FJu37598+bN9u3b04sAAADgg/T0dE4WgZGTk9u0aZOEznFGjx6tpaX122+/cbICuL+///jx41VUVNhHAwAwUL9+/cjIyFmzZnG128+GDRsq0cSkvenbp0+fqB5fjMig3rVr140bNy5YsIDrWkAynDx50t3dnfHjLeQybsWKFSwTgc9CQ0OpHt/W1rb0T6pNTCIkJARNTAAAkHp+fn7sN90WCARr166V0A5mqX79+m3btu23334rKipiHP3mzZsDBw5gGXoAkGLVq1ffvXv3vHnz/vOf/7BPv3HjxtmzZ/v06fPv/yqniVlQUEC1mtzcXBIhEfdjEjo6Ol5eXlxXAZLh8uXLzs7OjB9sGTZsGLkGZZkIfPb27Vuq20lpamqWTniMjY1btmx5//59ellxcXGLFy/W1dWlFwEAAMCtrKysgwcPss+dO3fu6NGj2eeKV//+/cllsKurK/v1Mffs2WNraysnJ8c4FwCAGXl5+Y0bNyoqKv7+++/s0/38/CraxKTdgiFjzJMnT76z2RCAJLp9+zbtVQL/bcCAAeS0gusnKLN//36qP4RkwlP28JSNjc2SJUvoZRUWFkZERDg5OdGLAAAA4FZYWBj72zBHjBgxa9YsxqGUjBw58vXr1z4+Poxznz9/furUqYEDBzLOBQBgSU5Oztvb+8OHDydOnGAcfV2kQ4cOX729nCamgoIC7T7mtWvX0MQEafLo0aPJkyd/taM9bb169dqyZYu8vDzLUOAzcur+zj5uP08gEFhbW5f909LScu3atWRIo5cYERHh6OhIRiV6EQAAAFzJy8sLCwtjHNq6dWv2q7dTNWPGjOTk5CNHjjDO3bNnD5qYACD15OTkfH19yTSQ6r4L5dq5c6e/v/9XbyxnZqioqEj79cAzZ858ORMGkGhpaWkTJkx4+/Yty9AuXbrs2LFDUpZlADZOnTr16tUrescnP3X6+vpl/1RTU7O0tKTaNn39+vXx48clesUuAACAb4mNjc3KymKZqK6u7ufnp6yszDKUgbVr1yYnJzPeSDcpKSklJcXAwIBlKAAAe0pKSgEBAcOHD3/58iXLXDK9TUtLq1+//pdvLKeJyaAtEh8f/+LFi4YNG9IOAqAtIyPDzs4uPT2dZaixsfHu3buxJSJ8hfaWPjY2Nl+9xdrammoTkwgODkYTEwAApNK+ffsYJ65cuVIqp2BkArtlyxYLC4uPHz+yzI2MjFy0aBHLRAAATujo6Gzbtm3s2LEs91ITCoUHDhyYO3ful28sp4mpqalJ+yXBkpKS9evX+/r6Uk0BoC0nJ2fSpElPnz5lGdq6devg4GA1NTWWocB/f//995UrV+gdv1atWgMGDPjqjS1atOjYseO1a9fo5V6/fv3u3btt2rShFwEAAMBecnLyjRs3WCb279/f0tKSZSJL+vr6ixYtorpa978dPnzY1dVVUVGRZSgAACfat28/f/58xrsKHzhwwMnJ6cs19MpvYjIoJSYmpnv37mPGjGGQBUBDfn6+g4MD4+dWDA0NQ0NDNTQ0WIaCRKB9G+a4cePKXZvS1taWahOzmuhTY79gPwAAAFWRkZEs48jVo6enJ8tE9qytrY8ePXr58mVmiVlZWfHx8f369WOWCADAIQcHh1OnTtGe/X3pn3/+IafZL7cpL2dGqqury6aaRYsWKSsrW1hYsIkDEKOioiJHR8ekpCSWoU2bNg0PD69ZsybLUJAI2dnZUVFR9I4vJyc3fvz4cv9r8ODBZFJE9f79mJgYd3d3/OQDAIDUEAqFsbGxLBOdnZ1r167NMpETq1atIlcmBQUFzBLj4uLQxAQAGVG6Wbm5uTnL0yyZDP6giVm3bl02pRQXF8+dOzclJeWru0MBeI5cd86fP/+PP/5gGdqgQYO9e/cye40BJMuBAwfy8vLoHZ8MG98aGpSUlMaMGRMQEEAvPT8/f//+/TNnzqQXAQAAwNLVq1ffvHnDLM7AwGDChAnM4jjUtGnTKVOm7Nixg1ni6dOnyWQem20CgIzQ19efOnXq9u3bmSWeOXPmy9NsOU3MevXqMatGKBRu3br1/Pnza9asadGiBbNcgJ/h4eHxn//8h2VinTp1wsPDmb3AAJKlpKSE9rPktra23/lfa2vrnTt3kvM5vQL27t07bdo0vNwFAADS4ejRoyzj5s2bV+6aMFJpxowZ+/bte/fuHZu4Dx8+kMksbsYEANnh6Oh44MABZi/FkdNsfHx8//79S/9ZzmBmYGDAppQyt27dGjp0qKWlpZOTU6NGjRinA1TKpk2bwsLCWCbq6OiEh4dL5VaSIBZ//PFHamoqveOTn70ePXp8/x169uxJhhZ6Nbx69erUqVODBg2iFwEAAMDMyZMnmWW1bt1apgZQDQ2NmTNnrlmzhlniuXPn0MQEANmhqqrq7OzMciM1Mmh+r4nZrFkzZqWUKSkpOXz48JEjRwYOHGhvb9+xY0f2NQD8UFBQ0NatW1km1qhRIywsTF9fn2UoSJaQkBCqxx8/frxAIPj++1hbW1NtYlYTbe8jU3MwAACQVvfv33/9+jWzOEdHR2ZZPGFra+vv7//27Vs2cefPn2cTBADAE2PHjt2xY0daWhqbuC9Ps+U0MZs0aVK9evXc3Fw21XyppKTkmIiBgcGoUaNGjBhRp04d9mUAlOvw4cOrVq1imaiurh4SEoKVFuA7Hj9+nJCQQO/4SkpKZIj64bv17du3bt26r169olfJlStXHjx4gF8HAACQdLRf9vsSmdnJ4EuAqqqqEydO3Lx5M5u41NTUJ0+eNG3alE0cAADnFBQUpk2btnz5cjZxb968uX//fsuWLauV28SUk5MzMjK6fPkym2rKlZKS4uPjs27duo4dO5qbm5OhV09Pj8N6AE6dOuXm5kZ11b+vkMuvPXv2kF9GZokgiUJCQqj+WJLTr7a29g/fjQwcVlZWmzZtolcJERYW5uXlRTUCAACANpY37tnZ2f3wcQqpZGNj4+fnx2z/3ISEBDQxAUCmjBkzZsOGDdnZ2WziyND5zSYmYWJiwm0TsxSZmf8p4unp2apVq759+/bu3dvIyEg2R2LgUGJiopOTU3FxMbNEZWXl3bt3d+rUiVkiSKIPHz4cPnyYasT3t/T5kpWV1datW4uKiugVExUV5ebmpqmpSS8CAACAqoKCghs3brDJUlFRGT16NJssvtHR0Rk8eHB0dDSbuGvXrlX8kgkAQAqQIWbs2LG7d+9mE5eUlDR9+vRq32pi9uzZk9nt9xUhFAr/EtmyZYu2tjYpz8zMjPyppaXFdWkg/e7cuTN16tT8/HxmiYqKin5+fl27dmWWCBLq0KFDVJf++OWXXyreSa9Vq1b//v2PHTtGr568vLzIyEjy+0gvAgAAgCoyo2F2VUnGZQ0NDTZZPERm18yamNevX2cTBADAH1ZWVsyamGWv/5XfxDQyMtLR0cnMzGRTTaVkZWUdEZGTk2vbtm2PHj169uxpbGwsLy/PdWkghVJSUiZNmvThwwdmieQn2dfXt3fv3swSQXKFhYVRPX5l7ykg70+1iVlN9ClPmTKFnP+ppgAAAFDCsts1cuRIZlk81KVLFz09vfT0dAZZL168yMjI0NXVZZAFAMAT+vr67dq1u3XrFoOst2/flq4+XH4Tk8wPhwwZEhoayqCUKispKbklsm3bNg0Nja5du3bv3r1bt25YjgTEJS0tzc7OjtnOhoRAIFi/fr0Mrr8OVXD+/HlyHqd3fDU1NUtLy0p9CDkPk5Hs8ePHlEqqJlo7/+zZs/369aMXAQAAQA+zJqampiaZGbHJ4idyXU2mtIGBgWzi7ty5g7sQAEDWDBs2jE0Tk7h58+Y3m5jEiBEjeN7E/FJOTs5JEfL3evXqkQG7R48e3bt3x/PmUGWZmZkTJkxg8+JtKXKl5eXlNXz4cGaJINGCg4OpHt/S0lJdXb2yH2VjY+Pp6UmjnjJkbEITEwAAJNT9+/fZBJmZmSkofHOuJyPIBQOzJmZycjKamAAga/r3779q1So2WX///Xe1bz1OTrRr187IyOj27dtsqhGjly9fHhQpfd68V69eZAgnnwseP4SKy8nJmThxItXb3P5tyZIlVlZWLBNBcj179iw+Pp5qhI2NTRU+atSoUT4+PlRX+0pISHj8+LG+vj69CAAAABry8vKeP3/OJotMgtgE8VmnTp00NTXZbJ778OFDBikAALzSsGFDQ0NDNifA5OTkat9pYhIODg5OTk4MSqGk7HnzLVu21KxZs2/fvv369evZs6eKigrXpQGv5efnkx/+e/fusQx1dXWdPHkyy0SQaGFhYUKhkN7xjY2NW7ZsWYUPJFOFYcOGHTp0SOwllSGfeEhIyIoVK+hFgEQoKChYsGAB11VQMXv2bHJFyHUVUBVZWVnS+mPp5uamo6PDdRUS79GjR2SGwibL1NSUTRCfycvLm5iYnDp1ikFW6S1CAACyplu3bnxpYpqbm/v6+qakpDCohra3b98eElFRUenZs+eAAQNkfLc++JaioiJHR8ekpCSWoSRx5syZLBNBon38+PHgwYNUI6p2G2bZx1JtYhKHDx92dXWtwtPuIE2Ki4tp/6RxhfwSoYkpoT59+iStP5azZ89GE/PnlU7AGGjUqFGdOnXYZPFcly5d2DQxnz59yiAFAIBvyGmW9kJnpV69epWXl/e9JqacnByZJc6YMYNBNcyQz7l09UxlZeU+ffpYWFj07t1bSUmJ67qAF4RCIfmZ/+OPPxjnvn//nnEiSLSoqKicnBx6x9fS0ho6dGiVP7xdu3Zt2rS5e/euGEv6Sm5u7qFDhyZNmkQvAgAAQOxSU1PZBJGxmE0Q/7Vv355NELk4IZf0NWrUYBMHAMATzEYcoVD48uXLHyz2PGDAgG7duiUkJLCpiaX8/PxjIpqamubm5qNHj+7QoQPXRQHHPD09S7eHYiw8PJz8omFTcqgg2ruukfPhT760Y2Nj4+7uLq56yhUWFjZx4kSBQEA1BQAAQIzS0tLYBLVt25ZNEP+1atVKQUGhqKiIQRaZXaOJCQCypk6dOrVr1379+jWDrNTU1B/vWLdy5Upzc3OquzRwKzs7e7+IoaGhlZXVqFGjNDU1uS4KuMFJB7PUwoUL27Rp06BBA64KAElx6dIlqmuOCAQCa2vrnzyIhYXF6tWrqd4u+uTJkwsXLvTs2ZNeBAAAgHgxa2KSeQ2bIP5TVlZu3LgxmxXSyOy6akuKAwBItObNm7NpYv74TkyiadOm8+fP9/LyYlAQtx4+fOjp6enj4zN8+PApU6Zg7AeWsrOznZycDhw4oKDw499KkGW0b8Ps1q1bkyZNfvIgqqqqI0eODAkJEUdF3xQcHIwmJgAASJD09HQ2QQYGBmyCJAL5arBpYmZkZDBIAQDgG3KavXDhAoOg169fV6hdYm9vf/Hixfj4eNoF8UF+fv6BAwcOHjxoZmbm6OjYsWNHrisCWXHz5s1169bRfggXJFpaWtrp06epRvzMlj5fsra2pt3EJKPSs2fPGjduTDUFAABAXN6+fcsgRU5Orm7dugyCJEXTpk3ZBGGZewCQTcxmZOQ0W6EmpkAg2Lhxo6Wl5YsXL2jXxBNCofAPka5du86bNw/LZQIbu3fvJj9yZmZmXBcCPLV3796SkhJ6x69Tp06/fv3EcihDQ0MTE5PExESxHK1c5EQdFha2ZMkSehEAAADiQoYtNk2u2rVry8vLMwiSFMxauu/evWMTBADAKyxPsxV9cLVmzZp79uwZNWpUdnY21Zr45vLly6NHj+7bt6+7u7u+vj7X5YCUI1e38+fPP3r0aJ06dbiuBXgnPz9///79VCOsrKzEOO2xsbGh2sQkDh486OLioqamRjUFAADg5+Xk5FB9JbJMrVq1GKRIED09PTZBaGICgGxi1r6oRBOzmuh7j6BFAAAgAElEQVQp96CgIDs7u48fP9KriZ/OnDkTHx8/ceLEOXPmVK9enetyQJplZWWRH7Pw8HA5OTmuawF+iY6OpnoHh7y8vJWVlRgPOHDgQF1dXarrQ5EJYVRUlLgegQcAAKCH2b0g2CD7K1paWmyCPn36xCYIAIBXmI075DRbuS1EjI2NAwMDHRwccnNzKdXEW0VFReRzj4uL8/T07NOnD9flgDRLTEzcsmXLnDlzuC4E+IX2lj59+/YV72toioqKY8aM2bFjhxiP+W/ky4ImJgAA8F9BQQGbIA0NDTZBkkJTU5NNELNvMQAArzBrYpLTbKX3QTYxMQkPD7e3t8/KyqJRE8+9evXKwcGBTMuXLl2qrq7OdTkgtbZt29ZFhOtCgC+SkpLu3btHNcLW1lbsx7S2tvb39xcKhWI/cpmHDx9eunTJ1NSUXgQAAMDPKywsZBOkpKTEJkhSMFt2pqioiE0QAACvqKqqsgkiI2mlm5iEkZFRVFTU1KlTk5OTxV6TRDh48GBSUtL27dtbtmzJdS0gnUpKSpydnePi4nR0dLiuBXiB9k7fTZo06d69u9gPW79+fTMzsz/++EPsR/5SaGgompgAAMBzzJqYioqKbIIkhYJCVea8VcDsWwwAwCssT7NVTGrYsOHhw4cXL14cHR0t3pokxdOnT0eOHLl27drhw4dzXQtIpzdv3syfPz8oKIjrQoB76enpJ06coBphbW1N6ci2tra0m5inT59OS0urX78+1RQAAICfwew2PYFAwCZIUjCbXbPZuAkAgG+YnWaFQmHVk9TU1DZt2tS9e/eVK1fm5OSIsSxJkZ+f7+LikpKSQv7kuhaQTvHx8QEBAdOnT+e6EOBYeHh4cXExveMrKyuPHj2a0sF79erVoEGD1NRUSsevJpoz7N27183NjV4EAADAT5KXl2cThIeav0L1IupLuAcWAGQTy9Psz7ZLR40aZWpqunjx4nPnzomjJAkjFAq3bduWkZHh5eWF1zyBhg0bNnTu3NnY2JjrQoAzBQUF+/fvpxoxZMgQeht3ysnJWVlZrV+/ntLxS5EvkbOzs4qKCtUUAACAKmPW4cJDzV9h1tVFExMAZBPL06wY7vmsW7funj17jh8/vmrVqpcvX/78ASUOmTwXFBSsW7cOfUwQO3I6cHZ2jo2NZbavIvAN+e5nZmZSjaC9u/fYsWN9fX2pzqnev3//n//8hwTRiwAAAPgZzPbb+fDhA5sgSfHp0yc2QdhSCQBkU35+Ppsg8TQxSw0aNKh37967d+8OCAiQwYHz8OHDqqqqnp6eXBcCUig1NdXNzW3Hjh1cFwLcCA0NpXr8Vq1a0b7VV1dXd+DAgbGxsVRTQkJC0MQEAADeYnab3vv379kESYrs7Gw2QcrKymyCAAB4hdlpVkVFRZyrb5Kz9m+//WZjYxMQEEBm3cxe8uKJ8PDwevXqzZw5k+tCQAqdOHEiLCzMzs6O60KAtZs3b96+fZtqBL0tfb5EhgbaTcz79+9fvXq1c+fOVFMAAACqRl1dnU1QVlYWmyBJ8e7dOzZBNWrUYBMEAMArzF48I6dZ8W8hpKWl5ebmNn369JCQkNDQ0Ldv34o9grfWr1/fokWL3r17c10ISCEvL6+OHTu2atWK60KAKXIipXp8MqGytLSkGlHKxMTEwMAgJSWFagoZdNDEBAAAftLU1BQIBEKhkHZQeno67QjJ8s8//7AJorfCOAAAn71+/ZpNEJUmZilyBnd2dp45c2Z0dHR4eDjtO4l4glyUzJ0799ixY3Xr1uW6FpA2BQUFs2fPjomJUVNT47oWYCQjIyMuLo5qhKWlJbOfKFtb2xUrVlCNOHHiBJm56enpUU0BAACoAnl5eQ0NDQbP3OXn52dmZuro6NAOkhSvXr1iE4QmJgDIJpanWVpNzFJKSkpjRO7fv3/w4MGYmBja21NwjlyXzJs3Lzw8HJv8gNg9efJkyZIlGzdu5LoQYCQiIoL2BqO0t/T50siRI318fKiuNFJcXExOv+QkTC8CAACgymrUqMFm4bDHjx+jiVnm2bNnbIK0tbXZBAEA8EpaWhqbIDK00W1ilmnZsuWyZcsWL1588eLF6OjoU6dO5ebmsolm78qVK5GRkVZWVlwXAlLoyJEjpqamo0eP5roQoK6oqCgiIoJqRKdOnZo3b0414ksaGhoWFhbk9Eg1Zd++fbNnz8b2oAAAwEN6enovXrxgEPTo0aNff/2VQZBEoL2aTZn69euzCQIA4BVmp9l69eoxamKWkpeX7yWSn59/7ty5Y8eOnT17Viq3Ml+7du3gwYOxtDPQsHz5cmNjYwMDA64LAbrIGZL22iIsb8MsS6TdxMzKyoqNjR05ciTVFAAAgCogsy82Qffu3WMTxH+FhYWPHz9mk4UmJgDIpocPH7IJIqdZpk3MMsrKygNFCgoKLl26dObMmZMnT75584aTYmjIzs7etm3b4sWLuS4EqGvQoEFqairLxE+fPs2aNevIkSPk94hlLjBGe0sfbW3twYMHU434tzZt2rRr1+7WrVtUU8iXDk1MAADgIWZNTBnZkKAiHjx4QKacDILIlbmuri6DIAAAXsnJyXn69CmbLNZ3Yv6bkpKSmYinp+dff/115syZ+Ph4Mr8tKSnhtrCft3fv3mnTptWqVYvrQoCirl27BgYGOjo6njt3jmXu33//vXLlSi8vL5ahwNLdu3evX79ONaJ169bkfEs1olyGhoa0m5h37ty5efNm+/btqaYAAABUFrM79e7fv//p0ydVVVU2cXxG+6qjTKNGjdgEAQDwCpl8CYVCBkGamprUN/aplNYiTk5O79+/vyBy6dIlZuuDil1+fn5gYODChQu5LgRo6dChw65du1RUVNavX29ubk77yd+v7Nu3z9TUdMiQISxDgZnQ0FDaEaWnWdopXAkODt68eTPXVQAAAPyPZs2asQkqKipKSkrq2bMnmzg+u3z5MpugX375hU0QAACvJCYmsgkqPc3yqIlZpkaNGkNFyN+fP39OBh4yBl+5cuXly5dcl1Y5kZGRc+fOxTO/UsnIyCgoKEhNTa2a6LHcjRs32tnZsXn9ocyiRYvatm2LV32lz9u3b2NiYriuQrIdO3ZsyZIleKoLAAB4hWWfKyEhAU1McnFOZpFsslhulggAwB9kuGETVHqa5WMT80uNRMaNG0f+/uTJk8sily5dIpN8rkv7sffv35OJtKWlJdeFgJi1aNEiJCREQ0Oj7C2mpqYzZszYsWMHyzJycnKcnJwOHjyoqKjIMhdo279/f35+PtdVSLbCwsKIiAjyC8J1IQAAAP9HS0urVq1abHYCOH36tLu7O4MgPrtx4wazaSOamAAgg8g5ltmqHYaGhtX438T8UlMRa2troVB49+7d+Pj4ixcvXr9+vaioiOvSvikmJgZNTCljYGAQFhb2763n586de+XKFXKpxLKY27dve3t7L1myhGUoUFVcXLx3716uq5AG4eHhjo6OCgqSNMwBAIDUa9GiBZsm5pMnTx49esTsAXZ+OnXqFLOs1q1bM8sCAOCJM2fOkAksmywjI6NqktXELCMQCNqKzJo168OHDxcuXCDj0x9//PH+/XuuS/vaxYsXSYXq6upcFwLi0bhx4/DwcB0dnX//l4KCgq+v75AhQ3JycliWFBQU1LVr1759+7IMBXrI2ezVq1dcVyENyBTx2LFjw4YN47oQoEVRUVFaF55mtvUHiJ2mpqazszPXVVChpaXFdQlSon379szWpI6Ojp43bx6bLH46evQom6A6deow23oeAIA/YmNj2QQpKyu3atWqmoQ2Mb+krq4+WKS4uDgpKYkMVGTWmpWVxXVd/1VYWHjlypV+/fpxXQiIAZlVhoeH165d+1vv0KBBAy8vL8ZPsAqFQldX17i4OD09PZa5QElISAjXJUgP8sVEE1OKKSgoTJ48mesqAP6HhoYGfizh+4yNjZllRUdHu7i4CAQCZom8cvXq1dTUVDZZHTt2ZBMEAMAf6enpFy9eZJPVunVrJSWlalLQxCwjLy/fRWTFihWXLl06fPjw8ePH8/LyuK6rGikGTUwpUKdOnfDw8B++xDp06FDya3zgwAE2VZV69+6dk5PTvn37yG8By1wQuwcPHjDb3E0WXL9+/e7du23atOG6EAAAgP8yNjYWCARsdoNMTU29cOGCzG7vw/KCHE1MAJBB5DRbUlLCJqvsNCs9TcwycnJy3UVWrFgRExMTGhqanJzMYT2MF0kEGnR1dcPDwyu4D/jy5cuvXbuWkpJCu6ov/fnnn76+vi4uLixDQezI+YrrEqQN+ZL6+PhwXQUAAMB/1ahRo1mzZg8fPmQTR65gZbOJmZWVxexZ8mqiTT6ZZQEA8EFhYSEZYpjFde/evfQvUtjELKOhoWEtkpCQsGvXrvPnz3NSxv3798l3F/tHSy4tLa2wsDB9ff0Kvr+qquqWLVtGjBhRUFBAtbCvbN++vUuXLriEklzZ2dlHjhzhugppExMTs3DhQm1tba4LAQAA+K8ePXowa2KePn36yZMnTZs2ZRPHHxEREfn5+Wyy6tSpg63JAUDWREdHs9mnrppoQczOnTuX/l2am5hluoncvHlz3bp1ly9fZpxeUFDw/PlzAwMDxrkgFpqamqGhoZW9LmnZsqW7u/uKFSsoVVUuoVA4d+7cuLi4cvcdAv6LjIzkwwoYUoZMYMgXdubMmVwXAgAA8F89e/bcs2cPmyxyfRgQELB27Vo2cTxBLqiCg4OZxcnmva4AIMtKSkr8/PyYxXXu3FlZWbn07zLRxCzVvn378PDwEydOeHp6vnz5kmV0SkoKmpiSSE1NjVxiVm1BvYkTJ168ePHMmTNir+o73rx54+LiQi7aZHYFd8lFhoGwsDCuq5BOe/funTZtGlaMBQAAnjAxMSGTMWb3CR4+fNjR0bGCyyJJBzLpY7nRa+/evZllAQDwwe+///706VNmcX369Cn7uww1MUsNHDjQ1NR0yZIlMTExzEKZ7YsHYqSiohIYGNihQ4cqH2HdunWDBw/+559/xFjVD124cMHf3x/3nUmcs2fP4kRByatXr06dOjVo0CCuCwEAAPhMWVm5e/fuzF7qLioq2rhx4+bNm9nEcS43N3fHjh3M4lRVVc3MzJjFAQBw7tOnTxs2bGAWJxAIBg8eXPZPmWtiVhOtlenr69u4ceNt27axSUxPT2cTBOJCLi4DAgJMTEx+5iBaWlrketHGxobZjl2lyHUqqfxn2q/AHrb0oSokJARNTAAA4A9zc3OWz+vExMRMmjSpffv2zBI55O/vz/I2zL59+6qoqDCLAwDg3Pbt21+/fs0srlOnTrVr1y77pyw2MUu5uLjk5+fv2rWLQVZGRgaDFBAXBQWFrVu39ujR4+cPZWJi4ujoyKxdXqq4uNjJyeno0aM1atRgmQtVlpKSkpCQwHUV0iwxMfHBgwctWrTguhAAAIDP+vXrp6SkxGwTSKFQuHz58iNHjkj9ikMvXrzYvXs3y8QhQ4awjAMA4BaZurJpo5UxNzf/8p+y28QkFi5c+Oeff964cYN2UHZ2Nu0IEBd5eXlfX19yZSmuAzo7O1++fPnatWviOmBFvHz50s3Nzd/fn2UoVFloaCiZXXBdhZQjX+TVq1dzXQUAAMBnGhoaPXr0YHkz5p07d4KCguzt7ZklcmLZsmXMFhslatSogQUxAUB2FBcXL1iwoLCwkFmikpKShYXFl2+R6SamQCBYtGjRmDFjaAd9+PCBdgSIBfmRWL9+/ZcLLvw8eXn5zZs3DxkyhHEv++TJk8HBwZMmTWIZClVAzg+HDx/mugrpd+TIkYULF2pqanJdCAAAwGdkDsJ4B0hyldu7d++mTZuyDGXp999/j4+PZ5k4YsQIMsFmmQgAwCE/Pz8GdwF+aeDAgTVr1vzyLTLdxCQ6duzYokWLBw8eUE1h2aiGn7Fy5crhw4eL/bD169dfs2bNb7/9JvYjf9/atWs7depUtd3VgZlDhw7l5uZyXYX0y8vLi4yMnDp1KteFAAAAfNanTx9dXV2Wq06RoXD27NmHDx+Wyr5bWlqap6cn41ArKyvGiQAAXLly5Yqvry/j0HHjxn31lqo3MW/dulWzZs1GjRr9XEncIxcQaGJCKXrPgwwePHj8+PH79u2jdPxyFRQUODk5xcTEVK9enWUuVJxQKMSWPsyEhYVNmTJFTk6O60IAAAA+L8I+atSogIAAlqH37t1btWrVypUrWYYyUFxc7OLiwvixpw4dOvzyyy8sEwEAuPLy5UsnJyfGWxbr6+ubmpp+9cYqNjHT0tIcHBwKCwt9fX179er107VxSUb26QPOLV269OrVqykpKSxDnz59umjRIvYvmEAFnT9/nnyPuK5CVqSmpp49e1aMK94CAAD8DCsrq507dzJeF3vv3r1t27ZlsKAWS97e3klJSYxDpX6BUQCAUrm5uQ4ODuw3rC73NFuVJib5BKZMmZKZmVl6UGdn51mzZknuvS2NGzemHaGoqEg7AvhPRUVl69atI0aMYLncOBETE9OtW7exY8eyDIUKCgkJ4boE2UK+4GhiAgAAT5BpSP/+/U+ePMk4d+nSpQ0bNuzSpQvjXEqio6MZ70hOkC/goEGDGIcCALBXUFAwffp02o8v/5u2tvaoUaP+/fZKNzFLSkqcnZ2Tk5NL/ykUCjdv3nz16tVNmzbVqlXrZ8vkAoN9HtDEhFItWrRYvHjxsmXLGOd6eHgYGxsbGhoyzoXve/bsGePl5+HSpUspKSkGBgZcFwIAAPCZg4MD+yZm6Yx0//79LVu2ZBwtdomJiW5ubuxzsUANAMiCwsLC2bNnkzkU++gJEyYoKyv/++2VbmJ6e3ufPXv2qzeST8nc3HzdunVmZmZVq49DDDqMampqtCNAUtja2l68eJHx1WpeXt6sWbOio6NVVFRY5sL3hYWFMX6CDMgXPCQkRPrWAgMAAAnVqVMnY2Njxpu9Ejk5OXZ2dhERERK9quNff/01ffr0goICxrm6urp4yAkApF5+fv7MmTPPnTvHPlpTU3Py5Mnl/lflmpiHDh3atWtXuf+VmZk5ZcoUGxubRYsWSVaj5OPHj7QjtLS0aEeABPH29r5z586rV69Yhj58+HDFihVr1qxhGQrfQc48Bw8e5LoKWRQVFeXq6qqhocF1IQAAAJ85OTl9a6pGVVZWlrW1dVhYmITej/ngwQM7OzvGm/mUIrN6yZrwAgBU1tu3b6dOnXr9+nVO0kn0t+ZrlWhiXr16dfHixd95B6FQuHfv3oSEBB8fn44dO1auRu68fv2adgSamPClGjVqbNq0iVw1Mt7bKzIy0tTUdNiwYSxD4VuioqJycnK4rkIW5ebmHjp0iJPpIgAAwL/16tWLk5sxq4n6mKWbC5mYmLBP/xnky2Vvb//+/Xv20XXq1LGxsWGfCwDAzP379x0dHZ89e8ZJura29qRJk771vxVtYr548WLmzJmFhYU/fM8nT56MHTvWzs5uwYIFEvEYNYMFSvX09GhHgGTp3Lnz7Nmz2W8avnjxYiMjIwabWcEPBQcHc12C7AoLCyPjokAg4LoQAACAz+bOnTthwgROonNyciZOnOjl5VXu/gn8dOLECRcXl0+fPnGSTq7hlZSUOIkGAGAgMjLSw8OD8XbEX3J2dq5evfq3/rdCTcwPHz44ODi8ffu2gpFCoTA0NPT06dNLly4dOHBgBT+KK+fPn6cdUb9+fdoRIHFK18dNSkpiGUp+l0nuoUOHcO3FrdLtZbiuQnY9ffqUnPl79erFdSEAAACfde/evVu3bgkJCZykFxQUuLq63rt3b+HChTzfj5RMM/38/DZu3MjVquKGhobjxo3jJBoAgLaMjIzFixefOnWKwxqaN29ubW39nXf4cROzpKTEycnp4cOHlc1++fLlzJkzzczMli1b1qRJk8p+OBtZWVkMdgdu1KgR7QiQOHJycps3bzY3N2f8IMzdu3e9vb2XLl3KMhS+EhISwnUJso58C9DEBAAA/liyZMmQIUMYrzX0paCgoOvXr2/ZsqVhw4Zc1fB9ZOI2b948BnO37yDfJnl5eQ4LAACggYw+ERER69ev52Sh4S8tX778+6fZHzcxV69e/TO7EZGPTUhIsLOzmzVrFg+XhgwMDKR9l6xAIGjWrBnVCJBQdevW9fb2njFjBuPc4ODgrl279uvXj3EulEpLSztz5gzXVcg6MgV6+vQpb19gAwAAWdO8efPx48eHh4dzWMOtW7cGDx68cOFCW1tbDsso1/Hjx5cuXZqZmclhDX369OnRoweHBQAA0HD69Ol169ZV4c5FsbOwsOjSpcv33+cHTczIyMg9e/b8ZB2FhYXkIIcOHZo2bdqkSZP4s1Am+Sbt3r2bdkrjxo1VVVVpp4CEGjBggI2NDeMLVqFQ6OrqevTo0Xr16rHMhVJhYWEc3mcBpUp3oluyZAnXhQAAAPzX3LlzyeXZu3fvOKzh48ePy5Yti4qK8vT0bNWqFYeVlElNTSXFcPt4I0EmdB4eHtzWAAAgRmRCdPLkye3bt9+9e5frWj7T1tYmA9AP3+17TczExMSKHKKCsrOz169fHxQUNGPGDGtra877eu/fvyeVVGSrop9kZGREOwIk2pIlS5KSkpKTk1mGkp9/Z2fn/fv344kYxvLy8iIjI2mnLF68eMiQIbRT6CHj6LRp02inHDx40MXFhT+vqwEAgIwj8zdyWTh//nyuC/m897eFhcW4cePI5WLt2rW5KiMnJycgIIDBk3MVQa4ZGjRowHUVAABi8ObNm99//z0iIiI1NZXrWv6Ph4cHGQd/+G7fbGI+f/68gtuRV0pmZqaXl9eOHTvs7e3t7Ow0NDTEe/yKlzFx4sQnT54wyPr1118ZpIDkUlZW3rp1K7lSZHx9du3atY0bN7q6urIMhejoaNqroKqrq48fP16ie3N6enoGBga09z4iU6OoqCgbGxuqKQAAABU3cuTII0eOXLx4ketCPq+Ptm/fvtKBcurUqYxbme/evQsNDQ0ODub2vtQyRkZGkydP5roKAICfkpGRcfbs2aNHjyYkJPDt0UBzc/OhQ4dW5D3Lb2KSqd2UKVPojRlZWVnr16/fvn27paWlnZ1dixYtKAWV68aNG05OTmlpaWziOnfuzCYIJJehoeHSpUvZP9nq7+/ftWvX7t27M86VZeSKnHYEOa9KdAezlK2t7YoVK2inkNkRmpgAAMArq1evHjx4cG5uLteFfJaXlxcYGBgWFjZ8+HAya2vTpg3txPv370dERBw+fPjTp0+0sypIWVl53bp1cnJyXBcCAFBpGRkZt2/fTkxMvHz58l9//SUUCrmuqBwNGjRYs2ZNBd+5nCZm6XbktG+BIcjItE+kXbt2ZFwcOnSorq4u1cTs7OzNmzeTYbi4uJhqUJn69esbGhqyyQKJZm1tnZCQcOzYMZah5BTm4uISFxdH+1cPSl29epVcmtNOIT9LtCMYGDlypI+PD+0JDBnpLl26ZGpqSjUFAACg4shczsPDg1fPyhQUFBwUad26tYWFxZAhQ8S+rvrLly+PHj0aExPDk6XZvuTu7o4JHQDwVmFhYXFx8YcPH7JF/vnnn1evXj1//vzJkydk7vn69WuuC/wBeXl5X1/fij+lXU4T08vLKz4+XqxV/cAtkVWrVnXq1Km3yC+//CLeiLS0tHCRnJwc8R75+8jnwjIOJNqaNWtu377N7B7hUhkZGXPmzAkLCxMIBCxzZROD2zA7duzI+N52SsgwNmzYsAMHDtAOCgkJQRMTAAB4ZdSoUefPn4+JieG6kK/9JUIuWcnFhpmZWefOnTt06KCpqVm1o719+/bGjRtXr149d+4c49XhK458mhMmTOC6ChCz06dP6+vrc10FXbGxsTzZmwu+EinCdRU84u7ubmxsXPH3/7qJGRERERQUJNaSKqqkpOSqiLe3t5aWVqdOncig2Lp165YtW1btNrHi4uIHDx5cuHDh7Nmz165d4+S+WYneWwMYI5eAmzdvtrKyYnancKlLly75+fn99ttvLENlUHp6+okTJ2inSNPD0eRzYdDEPHPmTFpaWv369WkHAQAAVNyqVatu3rz54sULrgsp3wMRf39/gUDQoEGD5s2bN23alAym9erV0xZRV1dXVFSUl5cnl7WFhYU5OTnv37/PzMwkY25qauqjR4+Sk5NfvXrFzwcby+jp6a1bt47rKgAApNbIkSPt7e0r9SH/08S8cuWKh4eHOCuqqnfv3p0WKf0nGQgbN27cQIT8vaaImpqaooicnBwZGvPz87Ozs8kHkuGQDI0pKSn379/Py8vj8LMgozgWxIRK6dixo5OT06ZNmxjnbt682cTEpFOnToxzZUp4eDjt9rSWlpa5uTnVCJbaity5c4dqSklJSVhY2MKFC6mmAAAAVIqGhoa/v/+oUaO4nc78kFAofCHCdSHiR6aZfn5+Ojo6XBcCACCd2rVrt3r16sp+1P81MZ89e+bo6FhUVCTWqsQjS+TGjRtcF1I5Y8aMwSO6UFm//fbb5cuXr1y5wjK0uLjYyckpLi5OS0uLZa7sKCgo2LdvH+0Ucs5RUlKincKSjY0Ng/ZiZGTknDlzVFRUaAcBAABUXMuWLcnszsXFhetCZNSyZcvat2/PdRUAANKpUaNGu3btqsLs9b9NzJycHAcHB3rbkcsgRUVF6dheAxiTk5PbuHGjubk549/H9PR0V1dXch5hGSo7YmNjs7KyqEYIBILx48dTjWBv2LBhXl5etNcyfv/+fXR09Lhx46imAAAAVJalpeVff/0VGBjIdSEyx0aE6yoAAKSTjo5OSEhI1daN/NzELC4unjVrFoPtyGWKhYVFrVq1uK4CJJKenp63t/eMGTMYrxN05syZoKCgyZMnswyVEeQcTTuiW7duTZo0oZ3CmKqq6siRIxl89UgEmpgAAMBDixYtevny5bFjx7guRIaYmTID6TcAAA/ZSURBVJnxZI01AADpo6GhERQU1Lhx46p9+Ocm5qpVqy5cuCDWqmSdvLw8tkmBn9G/f387OzsGm1l/Ze3atR07djQyMmKcK91u3rxJe2HHatK1pc+XrK2tGTQxHzx4cPXqVaxiDAAAfCMQCDZt2vTmzZs///yT61pkQuvWrbdt20Zmc1wXAgAghTQ0NMjkrk2bNlU+gkJERASD+aGsGTFihPTdEgWMLVq06OrVqw8ePGAZWlhY6OTkFBsbq66uzjJXugUHB9OOqF27dt++fWmncMLQ0LBz587kd4F2EBkK0cQEAAAeUlJS2r17t7W19b1797iuRcoZGBiQyzY1NTWuCwEAkEKlHcyfXG5YQU9Pj5ymP378KK6ygHw958+fz3UVIPHIBevWrVuHDRvGeFfK58+fu7u7k2iWoVIsIyODwSNgVlZWCgoKP34/yWRjY8OgiXny5Mn09HQyJtIOAgAAqCxNTc3Q0NDx48c/fPiQ61qkVoMGDcLCwrAdOQAADdra2kFBQW3btv3J4yj06dPnwIED9vb2r1+/FktlMGvWrNq1a3NdBUgDAwOD5cuXu7u7M849evSoqamp9O0Sw4mIiIjCwkKqEXJyctK9nuPAgQPJmEd7Z6Ti4uK9e/fiJSgAAOAnMhSGh4dbWVk9fvyY61qkUN26dcmXF69lAgDQ0KBBg5CQkKZNm/78oT7fudOqVasjR47Y29szfnBVKrVs2dLBwYHrKkB6jBs3LiEhITY2lnHuypUrO3To0Lx5c8a5UqawsJBcENNO6du3L7nypp3CISUlpbFjx/r7+9MO2r9/v5OTE4mjHQQAAFAFurq6ZKiaMGECZm3i1ahRI3LBVr9+fa4LAQCQQq1atQoKChLXxtf/ffxQT0/v4MGDbm5ucXFxYjmubFJUVPTx8ZHihzqBE15eXjdv3kxNTWUZmp+fP2vWrJiYGBUVFZa5Uub48eNv3ryhnWJtbU07gnPjx48PCAgQCoVUU7KyssjP/KhRo6imAAAAVFlpH3Py5Mk3btzguhYpYWBgEB4ejgfpAABoGDx48Pr161VVVcV1wP9rt1WvXn3btm27du3y8fEpLi4WV4BMmTdvXuvWrbmuAqSNhoaGr6/v2LFjGf9ipqSkLF++3Nvbm2WolGGwpU+DBg169uxJO4VzDRs2JJ9mfHw87aDQ0FA0MQEAgM80NTX37t07a9asP/74g+taJF6HDh3I/LdmzZpcFwIAIG0EAsHcuXPJaCXew359z+DUqVONjIycnJwY3D0kZXr37j1t2jSuqwDpZGxsTH7/169fzzj34MGDpqamw4cPZ5wrHe7evcvgLglra2syPNBO4QPymTJoYt65c4d818hvHO0gAACAKlNVVd21a9fq1av37NnDdS0SbMiQIRs2bMAyMgAAYqerq7t+/Xoad9uU8+CziYlJXFycm5vb2bNnxZ4nrQwMDDZv3sx1FSDNZs6cmZCQcPnyZca5S5YsadeuXZMmTRjnSoGQkBDaEYqKimPGjKGdwhN9+vTR09NLT0+nHUS+cWhiAgAAz8nJyZGLNDIH8fDwoL2FoPQRCAQzZsxwdXXluhAAACnUrVu3TZs26erq0jh4+as36ujo7N69OzQ0dM2aNfn5+TSCpUmtWrUCAwM1NDS4LgSkGbnYIieCwYMHv337lmVubm7urFmzDh8+jJepKyUrK4vBdkyDBg0ip2vaKTwhLy9vZWXF4OWiY8eOLV68WFwrTwMAANAzfvz45s2bk0s1Bi/ySQ0ya/Px8Rk4cCDXhQAASBtlZeV58+ZNmTKF3sOC39uCZsKECaampm5ublg3+js0NTVDQkIaNWrEdSEg/WrXrr1u3bqpU6fS3t7kK/fu3Vu9erWHhwfLUEm3f/9+Bq8AycKWPl8aN27c1q1baS8OW1hYuG/fPicnJ6opAAAAYtGhQ4fY2FhnZ+eEhASua5EALVq08PPzwzNGAABiR8YjHx8ffX19qik/2Ee7WbNmhw4dCgkJ2bBhQ25uLtVSJJGWllZoaCgZC7kuBGRFnz59Jk2aFBQUxDg3LCzM1NR0wIABjHMlVHFxcXh4OO0UAwMDExMT2im8UqdOnX79+p04cYJ2EPn2zZw5U1FRkXYQAADAz9PW1ibztZ07d27evLmgoIDrcnhKIBBMnDjRzc1NWVmZ61oAAKSKpqbmnDlzyDmWwW4NP2hiVhOd7idNmjRo0KDly5efOnWKdkESpHbt2sHBwehgAmPk2isxMfHevXssQ4VC4YIFC1q3bl2/fn2WuRLq5MmTr169op1iY2NDO4KHyGfNoIn55s2b48ePDxs2jHYQAACAWMjJyc2YMcPMzGzevHn379/nuhzeIRM3Hx8fGltMAADIMoFAMHbsWFdXV21tbTaJP25iltLT0wsICLhw4cKqVasePnxItSaJ0KJFi8DAwLp163JdCMgcJSWlLVu2WFhYfPz4kWVudna2k5NTZGSkgkJFzxsyKzQ0lHaEiorKqFGjaKfwULdu3Ro3bvzs2TPaQcHBwWhiAgCAZCEzlCNHjvj5+e3YsQO3ZJYiE2xyybRo0SItLS2uawEAkCql60+2bduWZWjlmhE9evSIi4vbt2/fpk2bGO8uwitDhgxZu3Zt9erVuS4EZJS+vr6Hh8eCBQsY5964cWPjxo3scyXLgwcPEhMTaacMGzZMNjcTI1OR8ePHkzMw7SDy03737t02bdrQDgIAABAjRUVFZ2dncp2wZMmSK1eucF0Ox8g1s5eXl6wtvwMAQFvbtm0XLFjQrVs39tGVvqNKXl7e1tbW0tIyODg4MDDw/fv3NMriLWVl5UWLFtnZ2XFdCMi60aNHX7hwISYmhnFuQEBAly5d8DDOdzC4DbOarD5LXmrMmDEbN25kcINJSEjIunXraKcAAACInb6+fkRERHR0NBnIXr58yXU5HFBXV3d0dLS3t1dSUuK6FgAA6dGhQwdydu3Tpw9XBVTxsVAyKsyaNWvSpEl7RLKzs8VbFj8ZGRlt2LDBwMCA60IAPvPy8rp58+aLFy9YhgqFwnnz5sXFxdWqVYtlrqR4//79kSNHaKe0bduWnI5op/BWzZo1Bw8eTCZmtINiY2Pd3d2ZLe8CAAAgXsOHDycjJpms+fn5ffjwgetyGJGTkxs/fvycOXN0dHS4rgUAQEoIBIKePXvOmDGD83vbf2ptO3V1dScnJwcHhwMHDgQFBTFuprBEPlMXF5cJEyaQQZHrWgD+i/xY+vr6jh07tqioiGVuZmams7Pz3r178evwb+RkmJeXRzvF2tqadgTP2djYMGhi5ufn79+/39HRkXYQAAAAJUpKSmTOSS4XAwICyMXbp0+fuK6IIjLHHjp06OzZs5s1a8Z1LQAAUkJDQ2PUqFG2trb6+vpc1/KZGDboUFNTmzRp0oQJE06cOBESEpKUlCQUCn/+sDwhLy9PRv05c+bgvjPgofbt27u4uPj4+DDOvXLlyrZt25ycnBjn8lxJSUlYWBjtFDKKWFhY0E7huU6dOv3yyy/Jycm0g8h8b/r06WQgoB0EAABAj7a2tru7+7Rp03bu3CmVrUw5ObkhQ4agfQkAIC4CgaBLly6Wlpbk7KqmpsZ1Of9HbLsMk5FjsMjjx49/F3n9+rW4Ds4J8hmVvpSH58eBz6ZPn37p0qWLFy8yzt2yZQs5qXXu3JlxLp+dPXs2NTWVdsqIESNUVVVpp/CfjY3N8uXLaaekp6efPHmSDG20gwAAAGjT0dFxd3d3dHQMDw8PDQ2V9MlaKXV19bFjx06cOLFhw4Zc1wIAIPEEAkGbNm0GDRo0fPjwevXqcV1OOcTWxCyjr6/v6urq4uJy/vz5o0ePnj59WuJWzFRWVh45cuSUKVN4crsswHeQs8yGDRvMzc0zMzNZ5paUlDg7O8fFxdWsWZNlLp+FhIQwSJHlLX2+NGLECG9v748fP9IOItM8NDEBAEBq1KhRw9HRcerUqbGxseHh4devX+e6oioyMDCwsrIaO3ashoYG17UAAEg2FRWVX3/9tW/fvv37969bty7X5XyP+JuYpeTl5XuLFBYWJiQkxMXFnT17Nisri1KcuJCxcPTo0WQsRF8GJEitWrXWr19vb2/PeCWHf/75Z/78+YGBgSxDeSslJeXSpUu0U8jQYmhoSDtFIqirq1tYWOzfv592UGJi4oMHD1q0aEE7CAAAgBlFRcURIo8ePYqMjIyKiuL/TK2UmprakCFDxo0b16FDB65rAQCQYOR0amRkZGJi0rVrV2NjYzIucF1RhdBqYpYhXwgzEaFQePv27T9E7t69y6t1M+vVqzd48GAyHLZv357rWgCqolevXvb29uz7ieTXeffu3Q4ODoxzeSgkJITBaQ23YX6JfDUYNDGrib65a9asYRAEAADAWLNmzRYvXuzm5nb58uXjx4+fOHGCn91MdXX1Pn36kCkbuehVUVHhuhwAAMlTq1YtAwMDQ0NDIyOjdu3a6evrS+JWvdSbmGUEAkE7kTlz5uTk5Fy7di0pKSkxMfHu3bsFBQXMyiijoKDQtm1bMgr27t2b/IV9AQDitWDBgtJfKMa569at+/XXX8mvNuNcXiHntKioKNop2tragwYNop0iQVq3bk1+8G7dukU7KDo6euHChTVq1KAdBAAAwAkyM+oh4unp+eeff168ePHChQt37twpKSnhsCoyf2zevHm3bt26d+/etWtXJSUlDosBAOA5OTk5dXV1TU1NMm3R0tIik8d69erVFmnYsKG+vj75X65rFAN2TcwvaWholN6eSf5eWFiYnJx8+/bteyIpKSn01tAk37w2Ih1FeLXFEnxfq1atGLQqJPq3WlFR8dChQ/n5+eyjcU1JTiYMniWXl5fHl/or+/fvZ/MyGMaLyjI3N+/Tpw/XVQD8Dxsbm9GjR1ONEAgEVI8PQBuZA3cWcXFxIZOyxMTEmzdv3rhxg0zWGKxDXU20OUHbtm2NjY3btWtHytDV1WUQCryycuXKpUuXcl2FxKtevTrXJUikbdu2FRUVcV1F5SgqKpJ5ooKCgoxchHDTxPwS+Yq3Fil7S2Zm5pMnT54+ffry5ct//vnnlUhWVhYZRyvYoFFXV69ZsyYZ8xo0aFCvXr2GDRs2a9bM0NAQK11KLnJFhUW7f0hJhOsqZBEZNvDzyQllEa6rgHIoinBdBcD/wCgJUCmampr9RaqJdnRMSUlJTk5+JPL48eO0tLSfv/WkevXqZLKmr69PZmql8zWCTMXFUT5IKhURrqsAGaWqqsp1CfADfBwhdEQ6der07/8qKCh49+5dbm5uoUhRUVFxcXFp15n8SUZBNTU1DQ0NXKECAAAAAACIhZycXGmH8cs3kklZWlpaenr6O5Hs7OycnJx8kdLJmlAoJPOy0pe1VFRUNP+/mjVr1qlTp379+ngNGAAAKuX/AXYXV89W33dTAAAAAElFTkSuQmCC;" parent="1" vertex="1">
                    <mxGeometry x="147" y="230" width="100" height="50" as="geometry"/>
                </mxCell>
                <mxCell id="HWHSqS2P6HCf4RbeMcaz-17" style="edgeStyle=orthogonalEdgeStyle;rounded=0;orthogonalLoop=1;jettySize=auto;html=1;entryX=0.5;entryY=0;entryDx=0;entryDy=0;fontColor=#007FFF;strokeColor=#000000;exitX=0;exitY=0.75;exitDx=0;exitDy=0;" parent="1" source="HWHSqS2P6HCf4RbeMcaz-19" target="ekPZyuRq7W89Y46g-SNz-2" edge="1">
                    <mxGeometry relative="1" as="geometry">
                        <mxPoint x="55" y="140" as="sourcePoint"/>
                    </mxGeometry>
                </mxCell>
                <mxCell id="-kEWRbQdguksYZ6EH8o2-9" value="" style="shape=image;verticalLabelPosition=bottom;verticalAlign=top;imageAspect=0;aspect=fixed;image=data:image/svg+xml,PHN2ZyB4bWxucz0iaHR0cDovL3d3dy53My5vcmcvMjAwMC9zdmciIHJvbGU9ImltZyIgdmlld0JveD0iLTUuMzUgLTQuMzUgMzY3LjIwIDQ2MC4yMCI+PHN0eWxlPnN2ZyB7ZW5hYmxlLWJhY2tncm91bmQ6bmV3IDAgMCAzNTcgNDUzfTwvc3R5bGU+PHN0eWxlPi5zdDV7ZmlsbDojZmZmfTwvc3R5bGU+PGVsbGlwc2UgaWQ9Ik92YWwtOC1Db3B5LTEwIiBjeD0iMTc5LjUyNCIgY3k9IjQzOC4xMTgiIGZpbGw9IiNlNGU0ZTQiIHJ4PSI3OC4zMyIgcnk9IjkuMzYxIi8+PHBhdGggaWQ9IkNvbWJpbmVkLVNoYXBlLUNvcHktMTMiIGQ9Ik03MC4wODIgMjc0LjEyNmwtMTcuMDctMjIuNzE1IDMuNzE3LTIuNzUzTDcxLjg3IDI2OC42MmwxLjY1Mi01LjIzLTE0LjQ1NC0xOS4xMzYgMy43MTctMi43NTMgMTIuMzkgMTYuNTIgMS42NTEtNS4yMzItMTEuODM5LTE1LjU1NiAzLjcxNy0yLjc1MyA5Ljc3NCAxMi45NCA2Ljg4My0yMS44ODhTNjIuNTEgMTg2Ljg0OCA1Ny44MyAxNzcuNDg3Yy03LjcxLTE1Ljk3LTU1LjIwMy0yLjQ3OC01My45NjQgMjYuNDMgMS4yNCAyOC40OTcgNTkuMTk1IDkzLjA2IDU5LjE5NSA5My4wNmw3LjAyLTIyLjg1MXoiLz48cGF0aCBpZD0iQ29tYmluZWQtU2hhcGUtQ29weS0xNCIgZD0iTTI4Ny4wMzggMjYwLjA4NGwxNy4wNy0yMi43MTQtMy43MTYtMi43NTMtMTUuMTQzIDE5Ljk2LTEuNjUyLTUuMjMgMTQuNDU0LTE5LjEzNi0zLjcxNy0yLjc1My0xMi4zOSAxNi41Mi0xLjY1MS01LjIzMSAxMS44MzktMTUuNTU2LTMuNzE3LTIuNzU0LTkuNzc0IDEyLjk0LTYuODgzLTIxLjg4OHMyMi44NTItMzguNjgzIDI3LjUzMi00OC4wNDRjNy43MS0xNS45NjkgNTUuMjAzLTIuNDc4IDUzLjk2NCAyNi40MzFzLTU5LjE5NSA5My4wNi01OS4xOTUgOTMuMDZsLTcuMDItMjIuODUyeiIvPjxnIGlkPSJHcm91cC0xMi1Db3B5LTgiIHRyYW5zZm9ybT0idHJhbnNsYXRlKDYwIDE2NCkiPjxwYXRoIGlkPSJMaW5lLUNvcHktMTgiIGQ9Ik03Ni4yOTggMjI3LjcyNmMtMS41MTUgMC0yLjc1NCAxLjM3Ny0yLjc1NCAyLjg5MWwxLjEwMiAzMi42MjZjMCAxLjUxNCAxLjM3NiAyLjc1MyAyLjg5IDIuNzUzbDEzLjA3OS0uNDEzYzEuNTE0IDAgMi43NTMtMS4zNzYgMi43NTMtMi44OWwtMS4xMDItMzIuNjI3YzAtMS41MTQtMS4zNzYtMi43NTMtMi44OS0yLjc1M2wtMTMuMDc4LjQxM3oiLz48cGF0aCBpZD0iUmVjdGFuZ2xlLTctQ29weS0xNSIgZD0iTTU3LjU3NSAyNjcuNjQ4YzAtMi44OSAyLjM0LTUuMjMgNS4yMzItNS4yM2gyNC43NzljMi44OSAwIDUuMjMxIDIuMzQgNS4yMzEgNC40MDR2LTQuNDA1YzAgMi40NzgtMi4zNCA0LjgxOC01LjA5MyA1LjIzMWwtMTIuNjY1IDIuMDY1LTEyLjI1MiAyLjg5MWMtMi43NTQuNjg4LTUuMDk0LTEuMTAxLTUuMDk0LTMuOTkydi0uOTY0aC0uMTM4eiIvPjwvZz48ZyBpZD0iR3JvdXAtMTItQ29weS05IiB0cmFuc2Zvcm09Im1hdHJpeCgtMSAwIDAgMSAxMTUgMTY0KSI+PHBhdGggaWQ9IkxpbmUtQ29weS0xOF8xXyIgZD0iTS0xMTIuMjkzIDIyNy43MjZjLTEuNTE0IDAtMi43NTMgMS4zNzctMi43NTMgMi44OTFsMS4xMDEgMzIuNjI2YzAgMS41MTQgMS4zNzcgMi43NTMgMi44OTEgMi43NTNsMTMuMDc4LS40MTNjMS41MTUgMCAyLjc1NC0xLjM3NiAyLjc1NC0yLjg5bC0xLjEwMi0zMi42MjdjMC0xLjUxNC0xLjM3Ni0yLjc1My0yLjg5LTIuNzUzbC0xMy4wNzkuNDEzeiIvPjxwYXRoIGlkPSJSZWN0YW5nbGUtNy1Db3B5LTE1XzFfIiBkPSJNLTEzMS4xNTIgMjY3LjY0OGMwLTIuODkgMi4zNC01LjIzIDUuMjMtNS4yM2gyNC43OGMyLjg5MSAwIDUuMjMxIDIuMzQgNS4yMzEgNC40MDR2LTQuNDA1YzAgMi40NzgtMi4zNCA0LjgxOC01LjA5MyA1LjIzMWwtMTIuNjY1IDIuMDY1LTEyLjI1MiAyLjg5MWMtMi43NTMuNjg4LTUuMDk0LTEuMTAxLTUuMDk0LTMuOTkydi0uOTY0aC0uMTM3eiIvPjwvZz48cGF0aCBpZD0iUmVjdGFuZ2xlLTItQ29weS0xNiIgZD0iTTUzLjAxMiAxMzAuNDA2QzQ0Ljc1MiA2MS4wMjQgOTQuNzIzIDQuNzIgMTY0LjY1NiA0LjcyaDI3LjM5NWM2OS45MzMgMCAxMTkuOTA0IDU2LjMwNCAxMTEuNjQ0IDEyNS42ODZsLTI1Ljc0MiAyMTUuOTkzYy0zLjMwNCAyOC4yMi0yOS4wNDcgNTEuMDczLTU3LjU0MyA1MS4wNzNoLTg0LjI1Yy0yOC4zNTkgMC01NC4xMDEtMjIuODUyLTU3LjU0My01MS4wNzNMNTMuMDEyIDEzMC40MDZ6Ii8+PHBhdGggaWQ9IkxpbmUtQ29weS0zIiBmaWxsPSJub25lIiBzdHJva2U9IiM0YTRhNGEiIHN0cm9rZS1saW5lY2FwPSJzcXVhcmUiIHN0cm9rZS13aWR0aD0iMTIiIGQ9Ik0xODAuNjI1IDQ3Ljk0NlYxNC4wODEiLz48ZyBpZD0iR3JvdXAtMi1Db3B5IiB0cmFuc2Zvcm09InRyYW5zbGF0ZSgwIDIzKSI+PHJhZGlhbEdyYWRpZW50IGlkPSJTaGFwZV8xXyIgY3g9Ii03NTcuMDE2IiBjeT0iNTU3LjIzOSIgcj0iMy43MjMiIGdyYWRpZW50VHJhbnNmb3JtPSJtYXRyaXgoLTM4LjcyODcgNDUuMDk5OSAtNDUuMSAtMzguNzI4NiAtNDAwNi44NTQgNTU3OTIuOTU3KSIgZ3JhZGllbnRVbml0cz0idXNlclNwYWNlT25Vc2UiPjxzdG9wIG9mZnNldD0iMCIgc3RvcC1jb2xvcj0iIzdmN2Y3ZiIvPjxzdG9wIG9mZnNldD0iMSIvPjwvcmFkaWFsR3JhZGllbnQ+PHBhdGggaWQ9IlNoYXBlIiBmaWxsPSJ1cmwoI1NoYXBlXzFfKSIgc3Ryb2tlPSIjMDAwIiBzdHJva2Utd2lkdGg9IjIiIGQ9Ik03My4xMSA0NC43N2MtMjAuNjQ5IDAtMzcuNDQ0IDE2Ljc5NC0zNy40NDQgMzcuNDQ0djY4LjQxOGMwIDIwLjY1IDE2LjY1NyAzNS4zOCAzNy4xNyAzMi45MDFsODguNTE2LTEwLjg3NWMxMC4xODctMS4yMzkgMjYuODQ0LTEuMjM5IDM3LjE3IDBsODguNTE2IDEwLjg3NWMyMC41MTIgMi40NzggMzcuMTctMTIuMjUyIDM3LjE3LTMyLjl2LTY4LjQyYzAtMjAuNjQ5LTE2Ljc5Ni0zNy40NDQtMzcuNDQ1LTM3LjQ0NEg3My4xMXoiLz48ZWxsaXBzZSBpZD0iT3ZhbC05IiBjeD0iNjAuOTk2IiBjeT0iNzIuNDQiIGZpbGw9IiM4MGZmMDAiIHJ4PSI2LjYwOCIgcnk9IjYuNzQ1Ii8+PC9nPjxwYXRoIGlkPSJSZWN0YW5nbGUtMi1Db3B5LTE3IiBmaWxsPSIjY2YwMDE5IiBkPSJNNzAuNzcgMjkyLjcxczMyLjM1IDI1LjQ2OCA5Ni41MDIgMjEuMmM2NC4wMTMtNC40MDUgMTE5LjYyOS0zNS42NTQgMTE5LjYyOS0zNS42NTRzNy40MzMgMzMuODY1IDUuMjMgNTQuNjUyYy0yLjIwMiAyMC43ODctNS43ODEgMjQuNTA0LTUuNzgxIDI0LjUwNC01LjA5NCAxMy4yMTUtMTkuODI0IDI4LjYzNC0zMi43NjQgMzQuNDE1bC0xLjM3Ni41NTEtMTAuMDUgMjAuMjM2Yy0xLjEwMSAyLjM0LTQuMTMgMy45OTMtNi43NDUgMy41OGwtMjguMzU5LTMuNThjLTIuNjE1LS4yNzUtNS42NDQtMi40NzctNi44ODMtNC42OGwtMy4zMDQtNS45MmMtMS4yMzktMi4yMDItNC40MDUtMy45OTItNy4wMi0zLjk5MmgtMTMuNzY3Yy0yLjYxNSAwLTUuOTIgMS42NTItNy41NzEgMy43MTdsLTUuMjMyIDYuNjA4Yy0xLjY1MSAyLjA2NS00Ljk1NSAzLjk5Mi03LjU3MSA0LjQwNWwtMjMuNDAzIDMuMzA0Yy0yLjYxNS40MTMtNS41MDYtMS4yMzktNi42MDctMy41OGwtNi4wNTgtMTIuNjY0Yy0xLjEtMi4zNC0zLjk5Mi00Ljk1Ni02LjQ3LTUuNzgybC0xMi4yNTItNC40MDVjLTkuNzc0LTMuNTgtMjAuNzg3LTE0LjE4LTI0LjUwNC0yMy42NzhsLTEuMzc2LTMuNDQyYy01LjIzMS0xMy4yMTUtOC4yNi0zNS4zOC02LjYwOC00OS40MmwyLjM0LTIwLjM3NXoiLz48cGF0aCBpZD0iU1ItNzEtQ29weS0xMSIgZD0iTTIxNS4xNzggMzI2LjNsLS40MTMtMS41MTRjLS40MTMtMS41MTUtLjI3NS0yLjc1NC40MTMtMy43MTcuNjg5LS45NjQgMS42NTItMS43OSAzLjAyOS0yLjIwMy41NS0uMjc1IDEuMjM5LS40MTMgMS43OS0uNTUgMi4yMDItLjU1MSA0LjEzLS44MjYgNS43ODEtLjY4OWwuOTY0IDMuNThjLTEuNTE0LjI3NS0zLjQ0Mi42ODgtNS43ODIgMS4yMzgtLjY4OC4xMzgtMS4xMDEuNDEzLTEuMzc2LjU1MS0uMjc2LjEzOC0uMjc2LjU1LS4xMzguOTY0bC4xMzguMjc1Yy4xMzcuNDEzLjI3NS42ODguNTUuODI2cy42ODguMTM4IDEuMjQgMGwyLjIwMi0uNTVjMS45MjctLjU1MSAzLjQ0MSAwIDQuNTQzIDEuMzc2LjU1LjY4OC45NjMgMS41MTQgMS4yMzkgMi40NzhsLjI3NS44MjZjLjk2NCAzLjU4LS4xMzggNS43ODItMy40NDIgNi42MDgtMi4zNC42ODgtMy44NTQuOTYzLTQuNTQzIDEuMTAxcy0xLjc5LjEzOC0zLjAyOCAwbC0uOTY0LTMuNThhNDcuMTA5IDQ3LjEwOSAwIDAgMCA2LjE5NS0xLjM3NmMuNTUtLjEzOC44MjYtLjI3NS45NjQtLjU1LjEzNy0uMjc2LjI3NS0uNTUxLjEzNy0uODI2bC0uMTM3LS40MTNjLS4xMzgtLjQxMy0uMjc2LS41NTEtLjQxMy0uNjg5LS4yNzYtLjEzNy0uNTUxLS4xMzctMS4xMDIgMGwtMi4yMDIuNTVhNC41OTYgNC41OTYgMCAwIDEtMi4zNC4xMzljLS42ODktLjEzOC0xLjI0LS4yNzYtMS42NTItLjY4OWE0LjE4OSA0LjE4OSAwIDAgMS0xLjEwMi0xLjEwMWMtLjI3NS0uNTUtLjY4OC0xLjI0LS44MjYtMi4wNjV6bTE3LjM0NiA3LjU3MWwtNC42OC0xNy40ODMgNy44NDYtMi4wNjVjMS42NTItLjQxMyAzLjE2Ni0uNDEzIDQuMjY4LjI3NiAxLjEuNjg4IDIuMDY1IDEuOTI3IDIuNjE1IDMuOTkyLjU1IDEuOTI3LjU1IDMuNDQxLjI3NiA0LjI2N2E3Ljg5NCA3Ljg5NCAwIDAgMC0uNTUxLjk2NGMtLjEzOC4yNzUtLjQxMy40MTMtLjgyNi42ODhsNC44MTggNS43ODItNS4yMzEgMS4zNzctMy44NTUtNS41MDdoLTEuNTE0bDEuNzkgNi40Ny00Ljk1NiAxLjI0em0yLjA2NS0xMS4xNWwyLjYxNS0uNjg5Yy41NTEtLjEzNy44MjYtLjQxMy45NjQtLjY4OC4xMzgtLjI3NSAwLS44MjYtLjEzOC0xLjM3Ny0uMTM3LS42ODgtLjQxMy0xLjEtLjY4OC0xLjIzOC0uMjc1LS4yNzYtLjY4OC0uMjc2LTEuMTAxLS4xMzhsLTIuNjE2LjY4OC45NjQgMy40NDJ6bTEwLjg3NSAyLjM0bC0uOTY0LTMuNzE3IDcuNDM0LTIuMDY1Ljk2NCAzLjcxNy03LjQzNCAyLjA2NXptNi4wNTctMTAuNDYybC0xLjEwMS00LjEzIDExLjQyNi0zLjAyOSAxLjY1MiAxLjUxNC0xLjIzOSAxNy4wNy00Ljk1NiAxLjM3NyAxLjEwMS0xNC41OTItNi44ODMgMS43OXptMTkuODI0LTkuNzc0bDQuNjggMTcuNDgzLTQuNjggMS4yMzktMy40NDItMTMuMDc4LTIuNjE1IDEuMjM5LS44MjYtMi44OTEgMi4zNC0yLjc1MyA0LjU0My0xLjI0eiIgY2xhc3M9InN0NSIvPjxwYXRoIGlkPSJSZWN0YW5nbGUtNC1Db3B5LTciIGZpbGw9IiNmNWE2MjMiIGQ9Ik0xNzUuMjU2IDIwNC4zM2MxLjc5LTEuNzg5IDQuODE4LTEuNzg5IDYuNjA4IDBsMjMuMTI3IDIzLjEyOGMxLjc5IDEuNzkgMi40NzggNS4yMzEgMS4zNzcgNy41NzJsLTI0LjUwNCA1Mi40NWMtMS4xMDEgMi4zNC0yLjg5MSAyLjM0LTQuMTMgMGwtMjYuODQ0LTUyLjQ1Yy0xLjI0LTIuMzQtLjY4OC01LjY0NSAxLjEwMS03LjQzNGwyMy4yNjUtMjMuMjY1eiIvPjxwYXRoIGQ9Ik02NC44NSAxMjYuMjc2aC02LjQ3di00LjQwNWgxOC4wMzR2NC40MDVoLTYuMzMydjE4Ljg2SDY0Ljg1di0xOC44NnptMTUuMTQ0LTQuNDA2aDE0LjU5MnY0LjQwNmgtOS4zNjF2NC42OGg3Ljk4NHY0LjQwNmgtNy45ODR2NS4zNjloOS42MzZ2NC40MDVINzkuOTk0VjEyMS44N3ptMTkuNTQ4IDBoNS4yM3YxOC44Nmg5LjIyNHY0LjQwNkg5OS41NDJWMTIxLjg3em0xOC4zMDggMGgxNC41OTN2NC40MDZoLTkuMzYxdjQuNjhoNy45ODR2NC40MDZoLTcuOTg0djUuMzY5aDkuNjM2djQuNDA1aC0xNC44NjdWMTIxLjg3em0xOS41NDkgMGg4LjUzNWM1LjA5MyAwIDkuMDg2IDEuNzkgOS4wODYgNy40MzUgMCA1LjUwNi00LjEzIDcuODQ2LTkuMDg2IDcuODQ2aC0zLjMwNHY3Ljg0N2gtNS4yM3YtMjMuMTI3em04LjEyMiAxMS4xNTJjMi44OSAwIDQuMjY4LTEuMjQgNC4yNjgtMy43MTcgMC0yLjQ3OC0xLjUxNS0zLjMwNC00LjI2OC0zLjMwNGgtMi44OXY3LjAyaDIuODl6bTI2LjAxOSAxMi4xMTRsLTQuNDA2LTguMzk4aC0yLjg5djguMzk4aC01LjIzMlYxMjEuODdoOC4zOTdjNC45NTYgMCA4Ljk0OCAxLjY1MiA4Ljk0OCA3LjI5NiAwIDMuNDQyLTEuNjUxIDUuNjQ0LTQuMTMgNi43NDZsNS4yMzIgOS4zNmgtNS45MnYtLjEzN3ptLTcuMjk3LTEyLjUyN2gyLjYxNmMyLjc1MyAwIDQuMjY3LTEuMjQgNC4yNjctMy40NDIgMC0yLjM0LTEuNTE0LTMuMDI5LTQuMjY3LTMuMDI5aC0yLjYxNnY2LjQ3ek0xODAuOSAxMjEuODdoMTQuNTkzdjQuNDA2aC05LjM2MXY0LjY4aDcuOTg0djQuNDA2aC03Ljk4NHY1LjM2OWg5LjYzNnY0LjQwNWgtMTUuMDA1VjEyMS44N2guMTM3em0yMC45MjUgMTYuNzk2YzEuNjUyIDEuMzc2IDMuNzE3IDIuNDc4IDUuNjQ0IDIuNDc4IDIuMjAzIDAgMy4zMDQtLjgyNiAzLjMwNC0yLjIwMyAwLTEuNTE0LTEuMzc3LTEuOTI3LTMuMzA0LTIuNzUzbC0zLjAyOC0xLjI0Yy0yLjQ3OC0uOTYzLTQuNjgtMy4wMjgtNC42OC02LjMzMiAwLTMuODU0IDMuNDQtNi44ODMgOC4yNTktNi44ODMgMi42MTUgMCA1LjUwNiAxLjEwMiA3LjQzNCAzLjAyOWwtMi42MTYgMy4zMDRjLTEuNTE0LTEuMjQtMy4wMjktMS43OS00LjgxOC0xLjc5LTEuNzkgMC0yLjg5MS44MjYtMi44OTEgMi4wNjUgMCAxLjM3NyAxLjUxNCAxLjkyNyAzLjU4IDIuNzUzbDMuMDI4IDEuMjRjMi43NTMgMS4xIDQuNTQzIDMuMDI4IDQuNTQzIDYuMzMyIDAgMy44NTQtMy4xNjcgNy4xNTgtOC42NzMgNy4xNThhMTMuMTUzIDEzLjE1MyAwIDAgMS04LjY3My0zLjMwNGwyLjg5MS0zLjg1NHptMTguMzA5LTE2Ljc5NmgxNC41OTJ2NC40MDZoLTkuMzZ2NC42OGg3Ljk4NHY0LjQwNmgtNy45ODV2NS4zNjloOS42Mzd2NC40MDVoLTE1LjAwNVYxMjEuODdoLjEzN3ptMTkuNDExIDBoNS4zNjhsNi4wNTggMTEuNTY1IDIuMzQgNS4wOTNoLjEzOGMtLjI3Ni0yLjQ3OC0uNjg5LTUuNzgyLS42ODktOC41MzV2LTguMjZoNC45NTZ2MjMuMjY1aC01LjM2OWwtNi4wNTctMTEuNTYzLTIuMzQtNS4wOTRoLS4xMzhjLjI3NSAyLjYxNi42ODggNS42NDQuNjg4IDguMzk3djguMjZoLTUuMDkzdi0yMy4xMjdoLjEzOHptMzMuNTg5LS40MTJjMi44OTEgMCA1LjM3IDEuMzc3IDYuODgzIDMuMDI5bC0yLjg5IDMuMzAzYy0xLjI0LTEuMS0yLjM0LTEuNzktMy45OTMtMS43OS0zLjMwNCAwLTUuNzgyIDIuNzU0LTUuNzgyIDcuNDM1IDAgNC44MTggMi4yMDMgNy41NzEgNS42NDUgNy41NzEgMS45MjcgMCAzLjMwNC0uODI2IDQuNDA1LTIuMDY1bDIuODkgMy4xNjZjLTEuOTI2IDIuMjAzLTQuNTQyIDMuNDQyLTcuNDMzIDMuNDQyLTYuMDU3IDAtMTEuMDEzLTQuMTMtMTEuMDEzLTExLjk3Ny4yNzUtNy41NzEgNS4zNjktMTIuMTE0IDExLjI4OC0xMi4xMTR6bTEwLjczOC40MTJoMTQuNTkydjQuNDA2aC05LjM2djQuNjhoNy45ODR2NC40MDZoLTcuOTg1djUuMzY5aDkuNjM3djQuNDA1aC0xNS4wMDZWMTIxLjg3aC4xMzh6IiBjbGFzcz0ic3Q1Ii8+PC9zdmc+" parent="1" vertex="1">
                    <mxGeometry x="167.08" y="320" width="55.84" height="70" as="geometry"/>
                </mxCell>
                <mxCell id="ekPZyuRq7W89Y46g-SNz-6" style="edgeStyle=orthogonalEdgeStyle;rounded=0;orthogonalLoop=1;jettySize=auto;html=1;entryX=0;entryY=0.476;entryDx=0;entryDy=0;entryPerimeter=0;strokeColor=#000000;" parent="1" source="ekPZyuRq7W89Y46g-SNz-2" target="HWHSqS2P6HCf4RbeMcaz-11" edge="1">
                    <mxGeometry relative="1" as="geometry"/>
                </mxCell>
                <mxCell id="ekPZyuRq7W89Y46g-SNz-2" value="source&lt;br&gt;code" style="rounded=1;whiteSpace=wrap;html=1;strokeColor=#666666;strokeWidth=2;fontColor=#333333;fontStyle=1;fillColor=#f5f5f5;" parent="1" vertex="1">
                    <mxGeometry x="10" y="273.75" width="90" height="60.75" as="geometry"/>
                </mxCell>
                <mxCell id="ekPZyuRq7W89Y46g-SNz-4" style="edgeStyle=orthogonalEdgeStyle;rounded=0;orthogonalLoop=1;jettySize=auto;html=1;entryX=0;entryY=0.5;entryDx=0;entryDy=0;exitX=0.9;exitY=0.5;exitDx=0;exitDy=0;exitPerimeter=0;strokeColor=#000000;" parent="1" source="HWHSqS2P6HCf4RbeMcaz-8" target="ekPZyuRq7W89Y46g-SNz-2" edge="1">
                    <mxGeometry relative="1" as="geometry">
                        <mxPoint x="-60" y="304.5" as="sourcePoint"/>
                    </mxGeometry>
                </mxCell>
                <mxCell id="ekPZyuRq7W89Y46g-SNz-9" value="" style="group" parent="1" vertex="1" connectable="0">
                    <mxGeometry x="300" y="190" width="100" height="227.5" as="geometry"/>
                </mxCell>
                <mxCell id="ekPZyuRq7W89Y46g-SNz-7" value="" style="fillColor=none;strokeColor=#5A6C86;dashed=1;verticalAlign=top;fontStyle=0;fontColor=#5A6C86;" parent="ekPZyuRq7W89Y46g-SNz-9" vertex="1">
                    <mxGeometry width="100" height="227.50000000000003" as="geometry"/>
                </mxCell>
                <mxCell id="-kEWRbQdguksYZ6EH8o2-7" value="" style="shape=image;verticalLabelPosition=bottom;verticalAlign=top;imageAspect=0;image=data:image/svg+xml,PHN2ZyB4bWxucz0iaHR0cDovL3d3dy53My5vcmcvMjAwMC9zdmciIHJvbGU9ImltZyIgdmlld0JveD0iLTYuNDkgLTYuNzQgMzE2LjQ5IDM2My43NCI+PG1hc2sgaWQ9ImEiIGZpbGw9IiNmZmYiPjxwYXRoIGZpbGwtcnVsZT0iZXZlbm9kZCIgZD0iTTAgMGgzMTMuMzAzMTZ2MTU5Ljg2NDg3SDB6Ii8+PC9tYXNrPjxtYXNrIGlkPSJiIiBmaWxsPSIjZmZmIj48cGF0aCBmaWxsLXJ1bGU9ImV2ZW5vZGQiIGQ9Ik0wIDBoMzEzLjMwMzE2djE1OS44NjQ4N0gweiIvPjwvbWFzaz48ZyBmaWxsPSJub25lIiBmaWxsLXJ1bGU9ImV2ZW5vZGQiPjxwYXRoIGZpbGw9IiMwZjE2ODkiIGQ9Ik0uNjc4NTcgMTM4aDE5Ljc4NTg0djI2Ljc4OWgyMy45MDM3VjEzOGgxOS43ODU4M3Y3NS4yNUg0NC4zNjgxMXYtMjguNjk1MzNIMjAuNDY0NFYyMTMuMjVILjY3ODU3em04Ni4xNzM4NCA3NS4yNVYxMzhoNDYuODAzMDV2MTYuMzU0MzNoLTI3LjAxNzIxVjE2Ni41OTVoMjMuOTAzN3YxNi42NTUzM2gtMjMuOTAzN3YxMy44NDZoMjcuMDE3MlYyMTMuMjV6bTY4LjQ5NzE2IDBWMTM4aDE5Ljc4NTg0djU1LjM4NGgyNy4xMTc2NHYxOS44NjZ6TTIzMi44ODU5NCAxMzhsMzAuNzMzMzMgMjcuODkyNjdMMjk0LjI1MjE3IDEzOGg4LjkzODc3djc1LjI1aC0xOS44ODYyN3YtMzguNjI4MzNsLTE5LjY4NTQgMTcuOTU5NjYtMTkuNzg1ODMtMTcuODU5MzN2MzguNTI4aC0xOS44ODYyOFYxMzh6Ii8+PGcgZmlsbD0iIzBmMTY4OSIgbWFzaz0idXJsKCNhKSIgdHJhbnNmb3JtPSJtYXRyaXgoMSAwIDAgLTEgLjk1OCA0MDQpIj48cGF0aCBkPSJNMjIzLjY1MTE2IDE0My4zNzY0M2M1LjY4MTg5IDMuOTc4NSAxOC43ODIyLTQuOTI3MjggMjkuMjYwMzQtMTkuODkxNjNzMTQuMzY2MjktMzAuMzIwNTcgOC42ODQ0LTM0LjI5OTA3Yy01LjY4MTktMy45Nzg1LTE4Ljc4MjIgNC45MjcyOC0yOS4yNjAzNSAxOS44OTE2M3MtMTQuMzY2MjkgMzAuMzIwNTctOC42ODQ0IDM0LjI5OTA3eiIvPjxwYXRoIGQ9Ik04OC4yNzc0OSAxNDMuMzc2MTJjLTUuNjgxOSAzLjk3ODUtMTguNzgyMi00LjkyNzI5LTI5LjI2MDM1LTE5Ljg5MTY0cy0xNC4zNjYyOC0zMC4zMjA1Ni04LjY4NDM5LTM0LjI5OTA3IDE4Ljc4MjIgNC45MjcyOSAyOS4yNjAzNSAxOS44OTE2NCAxNC4zNjYyOCAzMC4zMjA1NiA4LjY4NDM5IDM0LjI5OTA3eiIvPjxwYXRoIGQ9Ik0xNTUuODk2MTkgMTE5Ljk0NTI3Yy02LjkzNjMyIDAtMTIuNTU5My0xNC44MDkyMi0xMi41NTkzLTMzLjA3NzMyczUuNjIyOTgtMzMuMDc3MzIgMTIuNTU5My0zMy4wNzczMmM2LjkzNjMgMCAxMi41NTkzIDE0LjgwOTIyIDEyLjU1OTMgMzMuMDc3MzJzLTUuNjIzIDMzLjA3NzMyLTEyLjU1OTMgMzMuMDc3MzJ6Ii8+PC9nPjxwYXRoIHN0cm9rZT0iIzBmMTY4OSIgc3Ryb2tlLXdpZHRoPSIyMCIgZD0iTTI1MS40NjcgMTczLjA5OTg1Yy0yMC4yMzAwNy0zMy42MDk5Ny01Ni44ODk1Ni01Ni4wNjc5LTk4Ljc1NTc3LTU2LjA2NzktNDAuNzIwOCAwLTc2LjUxNTg4IDIxLjI0NTktOTcuMDU4NyA1My4zMzQ1OG0yLjE5ODExIDEyOS4xNjk1M2MyMC44NDAzIDMwLjIzMjcgNTUuNTU1OSA1MC4wMjY2IDk0Ljg2MDU5IDUwLjAyNjYgMzkuMzc2MSAwIDc0LjE0NjQyLTE5Ljg2NTkgOTQuOTc0MDUtNTAuMTkxNSIgbWFzaz0idXJsKCNhKSIgdHJhbnNmb3JtPSJtYXRyaXgoMSAwIDAgLTEgLjk1OCA0MDQpIi8+PGc+PGcgZmlsbD0iIzBmMTY4OSIgbWFzaz0idXJsKCNiKSIgdHJhbnNmb3JtPSJ0cmFuc2xhdGUoLjk1OCAtNTEpIj48cGF0aCBkPSJNMjIzLjY1MDk3IDE0MC45MTcwNGM1LjY4MTg5IDMuOTc4NSAxOC43ODIyLTQuOTI3MjggMjkuMjYwMzQtMTkuODkxNjNzMTQuMzY2MjktMzAuMzIwNTcgOC42ODQ0LTM0LjI5OTA3Yy01LjY4MTktMy45Nzg1LTE4Ljc4MjIgNC45MjcyOC0yOS4yNjAzNSAxOS44OTE2M3MtMTQuMzY2MjkgMzAuMzIwNTctOC42ODQ0IDM0LjI5OTA3eiIvPjxwYXRoIGQ9Ik04OC4yNzc2OCAxNDAuOTE2NzNjLTUuNjgxOSAzLjk3ODUtMTguNzgyMi00LjkyNzI5LTI5LjI2MDM1LTE5Ljg5MTY0cy0xNC4zNjYyOC0zMC4zMjA1Ni04LjY4NDM5LTM0LjI5OTA3IDE4Ljc4MjIgNC45MjcyOCAyOS4yNjAzNSAxOS44OTE2MyAxNC4zNjYyOCAzMC4zMjA1NyA4LjY4NDQgMzQuMjk5MDh6Ii8+PHBhdGggZD0iTTE1NS44OTYxOSAxMTcuNDg2MjdjLTYuOTM2MzIgMC0xMi41NTkzLTE0LjgwOTIyLTEyLjU1OTMtMzMuMDc3MzJzNS42MjI5OC0zMy4wNzczMiAxMi41NTkzLTMzLjA3NzMyYzYuOTM2MyAwIDEyLjU1OTMgMTQuODA5MjIgMTIuNTU5MyAzMy4wNzczMnMtNS42MjMgMzMuMDc3MzItMTIuNTU5MyAzMy4wNzczMnoiLz48L2c+PHBhdGggc3Ryb2tlPSIjMGYxNjg5IiBzdHJva2Utd2lkdGg9IjIwIiBkPSJNMjUxLjQ2NyAxNzAuNjQwMzljLTIwLjIzMDA3LTMzLjYwOTk3LTU2Ljg4OTU2LTU2LjA2NzktOTguNzU1NzctNTYuMDY3OS00MC43MjA4IDAtNzYuNTE1ODggMjEuMjQ1OS05Ny4wNTg3IDUzLjMzNDU4bTIuMTk4MTEgMTI5LjE2OTUzYzIwLjg0MDMgMzAuMjMyNyA1NS41NTU5IDUwLjAyNjYgOTQuODYwNTkgNTAuMDI2NiAzOS4zNzYxIDAgNzQuMTQ2NDItMTkuODY1OSA5NC45NzQwNS01MC4xOTE1IiBtYXNrPSJ1cmwoI2IpIiB0cmFuc2Zvcm09InRyYW5zbGF0ZSguOTU4IC01MSkiLz48L2c+PC9nPjwvc3ZnPg==" parent="ekPZyuRq7W89Y46g-SNz-9" vertex="1">
                    <mxGeometry x="20" y="23.333333333333336" width="60" height="70" as="geometry"/>
                </mxCell>
                <mxCell id="ekPZyuRq7W89Y46g-SNz-1" value="" style="shape=image;verticalLabelPosition=bottom;verticalAlign=top;imageAspect=0;image=data:image/png,iVBORw0KGgoAAAANSUhEUgAAAJYAAACWCAIAAACzY+a1AAAKt0lEQVR42uydeXAUVRrA+5orc5J7ckIggDKB7BICCgi6KBSsJ1K7Kmw80LXUwqMs9iy3ai9rS11Lq9ZVSwrECxQMoBJBEEFlPSB3yL2JMQfJZO6Znul7axeXZSPJdOeYfs18v/8Y3stM96/7ve/dlCRJGKBlCLgFoBAAhQAoBIWAtqHkJ5UwjI5yvkDUG4gxLA+RLI5jOoq0Ww2pdpPNosdxHHWFZ93hzh6fx0+DvBFYUvRzZqTlO23qPEly2oWCIHb3BRrahsDWGBTm2EtmZ1IUgWJdOOiJtHV7QNLY9J4NdvX5UQxneF7sGQgyrACS4pRVotT+jTfxNyq+wiEv7QvEwJAcWFYYHA4jpzAUZliOBz0yCYZZUZTQUshwAoSg8mE4XhBFaNprHAkDhQAoBIWAhqCmrpHEMHyCYzMU8AcZt4/WUeT5T0gSNxl0JiOlGYWRKDfspQMhRkzKQNYbiPqDUZIcWbxlpKbMKkxNd6SQJI60Ql8g1jsYEgQRyrcRuL20PxjLy7YtmJuFrkKPP9o3GErCwlMmHC929folDCspzvj+a6p+OMOw/IA7DP7i0ns26PbRyEWkkiR5/TGeh/IzPjwvNrUPI6eQ5cQwzYIemYQiTCjCoqVQFCUOXkElxBgesYIUk0ToC1fYbkYunAHUAhSCQkBtKHW/XpSkS6wpyfEiwwlUvIuKxjiGFQx6UsMKwzTb0x8M0owoXFIKSZLQ6Qgci9MRuu9om9FA5WVZr7+6eP6crIm4VEEhw/Kt3d6BoTAEsU3t7kOf/dNVnHHH9a5rlkzXhkKG5Rva3MP+KCxN/Z/IjuFntn+J4/hViwpIAkc6nOF5sasv4PbR4O//WtWSNOyjn9v51eBwBPWI1O2ju3r94OyiDLjDf3vzlAYUgqoxOP51jzcQRVchywnQFR6nQcIJHd/40FXI8SKMJsYlEGKQLkiB+KEN4nUhMBWAQlAIgEIAFIJCABQCoBAAhaAQAIUAKARAISgEQCEACgFQCAoBzUJp9Hc7MywFMjZSFiWsumlggov5rGb9ZUXpCnbexrEYI9S1DILCUSEJfN3K4ns3lMZNKYjS2vt2+YPj3081zWF64sHlSxbkys8SY/iDxztBYRxkzgeX/sO4vyUn0/L7LSsun5khP0sgxLx2oGHv4RYoSCeHuCuMxsBhNT5+95KS2ZkKHiwMe3VffeWRVjrKgUKVsVkMT/9iVclsBe9fjOVfeaf2jfcaIZxRn1SH6cHbyxT5wzBs25663QfPQESqPilG3WMVi69dOkNRrpd21+zcVw+NCvXR68if3VSyrCxffhaGFd7/pP3tqjPQLkSgrUISy36YX3HTfELJOs0j/+h64c3TKq74AYX/vREUcdfNC+66ZYF8f+EIu7vqzMtv16j7y6GD7TvuuN61fvVc+fu9hmnunUPNb33QpP7DB/IwDLuqrOCe9aWKtp3Ye6j5zfebJnE3PFA4fq5bWvSb+5fK98dywp5DzS+8dRqR35/sBemikpxf/fxKo0HBo7znUPOLu2oQqsWT2d+a5TMfqShPMepkpqdjXOVHrc+/9jVagVjS+rtmyfSKm+dPsxllpud48d3DLTv3NyAXSyenv6x085ZNi5wZFvlZTtb07tzfMI618KBw8ilzObduvkK+v2iMP3Cs7a/bv0S0RZts/lzFGZtvLS3Mscv1x/D7jrbuqKxHt1MiqfwZDdSjdy6eN0vBEMQHn7S/Wlk/kXF/UDhpOGzGp7f+yFUs1x8viAePdzy17QvErytZ2oUUSfzpkZXy/WEYVnWiE9n6L+newvRpKY9UlJe5nDLTMyxf9Wnnky+d1MbTecn7S7WbfrL28pXlhTLTC4L43rH2bXvqNFPAXNr+JEnadGPJqitm6Ci5VcbAcGTn/oZx7EgIdeHUPKEUsW7FLEVDENlp5vKSHA1dI4wXXsT6LdfNnT09FRRqmLkz0jbdWAIKNQxB4NctLbpt3TyCwEGhhtl4g6vAaQeF2m5NPvnY1ZYUPSjUMDPyHDetmm0yUKBQq+A4du+GH6y6cgYo1DBGA7XpxhKXkvVNoHDKae3yfPhpp/z0edm2+zaUGvQUKESC/qHwK+/UPv/a1/KnUJAEXj4/Z83yIlCoPh5/9JfPfHziVI/HH31xd3WE5mRXivhDG8vmz8kEhSr7e+L5461dnnP//PBE58naXvnZbWbDrasvo0gCFKrDoCfy+F+OnGocOP8JHeO2v1un6ICdqxcXPrRxEShUgc5vfc+9+tWZzuERn/f0B3bur+cFuSfy63Xk2hUz5xVngMKE0t0XeGrbF0e/6P7+f3G8ePjzroPHO+T/NbvF8Nv7l2Wlm0FhghBF6dfPHqs5c3a0BJIk/X1X9fkKUg5F+Y6t91wBChOlUJLc3jiHJvoC0ZffrokyvPw/u6Q0d83ymXodCQqnHPzfzYE4aSQJ++z0t5+d/lb+2XwUSdyzvrS4MBUUIsQLb5xqbHPLT1+QY9u8odRmMYBCVOh3h3dVNSkqTstczo03uEAhQpys7n1dydozvY68bd28hbKnp4LCKSfK8K/sqW1REp3qdeTvHlhemGsHhQjx7I4vFW2CkJlm3qJqlw0oHElt8+D+o20Kgl4cW7Ywf8Oay0AhQlSd6KhvHVKU5adrL89Ot4BCVOjo8e2orFO0F21etu2hjWUmIwUKUeHz6t7KI62iEovXLJ6+ZvlMUIgQ2/fW9w4E5acnSXzLpvLEd9mAwlEZ8kb++OLnLCfIz5JipB6uKFe0kQYonFrqWgb3fNjMKbG4yOXcvKHUmMC5UoSM1qsWFhZMGTv21de2KItOVywqXJ3AuVLxFTpsRoMheTeJCoSYHZV1wz5afharWf/g7WVF+dNQUZhqN9kR6I9XkcY29+sHGhUdd2G3Gh64bWFixjHkFKRkQY5dR5EaFTCRoyrOEWP594619/QHFOVaUpq7buWsBFygrBLSmWkRBKm25aw4scOPJgsJw/qHQtWjT6c4D8eJMZaf+DeGaXbr00cfrVisV7Lmu7wkp/Kj1hjDq6+QwPF8p5XlhLZuj6Ige4oQRanqRGfVic5Efml3X+DhPx9GsJiRG6fgOD6rcJoz0+L2Rjz+KMMKF9YNYZp1e2meF8d+dQgch4aKagrPYTbpzLmO6bmOEZ/7gjFRFBl2rBfU44+ebiLhjkPTHgCFoBAAhQCSCnEcok2NK9TrSDPym3uAwrEw6qk0hwnupoYVEgRekGOTv2EkgGI4YzbpXbMzCQJqxEQzmQOBBU4bQeCNbUNjd9MA6CrEcTwvy6qjiL7BkD8YY1jhwhlgCG40AAovbjE73ZKZag7TbCjCXtjx3TcYMurhrD3kFZ6PbmwWw4gxa5LEFW2wnKQ+SFy1cCYuaY4Uu9UIksZmHLP6E6fQZKSKC6eBpDGwWQzT8+zoKsQw7Nori6AHYDRIkrjz5vnyz8NUR+GcotS715eCrYtSXDjtxyuLUQlnRkNHkbeunhtj+G17a+koB9q+c0ARC+Zk/eHhFXbreCYt4oqWYE0KDMt/8lXPgY/bOnt8gTCDyKy4xIPjuNmky82yXlVWsHbFrJzMca7EUEHhOQIh5lTTQE9/AIWj4VXBoKdys6wL52VnpZsnMlSnmkJg0lrhcAtAIQAKAVAICgFQCIBCYCL8KwAA///mLRRGve0AWAAAAABJRU5ErkJggg==" parent="ekPZyuRq7W89Y46g-SNz-9" vertex="1">
                    <mxGeometry x="20" y="129.5" width="60" height="70" as="geometry"/>
                </mxCell>
                <mxCell id="ekPZyuRq7W89Y46g-SNz-13" style="edgeStyle=orthogonalEdgeStyle;rounded=0;orthogonalLoop=1;jettySize=auto;html=1;entryX=0;entryY=0.5;entryDx=0;entryDy=0;strokeColor=#000000;" parent="1" source="ekPZyuRq7W89Y46g-SNz-7" target="ekPZyuRq7W89Y46g-SNz-11" edge="1">
                    <mxGeometry relative="1" as="geometry"/>
                </mxCell>
                <mxCell id="HWHSqS2P6HCf4RbeMcaz-8" value="" style="shape=actor;whiteSpace=wrap;html=1;strokeColor=#7EA6E0;strokeWidth=2;fontColor=#007FFF;" parent="1" vertex="1">
                    <mxGeometry x="-95" y="273.75" width="40" height="60" as="geometry"/>
                </mxCell>
                <mxCell id="HWHSqS2P6HCf4RbeMcaz-9" value="Developer" style="text;html=1;align=center;verticalAlign=middle;resizable=0;points=[];autosize=1;fontColor=#007FFF;" parent="1" vertex="1">
                    <mxGeometry x="-110" y="333.75" width="70" height="20" as="geometry"/>
                </mxCell>
                <mxCell id="HWHSqS2P6HCf4RbeMcaz-21" value="" style="group" parent="1" vertex="1" connectable="0">
                    <mxGeometry x="270" y="53" width="200" height="90" as="geometry"/>
                </mxCell>
                <mxCell id="HWHSqS2P6HCf4RbeMcaz-19" value="" style="fillColor=none;strokeColor=#5A6C86;dashed=1;verticalAlign=top;fontStyle=0;fontColor=#5A6C86;" parent="HWHSqS2P6HCf4RbeMcaz-21" vertex="1">
                    <mxGeometry width="200" height="90" as="geometry"/>
                </mxCell>
                <mxCell id="-kEWRbQdguksYZ6EH8o2-6" value="App Source Code" style="verticalLabelPosition=bottom;html=1;verticalAlign=top;align=center;strokeColor=none;fillColor=#00BEF2;shape=mxgraph.azure.github_code;pointerEvents=1;" parent="HWHSqS2P6HCf4RbeMcaz-21" vertex="1">
                    <mxGeometry x="30" y="10" width="50" height="50" as="geometry"/>
                </mxCell>
                <mxCell id="HWHSqS2P6HCf4RbeMcaz-18" value="App Manifest" style="verticalLabelPosition=bottom;html=1;verticalAlign=top;align=center;strokeColor=none;fillColor=#00BEF2;shape=mxgraph.azure.github_code;pointerEvents=1;" parent="HWHSqS2P6HCf4RbeMcaz-21" vertex="1">
                    <mxGeometry x="127" y="10" width="50" height="50" as="geometry"/>
                </mxCell>
                <mxCell id="ekPZyuRq7W89Y46g-SNz-11" value="" style="fillColor=#EFF0F3;dashed=0;verticalAlign=top;fontStyle=0;fontColor=#232F3D;" parent="1" vertex="1">
                    <mxGeometry x="460" y="189.25" width="150" height="229.25" as="geometry"/>
                </mxCell>
                <mxCell id="-kEWRbQdguksYZ6EH8o2-2" value="（Minikube）" style="shape=image;verticalLabelPosition=bottom;verticalAlign=top;imageAspect=0;image=data:image/svg+xml,PHN2ZyB4bWxucz0iaHR0cDovL3d3dy53My5vcmcvMjAwMC9zdmciIHJvbGU9ImltZyIgdmlld0JveD0iMC4wMyAtOC45NiAzNjIuMTggMjgyLjQzIj48ZGVmcz48c3R5bGU+LmNscy0xe2ZpbGw6I2ZmZn0uY2xzLTJ7ZmlsbDojMzI2Y2U1fTwvc3R5bGU+PC9kZWZzPjxnIGlkPSJpdHMtcHJvbm91bmNlZCI+PGcgaWQ9Imt5b29iLWN1dHRsZSI+PHBhdGggaWQ9Imtra2tra2siIGQ9Ik0xNi44NDEgMjQzLjU4NmMuOTUyLTEuMDcgMS45MDQtMi4xNDEgMi45NzQtMy4yMTJxMS40OTMtMS42NiAyLjk3NS0zLjMzYy45NTEtMS4xOTEgMS45MDMtMi4yNjIgMi43MzctMy4yMTRzMS42NjUtMS45MDMgMi4yNi0yLjYxN2gxMS41NGMtMi4yNiAyLjYxNy00LjUyMiA1LjIzNS02Ljc4MSA3LjYxNHEtMy4yMTMgMy41Ny03LjEzOCA3LjQ5NWE0OC4wNTIgNDguMDUyIDAgMCAxIDQuMDQ1IDQuMjg0YzEuNDI3IDEuNjY1IDIuNzM2IDMuMzMgNC4wNDUgNC45OTVhNTAuODA3IDUwLjgwNyAwIDAgMSAzLjU2OCA1LjIzNmMxLjA3IDEuNzg0IDIuMDI0IDMuMzMgMi43MzcgNC43NTlIMjguNjJjLS43MTUtMS4xOS0xLjU0Ny0yLjM4LTIuMzgtMy42OWE0My4zMiA0My4zMiAwIDAgMC0yLjg1Ni00LjE2MiAzNC4yMSAzNC4yMSAwIDAgMC0zLjIxMS00LjA0NSAyMC40NDIgMjAuNDQyIDAgMCAwLTMuMjEzLTMuMjEzdjE0Ljk5SDcuMjA1di00OS4xMzRsOS43NTUtMS41NDd2MjguNzkxIi8+PHBhdGggaWQ9InV1dXV1dXUiIGQ9Ik03My43MDkgMjY0LjQwNmE0Ni4yOTQgNDYuMjk0IDAgMCAxLTYuNDI0IDEuMzA5IDQ1Ljk4NiA0NS45ODYgMCAwIDEtOC4yMS41OTQgMTkuMTcgMTkuMTcgMCAwIDEtNy4zNzUtMS4xODkgMTAuOTI4IDEwLjkyOCAwIDAgMS02LjktOC4zMjggMjcuOTc3IDI3Ljk3NyAwIDAgMS0uNzE1LTYuNDI1di0xOS4xNTRoOS43NTd2MTcuOTY1YzAgMy4wOTMuMzU3IDUuMzU0IDEuMTkgNi43ODJzMi4zNzggMi4xNDEgNC42MzkgMi4xNDFhMTUuMTY5IDE1LjE2OSAwIDAgMCAyLjI2LS4xMTljLjgzMy0uMTE5IDEuNDI5LS4xMTkgMi4xNDItLjIzOHYtMjYuNTNoOS43NTVsLS4xMTkgMzMuMTkyIi8+PHBhdGggaWQ9ImJiYmJiYmIiIGQ9Ik0xMDUgMjQ4LjEwN2MwLTYuMzA1LTIuMjYyLTkuMzk4LTYuOTAyLTkuMzk4YTEyLjcwNiAxMi43MDYgMCAwIDAtMi45NzQuMzU2IDguOTkgOC45OSAwIDAgMC0yLjM3OS45NTJ2MTcuNzI3Yy40NzUuMTE5IDEuMDcuMTE5IDEuNzg0LjIzOC43MTQgMCAxLjU0Ni4xMiAyLjM4LjEyYTcuMzY2IDcuMzY2IDAgMCAwIDYuMDY4LTIuNzM4IDEyLjIgMTIuMiAwIDAgMCAyLjAyMi03LjI1N205Ljg3NC4yMzhhMjEuNTQzIDIxLjU0MyAwIDAgMS0xLjE5IDcuNDk2IDE1LjMxMyAxNS4zMTMgMCAwIDEtMy40NSA1LjcxIDE4LjI5NyAxOC4yOTcgMCAwIDEtNS41OTEgMy42ODggMjEuNzc0IDIxLjc3NCAwIDAgMS03LjYxNSAxLjE5Yy0xLjE4OSAwLTIuMzc5LS4xMi0zLjY4OC0uMjM4cy0yLjQ5Ny0uMjM4LTMuODA2LS4zNThjLTEuMTktLjExOC0yLjM4LS4zNTYtMy41Ny0uNTk1YTE1LjAzNyAxNS4wMzcgMCAwIDEtMi45NzQtLjgzMlYyMTYuMzRsOS43NTYtMS41NDZ2MTcuMTMyYTE2LjYxNyAxNi42MTcgMCAwIDEgMy40NS0xLjA3IDE5LjY5MSAxOS42OTEgMCAwIDEgMy44MDctLjM1NyAxNS4wNzQgMTUuMDc0IDAgMCAxIDYuNDI0IDEuMzA4IDEyLjg4NCAxMi44ODQgMCAwIDEgNC43NiAzLjU3IDE0LjM0OCAxNC4zNDggMCAwIDEgMi44NTUgNS43MSAzMy43ODUgMzMuNzg1IDAgMCAxIC44MzIgNy4yNTciLz48cGF0aCBpZD0iZWVlZWVlZTAiIGQ9Ik0xMjAuNzA0IDI0OC43MDJhMjAuMzAzIDIwLjMwMyAwIDAgMSAxLjQyNy03Ljk3IDE4LjIwNiAxOC4yMDYgMCAwIDEgMy42ODktNS43MTIgMTMuODY2IDEzLjg2NiAwIDAgMSA1LjIzMy0zLjQ1IDE1LjkgMTUuOSAwIDAgMSA2LjE4Ny0xLjE5IDE1LjIyNyAxNS4yMjcgMCAwIDEgMTEuNTQgNC41MjFjMi44NTUgMi45NzQgNC4yODIgNy4zNzggNC4yODIgMTMuMDg3YTEwLjg4NyAxMC44ODcgMCAwIDEtLjExOCAxLjkwNGMwIC41OTUtLjExOSAxLjE4OS0uMTE5IDEuNzg0aC0yMi4xM2E2LjUyMiA2LjUyMiAwIDAgMCAyLjg1NiA0Ljc1OSAxMS4zMiAxMS4zMiAwIDAgMCA2LjY2MiAxLjc4NCAyNS4yMTIgMjUuMjEyIDAgMCAwIDUuMjM1LS40NzUgMjEuMzQyIDIxLjM0MiAwIDAgMCA0LjI4My0xLjE5bDEuMzA4IDcuOTdjLS40NzYuMjM5LTEuMTkuNDc3LTIuMTQuODMzYTExLjk5NCAxMS45OTQgMCAwIDEtMi45NzYuNTk2IDI2Ljg1NSAyNi44NTUgMCAwIDEtMy40NS40NzVjLTEuMTkuMTItMi40OTcuMjM4LTMuNjg4LjIzOGEyMC45MiAyMC45MiAwIDAgMS04LjA5LTEuNDI3IDE3LjUxNyAxNy41MTcgMCAwIDEtNS43MS0zLjY4OCAxNy4xNzIgMTcuMTcyIDAgMCAxLTMuMzMtNS43MSAyNy45NDQgMjcuOTQ0IDAgMCAxLS45NTQtNy4xMzltMjIuOTYyLTMuODA3YTcuNjkyIDcuNjkyIDAgMCAwLS40NzYtMi4zOCA3LjIzMiA3LjIzMiAwIDAgMC0xLjA3LTIuMTQxIDUuNjg0IDUuNjg0IDAgMCAwLTQuNzYtMi4xNDIgNy4xODggNy4xODggMCAwIDAtMi44NTUuNTk1IDQuNzMyIDQuNzMyIDAgMCAwLTEuOTAzIDEuNDI4IDYuMjQgNi4yNCAwIDAgMC0xLjE5IDIuMTQyIDE3LjM5NiAxNy4zOTYgMCAwIDAtLjU5NSAyLjM4aDEyLjg1Ii8+PHBhdGggaWQ9InJycnJycnIiIGQ9Ik0xODEuMjYgMjM5Ljc4YTE3Ljg3NSAxNy44NzUgMCAwIDAtMy4wOTQtLjU5NiAxOS42ODggMTkuNjg4IDAgMCAwLTMuODA3LS4zNTcgMjAuOTc3IDIwLjk3NyAwIDAgMC0yLjI2LjIzOCAxOC42ODcgMTguNjg3IDAgMCAwLTEuOTA0LjM1N3YyNi4yOTNoLTkuNzU2di0zMi43MTdhNTAuNjA2IDUwLjYwNiAwIDAgMSA2LjE4Ni0xLjY2NiAzMy40NjggMzMuNDY4IDAgMCAxIDcuOTcxLS44MzIgMTEuNTggMTEuNTggMCAwIDEgMS45MDQuMTE4IDE2LjI1NiAxNi4yNTYgMCAwIDEgMi4yNi4yMzhjLjcxNS4xMiAxLjQyOC4yMzggMi4yNjEuMzU3LjcxMy4xMiAxLjQyOC4zNTggMS45MDMuNDc2bC0xLjY2NSA4LjA5Ii8+PHBhdGggaWQ9Im5ubm5ubm4iIGQ9Ik0xODguMTYgMjMyLjQwM2E1Ny41MjQgNTcuNTI0IDAgMCAxIDE0LjYzMy0xLjkwMyAxOC4xNDcgMTguMTQ3IDAgMCAxIDcuMjU3IDEuMTg5IDEwLjE5MSAxMC4xOTEgMCAwIDEgNC42NCAzLjIxMiAxMy44OTcgMTMuODk3IDAgMCAxIDIuMzggNC45OTcgMjYuNTQgMjYuNTQgMCAwIDEgLjcxMyA2LjQyNHYxOS4zOTNoLTkuNzU2di0xOC4yMDFjMC0zLjA5NC0uMzU2LTUuMzU0LTEuMTktNi42NjNzLTIuMzc5LTEuOTA0LTQuNjQtMS45MDRhMTUuMTcgMTUuMTcgMCAwIDAtMi4yNi4xMiAxMS43ODcgMTEuNzg3IDAgMCAwLTIuMTQuMjM3djI2LjUzMWgtOS42Mzh2LTMzLjQzIi8+PHBhdGggaWQ9ImVlZWVlZWUxIiBkPSJNMjI1LjA0IDI0OC43MDJhMjAuMzAxIDIwLjMwMSAwIDAgMSAxLjQyNy03Ljk3IDE4LjIwNiAxOC4yMDYgMCAwIDEgMy42OS01LjcxMiAxMy44NjYgMTMuODY2IDAgMCAxIDUuMjM0LTMuNDUgMTUuOSAxNS45IDAgMCAxIDYuMTg3LTEuMTkgMTUuMjI3IDE1LjIyNyAwIDAgMSAxMS41NCA0LjUyMWMyLjg1NCAyLjk3NCA0LjI4MiA3LjM3OCA0LjI4MiAxMy4wODdhMTAuODg0IDEwLjg4NCAwIDAgMS0uMTE5IDEuOTA0YzAgLjU5NS0uMTIgMS4xODktLjEyIDEuNzg0aC0yMi4xMjdhNi41MjIgNi41MjIgMCAwIDAgMi44NTYgNC43NTkgMTEuMzIgMTEuMzIgMCAwIDAgNi42NiAxLjc4NCAyNS4yMTMgMjUuMjEzIDAgMCAwIDUuMjM3LS40NzUgMjEuMzQgMjEuMzQgMCAwIDAgNC4yODItMS4xOWwxLjMwOSA3Ljk3Yy0uNDc2LjIzOS0xLjE5LjQ3Ny0yLjE0Mi44MzNhMTEuOTkyIDExLjk5MiAwIDAgMS0yLjk3NC41OTYgMjYuODYgMjYuODYgMCAwIDEtMy40NS40NzVjLTEuMTkuMTItMi40OTkuMjM4LTMuNjg4LjIzOGEyMC45MiAyMC45MiAwIDAgMS04LjA5LTEuNDI3IDE3LjUxNiAxNy41MTYgMCAwIDEtNS43MS0zLjY4OCAxNy4xNzIgMTcuMTcyIDAgMCAxLTMuMzMyLTUuNzEgMjcuOTM4IDI3LjkzOCAwIDAgMS0uOTUyLTcuMTM5bTIyLjk2MS0zLjgwN2E3LjY5MyA3LjY5MyAwIDAgMC0uNDc1LTIuMzggNy4yMzMgNy4yMzMgMCAwIDAtMS4wNzEtMi4xNDEgNS42ODQgNS42ODQgMCAwIDAtNC43Ni0yLjE0MiA3LjE4OCA3LjE4OCAwIDAgMC0yLjg1NS41OTUgNC43MzIgNC43MzIgMCAwIDAtMS45MDMgMS40MjggNi4yNCA2LjI0IDAgMCAwLTEuMTkgMi4xNDIgMTcuMzg4IDE3LjM4OCAwIDAgMC0uNTk0IDIuMzhoMTIuODQ4Ii8+PHBhdGggaWQ9InR0dHR0dHQiIGQ9Ik0yNjQuNjU3IDIyMi42NDdsOS43NTYtMS41NDZ2MTAuMTEyaDExLjY2djguMDloLTExLjY2djEyLjEzNWE5LjU2NiA5LjU2NiAwIDAgMCAxLjA3IDQuODc4Yy43MTUgMS4xOSAyLjI2MSAxLjc4NSA0LjQwMyAxLjc4NWEyOS4xNjcgMjkuMTY3IDAgMCAwIDMuMjEyLS4yMzggMTkuMzQ0IDE5LjM0NCAwIDAgMCAzLjA5My0uODMzbDEuNDI3IDcuNjE0YTE4Ljk0OCAxOC45NDggMCAwIDEtMy45MjYgMS4xOSAyMi44NzIgMjIuODcyIDAgMCAxLTUuMzU0LjQ3NSAxOC4xOCAxOC4xOCAwIDAgMS02LjY2LTEuMDcgMTEuMDEgMTEuMDEgMCAwIDEtNC4xNjUtMi45NzUgMTEuODA0IDExLjgwNCAwIDAgMS0yLjI2MS00Ljc1OCAzMC44MzQgMzAuODM0IDAgMCAxLS41OTQtNi4wNjh2LTI4Ljc5MSIvPjxwYXRoIGlkPSJlZWVlZWVlMiIgZD0iTTI5MS4wNjkgMjQ4LjcwMmEyMC4zIDIwLjMgMCAwIDEgMS40MjgtNy45NyAxOC4yMDYgMTguMjA2IDAgMCAxIDMuNjg4LTUuNzEyIDEzLjg2NiAxMy44NjYgMCAwIDEgNS4yMzQtMy40NSAxNS45IDE1LjkgMCAwIDEgNi4xODctMS4xOSAxNS4yMjcgMTUuMjI3IDAgMCAxIDExLjU0IDQuNTIxYzIuODU2IDIuOTc0IDQuMjgzIDcuMzc4IDQuMjgzIDEzLjA4N2ExMC44ODUgMTAuODg1IDAgMCAxLS4xMiAxLjkwNGMwIC41OTUtLjExOSAxLjE4OS0uMTE5IDEuNzg0aC0yMi4xMjhhNi41MjIgNi41MjIgMCAwIDAgMi44NTYgNC43NTkgMTEuMzIgMTEuMzIgMCAwIDAgNi42NjEgMS43ODQgMjUuMjEzIDI1LjIxMyAwIDAgMCA1LjIzNi0uNDc1IDIxLjM0IDIxLjM0IDAgMCAwIDQuMjgyLTEuMTlsMS4zMSA3Ljk3Yy0uNDc2LjIzOS0xLjE5LjQ3Ny0yLjE0My44MzNhMTEuOTkyIDExLjk5MiAwIDAgMS0yLjk3NC41OTYgMjYuODU2IDI2Ljg1NiAwIDAgMS0zLjQ1LjQ3NWMtMS4xOS4xMi0yLjQ5Ny4yMzgtMy42ODguMjM4YTIwLjkyIDIwLjkyIDAgMCAxLTguMDktMS40MjcgMTcuNTE2IDE3LjUxNiAwIDAgMS01LjcxLTMuNjg4IDE3LjE3MiAxNy4xNzIgMCAwIDEtMy4zMy01LjcxIDIzLjUyNSAyMy41MjUgMCAwIDEtLjk1My03LjEzOW0yMi44NDMtMy44MDdhNy42OTIgNy42OTIgMCAwIDAtLjQ3Ny0yLjM4IDcuMjMyIDcuMjMyIDAgMCAwLTEuMDctMi4xNDEgNS42ODQgNS42ODQgMCAwIDAtNC43NTktMi4xNDIgNy4xODggNy4xODggMCAwIDAtMi44NTYuNTk1IDQuNzMyIDQuNzMyIDAgMCAwLTEuOTA0IDEuNDI4IDYuMjQgNi4yNCAwIDAgMC0xLjE4OCAyLjE0MiAxNy4zOTEgMTcuMzkxIDAgMCAwLS41OTYgMi4zOGgxMi44NSIvPjxwYXRoIGlkPSJzc3Nzc3NzIiBkPSJNMzQwLjY4IDI1OC41NzZhOS43NzYgOS43NzYgMCAwIDAgMy44MDctLjQ3NSAyLjA4NCAyLjA4NCAwIDAgMCAxLjA3LTIuMDIzYzAtLjgzMy0uNDc1LTEuNDI3LTEuNDI3LTIuMDIyYTIyLjU2NyAyMi41NjcgMCAwIDAtNC40MDMtMi4wMjNjLTEuNTQ2LS41OTUtMi45NzQtMS4xOS00LjE2Mi0xLjc4NWExMS44OTQgMTEuODk0IDAgMCAxLTMuMDk1LTIuMTQxIDkuMzA0IDkuMzA0IDAgMCAxLTIuMDIyLTMuMDk0IDExLjUyNiAxMS41MjYgMCAwIDEtLjcxNC00LjI4MiA5LjA1MiA5LjA1MiAwIDAgMSAzLjU2OS03LjYxNGMyLjM4LTEuOTA0IDUuNzExLTIuODU2IDkuODc1LTIuODU2YTMzLjg0MiAzMy44NDIgMCAwIDEgNi4wNjguNTk1IDIxLjk5NyAyMS45OTcgMCAwIDEgNC41MiAxLjE5MWwtMS42NjUgNy42MTRjLTEuMTktLjM1OC0yLjM4LS43MTUtMy42OS0xLjA3MWExNi42NDUgMTYuNjQ1IDAgMCAwLTQuNC0uNDc3Yy0zLjA5NCAwLTQuNTIyLjgzMy00LjUyMiAyLjQ5OGEzLjQ3NCAzLjQ3NCAwIDAgMCAuMjM4IDEuMDcyIDEuOTk4IDEuOTk4IDAgMCAwIC44MzMuOTUyYy4zNTcuMjM4Ljk1Mi41OTQgMS41NDcuOTUxLjcxNC4zNTcgMS41NDYuNTk1IDIuNjE3IDEuMDcxYTM5LjI0MyAzOS4yNDMgMCAwIDEgNS4zNTQgMi4zNzkgOC44ODIgOC44ODIgMCAwIDEgMy4yMTMgMi40OTkgNi4yMTQgNi4yMTQgMCAwIDEgMS42NjUgMi45NzQgMTIuMzQ2IDEyLjM0NiAwIDAgMSAuNDc2IDMuODA3IDguODY4IDguODY4IDAgMCAxLTMuODA4IDcuNzM0Yy0yLjQ5OCAxLjc4NC02LjA2NyAyLjYxNi0xMC44MjYgMi42MTZhMjcuNTAyIDI3LjUwMiAwIDAgMS03LjYxMy0uODMyIDIxLjcxNyAyMS43MTcgMCAwIDEtNC4xNjQtMS4zMWwxLjY2NS03Ljk3YTM2LjM2IDM2LjM2IDAgMCAwIDUuMTE2IDEuNTQ2IDIxLjg5NCAyMS44OTQgMCAwIDAgNC44NzcuNDc2Ii8+PC9nPjwvZz48cGF0aCBkPSJNNzYuNTIzIDEyNi45OTJoMTAuNjE5djguNDMyaC0xMC42MnoiIGNsYXNzPSJjbHMtMSIvPjxwYXRoIGQ9Ik0yMDAuNjg4IDEyMC4wNDdhMy41OSAzLjU5IDAgMCAwLS44NTUtLjA2NSAzLjY4NSAzLjY4NSAwIDAgMC0xLjQyNS4zNyAzLjcyNSAzLjcyNSAwIDAgMC0xLjgwMyA0LjgyNWwtLjAyNi4wMzcgOC41MjggMjAuNjAzYTQzLjUzIDQzLjUzIDAgMCAwIDE3LjU5NS0yMi4xMDJsLTIxLjk3Ni0zLjcxNHptLTM0LjE5NCAyLjkyYTMuNzIgMy43MiAwIDAgMC0zLjU2OC0yLjg5NCAzLjY1NiAzLjY1NiAwIDAgMC0uNzMzLjA2NWwtLjAzNy0uMDQ1LTIxLjc4NSAzLjY5OGE0My42OTUgNDMuNjk1IDAgMCAwIDE3LjU0IDIxLjk0Nmw4LjQ0Mi0yMC4zOTktLjA2Ni0uMDhhMy42ODMgMy42ODMgMCAwIDAgLjIwNy0yLjI5MXptMTguMjQ1IDhhMy43MTggMy43MTggMCAwIDAtNi41NTcuMDA4aC0uMDE4bC0xMC43MTMgMTkuMzcyYTQzLjYzNyA0My42MzcgMCAwIDAgMjMuODE1IDEuMjI1cTIuMTk3LS41IDQuMjkyLTEuMTk5bC0xMC43MzgtMTkuNDA3em0zMy45MTQtNDVMMjAyLjE3IDEwMC43MmwuMDA5LjA0N2EzLjcyNSAzLjcyNSAwIDAgMCAxLjQ2IDYuMzk1bC4wMi4wODkgMjEuMzUgNi4xNWE0NC4yNzggNDQuMjc4IDAgMCAwLTYuMzU2LTI3LjQzMnpNMTg4LjAzIDg3LjYyYTMuNzI1IDMuNzI1IDAgMCAwIDUuOTEzIDIuODRsLjA2NS4wMjggMTguMDM2LTEyLjc4OWE0My44NSA0My44NSAwIDAgMC0yNS4yODctMTIuMTlsMS4yNTMgMjIuMTA1em0tMTkuMSAyLjkyMmEzLjcyIDMuNzIgMCAwIDAgNS45MDQtMi44NWwuMDkyLS4wNDQgMS4yNTMtMjIuMTM5YTQ0LjY4IDQ0LjY4IDAgMCAwLTQuNTAxLjc3NSA0My40NjcgNDMuNDY3IDAgMCAwLTIwLjkzNyAxMS40MDlsMTguMTU0IDEyLjg2OXptLTkuNjc4IDE2LjcyOGEzLjcyIDMuNzIgMCAwIDAgMS40NjItNi4zOTZsLjAxOC0uMDg3LTE2LjU3NC0xNC44MjVhNDMuNDU0IDQzLjQ1NCAwIDAgMC02LjE2OCAyNy41MTFsMjEuMjQ1LTYuMTN6bTE2LjA5OCA2LjUxMmw2LjExNCAyLjk0IDYuMDk2LTIuOTMzIDEuNTE0LTYuNTgyLTQuMjE5LTUuMjc2aC02Ljc5bC00LjIzMSA1LjI2OHoiIGNsYXNzPSJjbHMtMiIvPjxwYXRoIGQ9Ik0yODIuNTM4IDEyNi43NDhsLTE3LjQyMi03NS42NzVBMTMuNjAyIDEzLjYwMiAwIDAgMCAyNTcuODIzIDQyTDE4Ny4zMDIgOC4zM2ExMy41ODkgMTMuNTg5IDAgMCAwLTExLjcwNSAwTDEwNS4wOSA0Mi4wMThhMTMuNTk4IDEzLjU5OCAwIDAgMC03LjI5NSA5LjA3MmwtMTcuMzk0IDc1LjY3M2ExMy4zMTUgMTMuMzE1IDAgMCAwLS4wMDQgNS44MSAxMy41MDUgMTMuNTA1IDAgMCAwIC40OTEgMS43MTggMTMuMTAxIDEzLjEwMSAwIDAgMCAxLjM0MyAyLjcyNmMuMjM5LjM2NS40OTEuNzIuNzY1IDEuMDY0bDQ4LjgwNCA2MC42NzhjLjIxMy4yNjQuNDQ4LjUwNS42ODEuNzVhMTMuNDIzIDEzLjQyMyAwIDAgMCAyLjU3NCAyLjEzMyAxMy45MjQgMTMuOTI0IDAgMCAwIDMuODU3IDEuNjc3IDEzLjI5OCAxMy4yOTggMCAwIDAgMy40My40NzNoLjc1OWw3Ny41MDQtLjAxOGExMi45OTYgMTIuOTk2IDAgMCAwIDEuNDEtLjA4MyAxMy40NyAxMy40NyAwIDAgMCAxLjk4OS0uMzc4IDEzLjg3IDEzLjg3IDAgMCAwIDEuMzgxLS40NDJjLjM1My0uMTM1LjcwNS0uMjcgMS4wNDUtLjQzM2ExMy45NDEgMTMuOTQxIDAgMCAwIDEuNDc5LS44MjIgMTMuMzA0IDEzLjMwNCAwIDAgMCAzLjIzNy0yLjg2NWwxLjQ4OC0xLjg1IDQ3LjI5OS01OC44NGExMy4xODUgMTMuMTg1IDAgMCAwIDIuMTA4LTMuNzg1IDEzLjY3IDEzLjY3IDAgMCAwIC41LTEuNzI0IDEzLjI4MiAxMy4yODIgMCAwIDAtLjAwNC01LjgwOXptLTczLjE0NyAyOS40MzJhMTQuNTE1IDE0LjUxNSAwIDAgMCAuNzAzIDEuNzAzIDMuMzE0IDMuMzE0IDAgMCAwLS4zMjcgMi40OSAzOS4zNzMgMzkuMzczIDAgMCAwIDMuNzQyIDYuNyAzNS4wNjUgMzUuMDY1IDAgMCAxIDIuMjYzIDMuMzY0Yy4xNy4zMTUuMzkyLjgwMy41NTMgMS4xMzZhNC4yNCA0LjI0IDAgMSAxLTcuNjMgMy42MDdjLS4xNjEtLjMzLS4zODUtLjc3LS41MjItMS4wODJhMzUuMjc1IDM1LjI3NSAwIDAgMS0xLjIyNS0zLjg2OCAzOS4zMDUgMzkuMzA1IDAgMCAwLTIuODk2LTcuMDk3IDMuMzM1IDMuMzM1IDAgMCAwLTIuMTU0LTEuMzA3Yy0uMTM1LS4yMzMtLjYzNS0xLjE0OS0uOTAzLTEuNjIzYTU0LjYxNyA1NC42MTcgMCAwIDEtMzguOTQ4LS4xbC0uOTU1IDEuNzMxYTMuNDI5IDMuNDI5IDAgMCAwLTEuODE5Ljg4NiAyOS41MTggMjkuNTE4IDAgMCAwLTMuMjY4IDcuNTgyIDM0Ljg5OCAzNC44OTggMCAwIDEtMS4yMTggMy44NjhjLS4xMzUuMzEtLjM2MS43NDQtLjUyMiAxLjA3M3YuMDA5bC0uMDA3LjAwOGE0LjIzOCA0LjIzOCAwIDEgMS03LjYxOS0zLjYxNmMuMTU5LS4zMzUuMzcyLS44Mi41NC0xLjEzNWEzNS4xNzggMzUuMTc4IDAgMCAxIDIuMjYyLTMuMzczIDQxLjIyNyA0MS4yMjcgMCAwIDAgMy44Mi02Ljg2NiA0LjE4OCA0LjE4OCAwIDAgMC0uMzc2LTIuMzg3bC43NjgtMS44NGE1NC45MjIgNTQuOTIyIDAgMCAxLTI0LjMzOC0zMC4zODdsLTEuODM5LjMxM2E0LjY4IDQuNjggMCAwIDAtMi40MjgtLjg1NSAzOS41MjUgMzkuNTI1IDAgMCAwLTcuMzU2IDIuMTY1IDM1LjU4NSAzNS41ODUgMCAwIDEtMy43ODcgMS40NWMtLjMwNS4wODQtLjc0NS4xNjgtMS4wOTMuMjQ0LS4wMjguMDEtLjA1Mi4wMjItLjA4LjAyOWEuNjAzLjYwMyAwIDAgMS0uMDY1LjAwNiA0LjIzNiA0LjIzNiAwIDEgMS0xLjg3NC04LjIyNGwuMDYxLS4wMTUuMDM3LS4wMWMuMzUzLS4wODMuODA1LS4yIDEuMTI3LS4yNjJhMzUuMjY4IDM1LjI2OCAwIDAgMSA0LjA1LS4zMjYgMzkuMzkgMzkuMzkgMCAwIDAgNy41NjQtMS4yNDIgNS44MzUgNS44MzUgMCAwIDAgMS44MTQtMS44M2wxLjc2Ny0uNTE2YTU0LjYxMyA1NC42MTMgMCAwIDEgOC42MTMtMzguMDczbC0xLjM1My0xLjIwNmE0LjY4OCA0LjY4OCAwIDAgMC0uODQ4LTIuNDM2IDM5LjM2NiAzOS4zNjYgMCAwIDAtNi4yNzctNC40MSAzNS4yNTEgMzUuMjUxIDAgMCAxLTMuNDk5LTIuMDQ2Yy0uMjU2LS4xOTEtLjU5Ni0uNDc4LS44NzQtLjcwNGwtLjA2My0uMDQ0YTQuNDczIDQuNDczIDAgMCAxLTEuMDM4LTYuMjIyIDQuMDY2IDQuMDY2IDAgMCAxIDMuMzYzLTEuNDg4IDUuMDMgNS4wMyAwIDAgMSAyLjk0MiAxLjExYy4yODcuMjI1LjY4LjUyNi45MzUuNzQ1YTM1LjI1MyAzNS4yNTMgMCAwIDEgMi43OCAyLjk1IDM5LjM4NCAzOS4zODQgMCAwIDAgNS42OSA1LjE0MiAzLjMzMyAzLjMzMyAwIDAgMCAyLjUwNy4yNDNxLjc1NC41NSAxLjUyMiAxLjA4MmE1NC4yODkgNTQuMjg5IDAgMCAxIDI3LjU3Ny0xNS43NTQgNTUuMDUyIDU1LjA1MiAwIDAgMSA3LjYzLTEuMTczbC4xLTEuNzg0YTQuNjAxIDQuNjAxIDAgMCAwIDEuMzctMi4xODQgMzkuNDc2IDM5LjQ3NiAwIDAgMC0uNDctNy42NTQgMzUuNDY4IDM1LjQ2OCAwIDAgMS0uNTc2LTQuMDE0Yy0uMDExLS4zMDcuMDA2LS43MzEuMDEtMS4wODEgMC0uMDQtLjAxLS4wNzktLjAxLS4xMThhNC4yNDIgNC4yNDIgMCAxIDEgOC40NDEtLjAwNGMwIC4zNy4wMjIuODYxLjAwOSAxLjJhMzUuMTExIDM1LjExMSAwIDAgMS0uNTc5IDQuMDEzIDM5LjUzMyAzOS41MzMgMCAwIDAtLjQ3OCA3LjY1NiAzLjM0NCAzLjM0NCAwIDAgMCAxLjM3OSAyLjExYy4wMTUuMzA1LjA2NSAxLjMyMy4xMDIgMS44ODRBNTUuMzA5IDU1LjMwOSAwIDAgMSAyMjEuMTUgNzEuMjVsMS42MDYtMS4xNDdhNC42OSA0LjY5IDAgMCAwIDIuNTYtLjI3OCAzOS41MyAzOS41MyAwIDAgMCA1LjY5LTUuMTQ4IDM1LjAwNCAzNS4wMDQgMCAwIDEgMi43ODctMi45NWMuMjU5LS4yMjIuNjUtLjUyLjkzNi0uNzQ2YTQuMjQyIDQuMjQyIDAgMSAxIDUuMjU4IDYuNTk4Yy0uMjgzLjIyOS0uNjU3LjU0OC0uOTI5Ljc1YTM1LjA5NiAzNS4wOTYgMCAwIDEtMy41MDcgMi4wNDYgMzkuNDk1IDM5LjQ5NSAwIDAgMC02LjI3NyA0LjQxIDMuMzM3IDMuMzM3IDAgMCAwLS43OTIgMi4zOWMtLjIzNS4yMTYtMS4wNi45NDctMS40OTcgMS4zNDNhNTQuODM3IDU0LjgzNyAwIDAgMSA4Ljc5MiAzNy45ODNsMS43MDQuNDk2YTQuNzQ1IDQuNzQ1IDAgMCAwIDEuODIgMS44MzEgMzkuNDY0IDM5LjQ2NCAwIDAgMCA3LjU2OCAxLjI0NSAzNS42NCAzNS42NCAwIDAgMSA0LjA0Ni4zMjRjLjM1NS4wNjUuODY4LjIwNyAxLjIzLjI5YTQuMjM2IDQuMjM2IDAgMSAxLTEuODc4IDguMjIzbC0uMDYxLS4wMDhjLS4wMjgtLjAwNy0uMDU0LS4wMjItLjA4My0uMDI5LS4zNDgtLjA3Ni0uNzg1LS4xNTItMS4wOS0uMjMyYTM1LjE0IDM1LjE0IDAgMCAxLTMuNzg1LTEuNDYyIDM5LjQ3NyAzOS40NzcgMCAwIDAtNy4zNjMtMi4xNjUgMy4zMzcgMy4zMzcgMCAwIDAtMi4zNjIuODc3cS0uOS0uMTcxLTEuODA0LS4zMTZhNTQuOTIgNTQuOTIgMCAwIDEtMjQuMzI4IDMwLjYwNXoiIGNsYXNzPSJjbHMtMiIvPjxwYXRoIGQ9Ik0yOTEuNzM3IDEyOC42ODlMMjcyLjczIDQ2LjEyOGExNC44MzggMTQuODM4IDAgMCAwLTcuOTU4LTkuOUwxODcuODM3LS41MDJhMTQuODI1IDE0LjgyNSAwIDAgMC0xMi43NzEgMEw5OC4xMzggMzYuMjVhMTQuODM4IDE0LjgzOCAwIDAgMC03Ljk2MSA5Ljg5NUw3MS4yMDMgMTI4LjcxYTE0LjY2OCAxNC42NjggMCAwIDAgMS45OTUgMTEuMTg1Yy4yNjEuNC41MzguNzg4LjgzOCAxLjE2Mmw1My4yNDYgNjYuMjA1YTE0Ljk4IDE0Ljk4IDAgMCAwIDExLjQ5OSA1LjQ4N2w4NS4zODctLjAyYTE0Ljk4NiAxNC45ODYgMCAwIDAgMTEuNS01LjQ4bDUzLjIyNy02Ni4yMTFhMTQuNzIgMTQuNzIgMCAwIDAgMi44NDItMTIuMzQ3em0tOS4xOTcgMy44NjZhMTMuNjc3IDEzLjY3NyAwIDAgMS0uNDk4IDEuNzIzIDEzLjE4NCAxMy4xODQgMCAwIDEtMi4xMSAzLjc4NWwtNDcuMjk5IDU4LjgzOC0xLjQ4NiAxLjg1MmExMy4zMDUgMTMuMzA1IDAgMCAxLTMuMjQgMi44NjUgMTMuOTQzIDEzLjk0MyAwIDAgMS0xLjQ3NC44MjJxLS41MTMuMjM3LTEuMDQ1LjQzMWExMy44NjUgMTMuODY1IDAgMCAxLTEuMzgzLjQ0NCAxMy40NzIgMTMuNDcyIDAgMCAxLTEuOTg5LjM3OSAxMi45ODggMTIuOTg4IDAgMCAxLTEuNDEuMDgybC03Ny41MDQuMDE4aC0uNzZhMTMuMjk4IDEzLjI5OCAwIDAgMS0zLjQyOS0uNDcyIDEzLjkyNCAxMy45MjQgMCAwIDEtMy44NTUtMS42NzggMTMuNDIzIDEzLjQyMyAwIDAgMS0yLjU3Ni0yLjEzMmMtLjIzMy0uMjQ2LS40NjgtLjQ4Ny0uNjgtLjc1bC00OC44MDUtNjAuNjc5cS0uNDA4LS41MTQtLjc2NS0xLjA2NmExMy4xMDIgMTMuMTAyIDAgMCAxLTEuMzQzLTIuNzI2IDEzLjUwNiAxMy41MDYgMCAwIDEtLjQ5MS0xLjcxOSAxMy4zMTUgMTMuMzE1IDAgMCAxIC4wMDQtNS44MDlsMTcuMzk0LTc1LjY3NWExMy41OTggMTMuNTk4IDAgMCAxIDcuMjk1LTkuMDdsNzAuNTA4LTMzLjY4NmExMy41OSAxMy41OSAwIDAgMSAxMS43MDUgMGw3MC41MTkgMzMuNjdhMTMuNjAyIDEzLjYwMiAwIDAgMSA3LjI5MyA5LjA3M2wxNy40MjIgNzUuNjc1YTEzLjI4MiAxMy4yODIgMCAwIDEgLjAwMiA1LjgwN3oiIGNsYXNzPSJjbHMtMSIvPjxwYXRoIGQ9Ik0yNTIuMTQ0IDEyMC42ODdjLS4zNi0uMDgzLS44NzQtLjIyNS0xLjIyNy0uMjlhMzUuNjM1IDM1LjYzNSAwIDAgMC00LjA0Ni0uMzI2IDM5LjQ2NCAzOS40NjQgMCAwIDEtNy41Ny0xLjI0MiA0Ljc0NSA0Ljc0NSAwIDAgMS0xLjgyLTEuODMybC0xLjcwNC0uNDk2YTU0LjgzNyA1NC44MzcgMCAwIDAtOC43OS0zNy45ODNjLjQzNi0uMzk2IDEuMjYyLTEuMTI3IDEuNDk1LTEuMzQyYTMuMzM4IDMuMzM4IDAgMCAxIC43OTItMi4zOSAzOS40OTUgMzkuNDk1IDAgMCAxIDYuMjc3LTQuNDEgMzUuMDk3IDM1LjA5NyAwIDAgMCAzLjUwNy0yLjA0NmMuMjcyLS4yMDIuNjQ0LS41MjIuOTI5LS43NWE0LjI0MiA0LjI0MiAwIDEgMC01LjI1Ni02LjZjLS4yODguMjI3LS42OC41MjUtLjkzNi43NDdhMzUuMDA3IDM1LjAwNyAwIDAgMC0yLjc4OSAyLjk1IDM5LjUzMiAzOS41MzIgMCAwIDEtNS42OSA1LjE0OCA0LjY5IDQuNjkgMCAwIDEtMi41Ni4yNzhsLTEuNjA2IDEuMTQ3YTU1LjMwOSA1NS4zMDkgMCAwIDAtMzUuMDMyLTE2LjkyN2MtLjAzOS0uNTYxLS4wODctMS41NzctLjEwMi0xLjg4NGEzLjM0NCAzLjM0NCAwIDAgMS0xLjM3Ny0yLjExIDM5LjUzNCAzOS41MzQgMCAwIDEgLjQ3OC03LjY1NiAzNS4xMTEgMzUuMTExIDAgMCAwIC41NzUtNC4wMTJjLjAxMy0uMzQtLjAwNy0uODM0LS4wMDctMS4yMDFhNC4yNDIgNC4yNDIgMCAxIDAtOC40NDEuMDA0YzAgLjA0LjAwOS4wNzguMDEuMTE4LS4wMDQuMzUtLjAyMS43NzQtLjAxIDEuMDhhMzUuNDc1IDM1LjQ3NSAwIDAgMCAuNTc2IDQuMDE1IDM5LjQ3NSAzOS40NzUgMCAwIDEgLjQ3IDcuNjU0IDQuNjAxIDQuNjAxIDAgMCAxLTEuMzcgMi4xODJsLS4xIDEuNzg2YTU1LjA1NSA1NS4wNTUgMCAwIDAtNy42MyAxLjE3MyA1NC4yODkgNTQuMjg5IDAgMCAwLTI3LjU3NCAxNS43NTRxLS43Ny0uNTMxLTEuNTI2LTEuMDgyYTMuMzMzIDMuMzMzIDAgMCAxLTIuNTA2LS4yNDMgMzkuMzgzIDM5LjM4MyAwIDAgMS01LjY5LTUuMTQxIDM1LjI1NSAzNS4yNTUgMCAwIDAtMi43NzctMi45NWMtLjI1Ny0uMjItLjY1LS41Mi0uOTM4LS43NDlhNS4wMyA1LjAzIDAgMCAwLTIuOTQyLTEuMTEgNC4wNjYgNC4wNjYgMCAwIDAtMy4zNjMgMS40ODkgNC40NzMgNC40NzMgMCAwIDAgMS4wMzggNi4yMjJsLjA2NS4wNDZjLjI3Ni4yMjYuNjE2LjUxNS44NzIuNzAyYTM1LjI1NyAzNS4yNTcgMCAwIDAgMy40OTkgMi4wNDggMzkuMzY3IDM5LjM2NyAwIDAgMSA2LjI3NiA0LjQxMiA0LjY5IDQuNjkgMCAwIDEgLjg0OSAyLjQzNGwxLjM1MSAxLjIwOGE1NC42MTMgNTQuNjEzIDAgMCAwLTguNjExIDM4LjA3M2wtMS43NjcuNTE0YTUuODM1IDUuODM1IDAgMCAxLTEuODE0IDEuODI3IDM5LjM5IDM5LjM5IDAgMCAxLTcuNTY1IDEuMjQ3IDM1LjI2NCAzNS4yNjQgMCAwIDAtNC4wNDkuMzI2Yy0uMzI0LjA2LS43NzQuMTc0LTEuMTI3LjI2MmwtLjAzNy4wMDgtLjA2LjAxOGE0LjIzNiA0LjIzNiAwIDEgMCAxLjg3NSA4LjIyNGwuMDYzLS4wMWMuMDI4LS4wMDYuMDUyLS4wMi4wOC0uMDI1LjM0OC0uMDc5Ljc4Ni0uMTYzIDEuMDkyLS4yNDZhMzUuNTg1IDM1LjU4NSAwIDAgMCAzLjc4Ni0xLjQ1MSAzOS41MjcgMzkuNTI3IDAgMCAxIDcuMzU4LTIuMTY1IDQuNjggNC42OCAwIDAgMSAyLjQyNi44NTdsMS44NC0uMzE1YTU0LjkyMiA1NC45MjIgMCAwIDAgMjQuMzQgMzAuMzg3bC0uNzY5IDEuODRhNC4xODggNC4xODggMCAwIDEgLjM3NyAyLjM4NyA0MS4yMjcgNDEuMjI3IDAgMCAxLTMuODIgNi44NjQgMzUuMTgzIDM1LjE4MyAwIDAgMC0yLjI2MyAzLjM3MmMtLjE2OC4zMTgtLjM4MS44MDUtLjU0MiAxLjEzOGE0LjIzOCA0LjIzOCAwIDEgMCA3LjYyMSAzLjYxNmwuMDA3LS4wMDh2LS4wMWMuMTYtLjMzLjM4Ny0uNzYzLjUyMi0xLjA3MmEzNC45IDM0LjkgMCAwIDAgMS4yMTgtMy44NjggMjkuNTE3IDI5LjUxNyAwIDAgMSAzLjI2OC03LjU4MiAzLjQzIDMuNDMgMCAwIDEgMS44MTktLjg4OGwuOTU3LTEuNzNhNTQuNjE3IDU0LjYxNyAwIDAgMCAzOC45NDYuMDk5Yy4yNjguNDc4Ljc2OCAxLjM5Mi45IDEuNjIzYTMuMzM1IDMuMzM1IDAgMCAxIDIuMTU1IDEuMzEgMzkuMzA2IDM5LjMwNiAwIDAgMSAyLjg5OCA3LjA5NiAzNS4yNzQgMzUuMjc0IDAgMCAwIDEuMjI1IDMuODY4Yy4xMzcuMzEyLjM2Ljc1MS41MjIgMS4wODJhNC4yNCA0LjI0IDAgMSAwIDcuNjMtMy42MDdjLS4xNjEtLjMzMy0uMzgzLS44Mi0uNTUtMS4xMzZhMzUuMDYyIDM1LjA2MiAwIDAgMC0yLjI2My0zLjM2NCAzOS4zNzMgMzkuMzczIDAgMCAxLTMuNzQyLTYuNyAzLjMxNCAzLjMxNCAwIDAgMSAuMzI0LTIuNDkgMTQuNTE1IDE0LjUxNSAwIDAgMS0uNzAzLTEuNzAzIDU0LjkyIDU0LjkyIDAgMCAwIDI0LjMyOC0zMC42MDVjLjU0Ni4wODcgMS40OTcuMjUzIDEuODA2LjMxNmEzLjMzNyAzLjMzNyAwIDAgMSAyLjM2LS44NzcgMzkuNDc3IDM5LjQ3NyAwIDAgMSA3LjM2IDIuMTY1IDM1LjEzNSAzNS4xMzUgMCAwIDAgMy43ODggMS40NjJjLjMwNS4wOC43NC4xNTYgMS4wOS4yMzMuMDI5LjAwOC4wNTUuMDIxLjA4My4wMjhsLjA2LjAwOWE0LjIzNiA0LjIzNiAwIDEgMCAxLjg3OC04LjIyNHptLTQwLjEtNDIuOTg3bC0xOC4wMzcgMTIuNzg3LS4wNjMtLjAyOWEzLjcyMyAzLjcyMyAwIDAgMS01LjkxMy0yLjgzOWwtLjAyLS4wMDktMS4yNTMtMjIuMTA0QTQzLjg1IDQzLjg1IDAgMCAxIDIxMi4wNDMgNzcuN3ptLTMzLjk3OCAyNC4yMjhoNi43ODhsNC4yMiA1LjI3Ni0xLjUxMyA2LjU4MS02LjA5NiAyLjkzMy02LjExNC0yLjk0LTEuNTE2LTYuNTgzek0xNzEuNjggNjYuMjhhNDQuNjc2IDQ0LjY3NiAwIDAgMSA0LjUwMy0uNzc0bC0xLjI1NSAyMi4xMzctLjA5Mi4wNDRhMy43MiAzLjcyIDAgMCAxLTUuOTA0IDIuODUybC0uMDM1LjAyLTE4LjE1NC0xMi44NzJBNDMuNDY3IDQzLjQ2NyAwIDAgMSAxNzEuNjggNjYuMjh6bS0yNy41MiAxOS42ODFsMTYuNTc0IDE0LjgyMy0uMDE4LjA5MWEzLjcyIDMuNzIgMCAwIDEtMS40NjIgNi4zOTRsLS4wMTcuMDcyLTIxLjI0NSA2LjEzMWE0My40NTQgNDMuNDU0IDAgMCAxIDYuMTY4LTI3LjUxem0yMi4xOTEgMzkuMzhsLTguNDQxIDIwLjM5NmE0My42OTYgNDMuNjk2IDAgMCAxLTE3LjUzNi0yMS45NDhsMjEuNzgzLTMuNjk5LjAzNy4wNDhhMy42NTUgMy42NTUgMCAwIDEgLjczLS4wNjUgMy43MiAzLjcyIDAgMCAxIDMuMzY0IDUuMTg1em0yNC45MTYgMjYuMjNhNDMuNjM3IDQzLjYzNyAwIDAgMS0yMy44MTUtMS4yMjRsMTAuNzEzLTE5LjM3MmguMDE4YTMuNzI1IDMuNzI1IDAgMCAxIDYuNTU3LS4wMDZoLjA4bDEwLjc0IDE5LjQwNHEtMi4wOTEuNjk4LTQuMjkzIDEuMTk5em0xMy44NDEtNS43NTJsLTguNTI4LTIwLjYwNS4wMjYtLjAzN2EzLjcyNSAzLjcyNSAwIDAgMSAxLjgwMy00LjgyMyAzLjY4NSAzLjY4NSAwIDAgMSAxLjQyNS0uMzcgMy41OSAzLjU5IDAgMCAxIC44NTUuMDYzbC4wMzctLjA0NiAyMS45NzcgMy43MTRhNDMuNTMgNDMuNTMgMCAwIDEtMTcuNTk1IDIyLjEwNXptMTkuOTAzLTMyLjQxOWwtMjEuMzUyLTYuMTUtLjAyLS4wOWEzLjcyNSAzLjcyNSAwIDAgMS0xLjQ2LTYuMzk2bC0uMDA4LS4wNDMgMTYuNDgyLTE0Ljc1MWE0NC4yNzkgNDQuMjc5IDAgMCAxIDYuMzU3IDI3LjQzeiIgY2xhc3M9ImNscy0xIi8+PC9zdmc+" parent="1" vertex="1">
                    <mxGeometry x="497" y="168.5" width="76" height="60" as="geometry"/>
                </mxCell>
                <mxCell id="HWHSqS2P6HCf4RbeMcaz-3" value="" style="fillColor=none;dashed=1;verticalAlign=top;fontStyle=0;fontColor=#5A6C86;strokeColor=#0000FF;" parent="1" vertex="1">
                    <mxGeometry x="480" y="281" width="110" height="120" as="geometry"/>
                </mxCell>
                <mxCell id="-kEWRbQdguksYZ6EH8o2-1" value="" style="shape=image;verticalLabelPosition=bottom;verticalAlign=top;imageAspect=0;aspect=fixed;image=data:image/png,iVBORw0KGgoAAAANSUhEUgAAAIAAAACACAYAAADDPmHLAAAAAXNSR0IArs4c6QAAGrVJREFUeF7tnXlgVNW9xz/nzmRmsi8kCEJYZYmAEEUgrPqKfdqqtSiKqHWry1N5rhWeC9a6tvpsta8+bS1uVay1vvpK7VMBEURkJyQhsiRsYkIIScg2+5z3x53lzpZMwsxkJuTzV+655wzMnO89y/ee8ztwiiGlnCWl/KOUslJK2SalrJVSlkopfyGlHNtZ+T6SFCnlXCnlBtkxLinl36WU53b2eX0kCVKt+I0d13tIPpNSTu3s85Md0VmGZERKKYDLgEeB4sD7rRZZXrbfdnxvjV1kpwqGnqbnrGHGMxSF04M+DP4J/EII8XWIe0lPrxKAlFIB5qFW/FkBt51VNY6vH3u78bTKw/YzAssKgTx/YuqOh67KFrkZyqTA+8CnwBNCiC9D3EtaeoUA3BX/Q+Bxgp9417fHHBvv/0PDgH01juHBpYOZXmQqe3hhtmVAji7UWGA98EshxN9D3Es6kloA7oq/HLXiiwJu26tqHJseer1h0L4ax7CgwhEwdYyxfOm1OeYBObrJBP9WvUIISSkATcU/AYwJuG2vqnFsWrysYfD+WsfQ4NJdZ/www56nfpJzfHCBfhrBv9lXwLPJKoSkEoCUMgW4GngYGB1w21ZV49j84GsNhQfqHEOCS58844cZ9jx+bU7TsNP05xL82+0AngY+EELI4NKJSVIIQFPxjwKBAzhbxQH7xsXLGs+oaXQMDC4dfYoK9fsevy7v6MiB+mmALuB2KfAUSSKEhBaAlNIALACWAiMDblsrDtg3Pfh6w6jaBueA4NKxp6gwZd/j1+WGE0IZ8DzwJyGEK7h0YpCQAnBX/A2oT/zggNttW/Zatz76VtPYuiZn/6DCPcCQ/rrDT16Xd2DcsJQSQB9wuxx4DnhHCOEMLt2zJJQApJRG4HrUJ36Q/z3atu6zbn3kraaxxxKk4gPpRAi7gF+SYEJICAFIKdOBnwIPgr8b56n4h99oLKpvdhWE/IAEozBf/+0jC7OrJ48yTgWMAberUYWwTAjhCC4dX3pUAFLKDOBmYAng149LSev6CsvWpX9qOutEmys35AckOIPz9UceXZhdNXmUcQpgCri9H3iWHhZCjwhAU/H/AZzmf4+W9RWWbUvfPjHxRLszJ+QHJBmD8vXfLV2YvW/yKOO5QGrA7QPAb4BXhBDWoMIxJq4CkFJmAnegNvV5fvegYeV2c9nT7zVPam53Zof8gCSnIFupf2RBTsXM8aYpBAvhEPAC8KoQwhJcOjbERQBSyizg34DFgF9z7pKyYdUOS9mTy08Ut5pdWSE/oJfRL0upX3p1TsXM8aZzgbSA24eB/wR+L4QwB5eOLjEVgJSyH7AIuBvwa85dkuOrdpjLn3i36ew2i8wM+QG9nLwspeHBK7LL5k5KPVsIAn+DOtQW4aVYCiEmApBS5gN3AfcAfs25S1K/YmNbxS//0nyuxSYD1X9KkpspGhbPzymbOym1WAgCW0GPEH4rhGgPUfykiKoApJQFwJ3AveD/RVySYys2tu169v3mKVa7DOz/+gByMpTGJVdm75w7KXWSEASOg+qB3wEvCCGaQxTvFlERgJSyP3AfanPv91Q7XfK7D9a17fvN/7ZMsdlk4FSojxCkG0XrA1dkbb1kWvpEEdB14hPCr4UQJ0IU7xInJQAp5enAQ6hTOr/Kdbo4/Paq1r2vftwyw+aQgWZIHxGQmSra7r88u+yHU1LHKkIECuE46vTx10KIthDFI6LbApBS3obqaPk1VU4XB5d90nLgtU/apjucrpTQpfvoChkm0XbfvOzSS6aljVWE//QZ1Ue4VQjxWYiindItAUgpn0R9J+/F5pQH/vB/rUfe/LRlqtMV5IP3EQXSDKL9/ityNl86LXWcIsjX3HIAVwshPghXNhxdFoCU8nrgDU2SZcUm88Yn3m2a4XDKvoqPAxmpSvPv7szdOX6ocQa+OrQDU4QQOzooGkSXBCClzAN2g1d95gdea/zm81Jz0NLrPmLPA1dkrb16TsZsTdLXwPSuLERROssQwDX4Kp8X/9a8va/ye47nP2ievWWv9QtN0jSgS5tZuiqAKzx/NLbKrW+tap3eUeY+Ys99rzZMdrmo1SRdGTZzCCIWgJTShKowAF766ETCLGo4lWmzyvS1FZbdmqTzwuUNRcQCAM4BDKAu0vhki3liJ/n7iBNvfNqqXQw7wb3AJiK6IoASzx8NLa491j5zJ2EoP2gbJSVN7ks9EPHu5m4JoOyg7aQtyD6ih5SIhhZZpUkqIUK6IgDv6HJ1qTXiJqaP+LCtytKquYyuAKSUQ/Gt0pVf7WoPXKPfRw/zeak1Q3NZ4t4i3ymROndeRdmc8kBji4xol22ikpepMHOciVnjTbRZXKwrt7Ch0kq7NWL/JOH4qtI8GnJcqA91PupGmn0dl+qGAA7UOo4ASSeAQfk6Zo9XK33yKCM6Tdt3ydQ0nC4oP2BjbbmFz0stHKzrsYW63aKlXWZa7bLKmCI8rfN0YiGA9RWWpHhMDCmC4hEGpowxcv5EE0P7d/xVdQpMHGFg4ggDiy7N4ki9k3UVFtaWWdiy14ozYTd3+aiucdQUDUnxCKAEeKuj/BCBAKSUqYB3zr+61Noj+/AiISdDYeaZJmaNN1JSZCLdFFE3GJJB+ToWzElnwZx0TrS52LzHyrpyK2vKLLSaE1MNX1ZYKBrifQMf0UCw019ISjkTWKf+TeuUe75LdbmCNkL2GCMH6pk13sTs8SYmDDegdPqNTg6XC8rcXcWanRYOHE2crmLMYH31u4v7j3BfOoG8zpaPddoCoDWA2lx7XC7O7ihzrPE07bMnmDjvLBMDcuOrRaWDrmLrPhsOZ8/1kHuOOIZLaBTq0nsdMBlY3VGZLglgZ5UtaosRu0JuhsKMKDXt0SZcV/FFmYWWOHcVUiKOn3BW5WfrJruTSoiCADQGULt2rhlThvbX8/1zUpk1zsSZQ1IQiVPnYclOV5hbnMrc4lTsTsm2fTbWlVv4ZKuZhpb4iGF7tb31gmJvq9jpOKBDI0hKOQzfbl25fpctbgbQ4XoHm/dY2bzHyv4E6mcj5fAxJ5WH7FQettPYGp/KB1i1w6Jdjj+tM0Oow5tSyquBdwFsTqpL7vnOM8CIO9p5/DlnGNDrEqtJsNolO6rVJ371DgtHm3rmbXm6UbSufX5gKr6IJWOEEHvC5e+sC/A2Iftr7d8BcRNAmlH4OXNH6p0sX9PG8jVtZKUpTBljdAvCSFZaRI521GlocbGh0sracgtf7bKEdRIDv0ssabPKDKtN7jMahCeWUglw8gL4sjy+BtBvbu9HbobCyu1m1pZZ+OZbO9L9P2hud7Fyu5mV280oCowZlMLsCWrrUFQY25Xo1bUO1pZZWFdhobTa5v0/aVEEjBms/p/mFqfydaWV//wwfi9Qq2odNWcOSdEK4M1wecMKwG0AecOtfl5qjksELi0jBui59aJMbr0ok5oGJxsqrV7f3u6ebrlcUHlY7Wtf/biFQfk6prpbh2lFRlJOsqvQNu2rdlioC9O0G1MEU8cYVU9igpH8LN/09OvK+G77X1tuUc6M0BDqqAWYjG8FUMvuI5GFWY0VA/N0zJuRxrwZaTS3u9i0O7Qzd6TeyYf17Xy4vp1Ug+Dc0WqlnHeWibzMyLqKSJt2rfM4/UwTacaTE1u0+LzUcvrtP/BuNh4vpcwKZwh1JADtCqC9PW0AaclK8023PM7cZ9vNrC61cLTR94SabZK15RbWllt45v2Ou4pImnbwDUYvKE6Ni/PYHapq7MNcUjYoQuShzvSmACtD5Y1IADuqe8YAigStM/fA5dlhKzKwqygs0DNznJF2i2RdhSXsPF07xrigOJXhAzobNvU8UiKON7uqCrJ1nm1kJXRDAN4VwJ/vtMTNADpZRgzQM2JABjdckEFto5OvdgWPGwAOH3OwfE1of0Hbn8+ZYKJfVmRdRyKxda+97cLJnRtCIQUgpRyOL2qX/GqXJW4GUDQZkOsbN5htki17rKzcbglp02rt5hnjTKQaErBt7wKrSs3ZF072btgukVIqoSKWhmsBvIqx2uX+E22uuM3/Y0WqQTDLbSTZnZLbXjxO6X4bAPNmpPHQVTlJYTdHysZKyyjUN4I61BgDo4FvAvOFa9u8AqiudXwXJk/SkqITGDVPeIZJ6VWVD25DyE6nK4U7FcD6XfE1gOKFdpTfK78gsOeI/ajmMjIBBBpAa0otcTeA4oGfAHqpAr6ssGjrNzIBoO4qSQGQkubd39qTvv8PRS+tcz8+32HWRlo/U0oZFIAzlAD8DSAZ2d6BpEPz2PfWFqD6qGOIS3LcfekxhPzoUADbq20tIe73kSRIiag74ajWJAV1A6EE4FsBtMPcayN4ah962Ys7hO177doIYh0LQEo5Ao0B9HVl/FYAxZtTYRAIsGqHWRtebppUT1zzEtgCaA2g6t4Srj0Ufi1ALxbAxt22UahRxEA1hPyO2QsrgOpaZ68zgLT05krX0m51pVtsflvH/cL6hBXA+oq4hazvGU6RLgBg7xFHWEPIKwApZRoaA2hVaXuok7R7Df6DwN7NF+Vm7e6Z0AJANYD0AFJyYl8PrwCKNafKIBBgzU6L1hAqklJ6D+0IaRUeb3b2XgPoFGR/rWOoS3LMfSnQGEIhBbB9n00bbqRXcip1AQB1jY79mktvXWsF4DWAVu209FoDyIM8xRSwZa9de9qIvwCklCPxHd/m2vhN7zWAfGjfBfR+BazeYdYe1uU1hDwtgMYAoqq5FxtAHk6F9QBaNu6xag2hLKAIQgigqsaujTvbazmVZgEAFptMM1ulNmZQCYQQwLryXm4AuTnFhgAA7D5iq9NcqgJwx5Wd4En9vMySEAbQU8ub+DLJ3Ugp4R+bzLyxMjHeqq8rswUZQgoBBlDVEXtCGEAH6xzc/UoDd/zXcapqoh8fINazgPIDNm58oZ6lbzdyvDl+8QE6YvXO9iGay7FSyjw9mua/XjWAPOFFEoKNu60s/OUxLp2Wyp0XZ5GTEX1/KppjgKONTl5e0cI/NrdH9XOjwaE6Z6FLUqcI+uM2hPRodgDt/taekAaQwyn5cH07K7dbuO0Hmcyfle4X6LE7RHsWYLZJ3l7VyuuftWKzR+MTY0Nji+twvyylv/uyRA+c6blZXes8yZ81tjS3u3jugxO8v7aN++ZlMXNc98+hjNZ6ACnh481mXvzoRMI09R1Rd8Jp1mx1G6sHvC8KFCUqD0PM8YwPpo4xcv/l2Ywc2PUNm9FoAcoP2Hj+r82UHbB1ljVhUITf1z1dD1hwn/pZmK/r7m/RI5zM+ECehAISuZ/vjPwcnTbUv0UPHMJ9Pu3ZI439QpZKYKIxPoh0UWiy9PPhMBlEe166ol0SdkgBVnmuMtPEuKLClE4jTCcinvHB/Kfqor6ayTOfv+zxOl79uCUpKx9gwZz07UKgbQE+U1BPAfV8I+W5m3M9GwmSkoN1Dv49Av8gUiu4/ICNm36tzufrm3sm9Fs0SDMqbXdcnKn1eJqAvytCiJ3Anz2pA/vpp97+w8x1QZ+QZHjGB0+910RTiECNnc0CjjY5eeztJm54oZ6d+5NnkBeOl+/K3aZThNblfUQI0ebpLRcBhz13brkw89ziMwy7SHI844MfP1HHe1+0+cX8DzcGNNskv/9nC5f9oo4Vm5JvkBeKm/81Y8OEYcZZmqQvgFfA/TJICFGPeiqo1Z3B9Oqifjm5maKBXoBnfHDl077xQaAVLCWs3G7miieTu58PZPwww547Ls7SnvFYCywUQjghIFSslPLfgJc918ebXdsufLR2YiKdDxANZo83seuQ3duneyKGVR62d1Qs6chO0zV98nT/5hSd8LwDsAPfE0J4u/iguBhSymXAjZ7rldvNaxYvazwvMF8fiY0QyL///LRNA/N02sOk/10I8VttvlAz5juAbZ6LucWpc348I31jiHx9JDDP3Jj3RUDlvxdY+RBCAEIIC3A5ePeVi4evyh4zrL/+UGDePhKTucWp2y4oNmkHfd8At4bKG9IzE0IcAG4AXOo1Oe8uLrCYDEK7srSPBGRQP913z9yYMwxfuPgWYJ4QIuSqlLCmqRBiBfC059poEKPfeqBge7j8ffQ8Rr2wLl/S/4Q7RCyoM9ybhBCV4cp05po/Bvyf52LkQP2MRZdkre0gfx89yB/vzd+UbhJFmqRfCSE+CFuATgTgjix5DbDfk3bD9zOmTh5tKA1fqo+e4MbvZ6wvGpKi7fc/Bx4Jl99DZy0AQogGYB5gdicZ//vO/IK8TCWp3xn0JsYPM+y565IsbTT3WuAaIUSniyk7FQCAEGIHcI/nWlE4/f2H+h9UFJL37UgvITtN1/TaPf1SgVR3kh2YL4So6aCYl4gEACCE+D2wzHOdm6Gc/fxP85L+pVF3Wf3sAFY8fho9iSJw/fmh/H0pOlGoSb5XCPFl2EIBRCwAN3cCWz0XcyaY5syflf51B/n7iCHP3JS3tsB3SCTAciHE78IWCEGXBKAxieo9SYvnZxcNH6DXxqLrIw7MPTt129xJfmZPGXBLuPzh6JIAAIQQB4GFqKHIEYLsd35W4OwzieLH4Hz9kWduCDJ7rhRCaGMCRkTXl9MCQojPpJRPovoEGA1i1NsPFHw1/+k6vwhUsWLM4BTeXVzAio3tvPJxC/f8OIspo42k6AU799v47UfNYd/szRhn4iffS6eo0IBeBweOOvhoQzt/+bINV4hV3ZeVpLHw/AwKC3Q0tLj4x6Z2/vDPnts+YTAIy/IlBc2KEIPcSRK4UQgRdBZAJHS5BdDwC+CfnosRA/XT774sviZRbobCG/fnU1RoYP0uK5WH7EwdY+SP9+YzfpghKP/V56Xz0u15TBphoPygjQ2VVgbn63lwfjZPX6/dPq9yy0WZPLowh9P76VhfYWXXITtXn5fBMzcG540Xy+7J35Jm9DN7nhVC/DVsgU7oVgsAqkkkpbwG2IL7RNGffC+jZNMe284NuyzeaGOxZMY4E2t2WliyrNF7HtDFU9J4/Locli7M4apn6rwLP4b213PPZVm0WSS3vlTPN+4WIi9T4Q9353PB2amsq7Dwj02q3TF8gJ5bL8ykocXFDS8c40i9OuM9PU/H6/fnk52u0G6N7yz4josz1xUVBpk9j4bLHwkn0wIghGjE3yRKeem23IK8TJ02Ll3McEl44cMTfodBrdjUzs79NkYO1DNxhK8V+FFJGnqd4L0vWr2VD+oZgS/+TT0U7cpZvgWzl05LQ1HgzZWt3soH+K7Byeufxr8LOGuYYffN/5qpHfF/C1zlWdnTXU5KAABCiFLgNs+1ooiB7z9UUKNT6NSFOlm+OWznyPHg7//ZdlWPE4f7BOD5+9NtwUvG11VYaLNIioYYMOiFX/5VOzza9uH5/HiRna40vnZvfhr+Zs8CIYQn8le3OWkBAAgh3gZe81znZiiTXrg1L2IzortoD4nUUtugphdk+1ay5WerX7WmIViXUkJtoxOdgnd3UX6WDpck5FGxDS0uv1YnligC15//o6BKp6A1e+4WQqwPW6gLREUAbu5CHQ8AMHOcac5VszM2dJD/pAlXBZ4DoLQLP0Xw6rek4Fc3B5k97woh/jtsgS4SNQEIIawEmEQ/uyJrwuhBsTOJBuSGXqt6mjv9eIvv6T12Qv17YF7wuFcI9bOcLrx7COqbnSgC+ucE/xt5mcpJH0odCRdPTdt8/kTTbE1St8yejoiaAACEEIeABfhMoow37i9wphpETEZNYwencHpecAXNLVa7ytJq34YOzxmBF5wdvKV8+pkm0k2CykM2bA612fBsBvmXiZ5u18cFxcFp0WZwvv7Iz6/NGYmvjjxmT1QNt6gKAEAIsQrVIwDAmCJGvbO4YGcHRbqNosC987LRa57GiyanMnG4gf21DnZoBPDRhnYcTsmC2emMHuQ7ODonQ+HuH2UB8Jd1vt/2f79ux+WCn8xNZ1A/n8gG5Oq4fm5sT9L1mD0CtCt7buiu2dMRMWnHpJQC+BC4zJO2fE3rF8//tXlO+FKR43EC11dYGFOYgtWmPuGn5eo45wwDNrvk9t/6Tgb1cPV56TxweTZ2p2TTbhtmm4spo41kpSl8ts3Mktcb/fLf/oNMbrkoE7NNsqHSipRQUmRk024rxSMNtFslFz8W/Rnvu0sKvhwzKGWmJukpIUSnizu6Q9RbAAAhhARuAt/JlVeflzF95pmGqLYEja0ubnqhnt1H7Mwab2TckBQ277Hy0xfrgyofYPmaNu5+pYGd1TaKRxqYPc5EbaOT5z44wUNv+lc+wCsft/Dk8iZqGpzMGm9k/NAU3l/bxpJlwXmjxd2XZa8NqPzVuC33WBCTFsCDlPIsYAOQBuCS1P1w6VHqmpyeGDXdQvsu4LE/NXWWPWmYPNpU8eqivDMAozvpMHBONOb74YhJC+BBqDuPvevRFUH/95YUHNEponftwYoC2elK48t35mXhq/yomT0dEVMBAAgh3gFe9VxnpyvFL92eFxUTo7egCFzvB5s9i4QQX4UtFCViLgA3iwDvl5lWZJyzYE5sTaJk4vlb+63N9zd73hFCvEociOkYQIuUshB1OVmBek3bNb86Vrv7W/spEJo+PJdOTdv82LU55+B7GHcCJdGe74cjXi0AQojD+JtE6W88kK+km0JvWToVKMzXf7vU3+xpQt3GFZfKhzgKAEAI4TelMejE8HcW9y+ly4Hakh+32dMaYPbcJITQnvEXc+IqADdPo5pEABTm62YuuTI7riuJEoE378vfkmoUYzVJTwoh/idsgRgRdwG4TaKbAW84uvmz0qefPzH1lNl4+rP52V+M9jd7PgV+HiZ7TIm7AACEEE2oMYk8fV3Kczfnjo62U5iILLokc92C2enaN3wHUbdx9Uig4bjNAkIhpbwOeEuTZF9Xbl3/8BsNk9usMrZvXOLMwFx9zct35e0f0l+vXTltBWYJITaHKxdrelQAAFLK/0LdcaSl/WCdY8eug3ZbVa09xWztmZaqu6TopBmBKzNVpx92mo5JI4xZ/bKUiRAUbOsWIcRr9CCJIAAdarTSazvJ2tt4WAjxND1Mjz9Z7lWtNwAPoUYu7+3UoXr8PV75kAAtgBYp5VDgeuBS1L0GPbcDI3pIoAbYDXyAuqYvYV5h/j/GWaFV0MUuoQAAAABJRU5ErkJggg==" parent="1" vertex="1">
                    <mxGeometry x="505" y="250" width="60" height="60" as="geometry"/>
                </mxCell>
                <mxCell id="11" value="" style="shape=image;verticalLabelPosition=bottom;labelBackgroundColor=#ffffff;verticalAlign=top;aspect=fixed;imageAspect=0;image=data:image/png,iVBORw0KGgoAAAANSUhEUgAAB4AAAALRCAYAAAC6SL4zAAAABGdBTUEAALGPC/xhBQAAACBjSFJNAAB6JgAAgIQAAPoAAACA6AAAdTAAAOpgAAA6mAAAF3CculE8AAAACXBIWXMAAA7EAAAOxAGVKw4bAAAABmJLR0QA/wD/AP+gvaeTAAAAJXRFWHRkYXRlOmNyZWF0ZQAyMDIyLTA0LTAzVDIzOjEzOjUwKzAwOjAw3JHUpgAAACV0RVh0ZGF0ZTptb2RpZnkAMjAyMi0wNC0wM1QyMzoxMzo1MCswMDowMK3MbBoAAM3HSURBVHhe7N0HmGRllfDx012dc56enpxzHmbIiCCmRf3EzLomzBFXREUU1lXMiVXEiCgqqBgABSQOTM4zPT2dc86huitXf/Xefkcm9PR0qHCr7v+3Tz11zymUldB96573nBM3GiAAAAAAAAAAAAAAgKhHARgAAAAAMGUOn088o35xBt7dfp/Oigz7vOKbxNfMeImTjIQEHYkkxsdLqi1BkuLiJcVm01kAAAAAADBVFIABAAAAwCLUl78Bj9t49evXqWtVuB3xeo33QY9H7D7Pv2NV7LV7PeIPfH2cbIF3ppLi4yUl3ibJtsAr8K6KxZkJiZJu0++Bl8plBN6zA6+cpGTJTUySnMDLeA/Ecfq/CwAAAAAAK6EADAAAAABRTH2h63E7pdftlk6XI/DuCrw7AzmXdAfyXYFrlTtV7LXKF8D4uLiXisGBV3FKmhQmJcuslFQpSk6VwuQUKQ68FyQnS0JcvP5PAQAAAAAQ/SgAAwAAAICJ2b1eaXWOSFvg1eF0SLvLYbyrnLpWxV6P36//aEyV6hIuSE6RuSnpMic1Tb8C1ylpMjfwPivwmSomAwAAAAAQLSgAAwAAAEAEqbHKqojb7BiWpsCr2TFy2vWw0bmLyFG7iUtS0mRJeqYsTMuQhYH3U9dqFDUAAAAAAGZDARgAAAAAwkB18taPDAVedqkbtktD4F29VOzy+/QfhWiSn5Qsi9MzZWl6lizPyJIVmdmyJHCdarPpPwIAAAAAgPCjAAwAAAAAQWT3eqR6eEiq7YNSFXjVDA9K3Yjd2MWL2KfGRavR0StUQTgjW5ZnZsuazBxj5zAAAAAAAOFAARgAAAAApsEX+CpVNzwkJ+0DZxR725wO/UcALylKTpG1WbmnvXIkgxHSAAAAAIAQoAAMAAAAABegRjSrAm/50ICcHOoPvAaMmNHNmK64wGtBWoasy86VTdn5sikn3xgnrfIAAAAAAMwEBWAAAAAAOI3b75fyoX45PthnFHrVdc3wkNHxC4RSTmKSbMzOk825BbI58L46K0cS4uL1pwAAALHLE7gHH/Z5jXUq6trh94nLF3jpvG/UL0Mej6g7ckcg7wnEp6j/jF/fq6usI/DHp9sSjPh8kuJtkmKzGdeZCYnGIbzkQC7ZNnbvlZWQFIjjJS0hwfjvUpNbUgN/vPpjACAaUAAGAAAAYGktjhE5Ntgrxwb6Aq9eKbcPGA+dgEhTDyVVQfjivCLZnlsoqzKzjR3DAAAAZqSKsP0et/EaCLz69HWf22W8D3k9/37ZvV7jfVi/R8tkHXUvlqELwqpwnJ2YKFmJSZIbeGXrlzrUZ1wHPi9KTpWC5GQKxwDCjgIwAAAAAMtw+nxybHCs0Gu8Ate9bpf+FDA39SDxotwCuTivUC7OLZT5aRn6EwAAgNAZ8Xmlw+mQXo/beO8J3D93uRzSrd7dTul2OY2cKvJifKpYXJicIgVJyYH3VMkPvBcF4lmB65LUNJmdkhr4LEX/0QAwcxSAAQAAAMQs1U1wqL/n368Tg/3iPW1cHBDNSlLS5PL8WXJFwSyjQ/jUGEMAAIDJUpNvOl1OaXc5pNU5YhR429VLx+pajVhG6KkuYVUIVvd4xfp9bmq6LEjLCLzSja5jAJgsCsAAAAAAYobqPCgd7JPD/T2yp7fLGOd8ah8YEMvUA8NNOWPjoq8uKJZF6Zn6EwAAYHWqM7fZMRx4jej3U68Ro9DL/XJ0UF3Dqhi8MPBSk2BOXavicELc2O5iADiFAjAAAACAqKU6fPf1dcue3k7Z29sl9SN2/QlgbUvSM+WqgmK5tqhE1mTlCpuDAQCIbcM+rzQE7oXVq3448NLXjY5hOnhjXGJ8vFEIXpKeJcszsmRp4LUscK1GS3MPCFgXBWAAAAAAUcMX+PpSYR8wuntV0fdAXw8jnYELUCME1ahoVRBW77Y4HgUCABCtulxOqRkeCrwGpTbwroq8dYGXygOnS7MlGIcCV2XmyOqswCvwvjQjk25hwCIoAAMAAAAwNVXw3d3TaRR9Dw30iNPn058AmKq8pGR5eeFsozNY7Q2mGAwAgDn1uV1SNTwktcODUm0fkurAuyr8Dnjc+o8Api4pPl6WZ2QbxWCKwkBsowAMAAAAwFRUgffIQK88390uT3e1SrvToT8BEEzZiUlyZf4suX72fNmeV8iIQAAAIkDt3211jhjF3bLBfikb6jeu1Y5eIBxU8VeNjt6Ukx945clFOQWSm5SsPwUQrSgAAwAAAIg49YBLdfiqou/u3k5x+xnrDISTGhN9TWGJvG72PGNMIAAACD6712tMt6kYGpBK9R54qe5el58JNzAXtVN4Q3aeURRW72qUNIDoQgEYAAAAQNipXb4H+rrlma42eaGngw4HwERUB8h/FM+T/5g9TwqSUnQWAABMhXfUL5X2QTnc3/Pvzl61q1d1/ALRRq0R2ZpTYHQIq6KwGh0NwNwoAAMAAAAIC9XZcKrLVxV+e90u/QkAM4qPi5NtuQXypjkLjb3B7IYDAGB8Hr/f6OZVhd7SwT45occ4U+xFrFLTYy4K3Cduzy0M3C8WGjEAc6EADAAAACBkBjxu2dvXJc93qX2+bTLi8+pPAEQTtS/4FUUl8ta5i2RFRrbOAgBgTV0up9HRqwq+hwd65HB/L2OcYWlzU9Pl4rxCuaqgWC7JK5KkeA4OApFGARgAAABAUKnO3n91thqvg/3dxrhnALFD7YF785yF8spZcyQ53qazAADEJnUvWz9iN0Y5G+OcdXcvgPGl2GyyMXC/eHFekbysoFgWsz8YiAgKwAAAAABmbNDrMbp8n+xskZ09ncbOMwCxLSMhUV41a47857wlPNgDAMQMNbHmyECvHOzrkQP93UaXL929wPQtTMuQqwtnGytF1mXlGmtGAIQeBWAAAAAA02L3euRZXfTd1dtp7D4DYD2n7wq+prBEbDzUAwBEEVXwPTbQN9bhO9AjhwLvbu5rgZDISUySK/JnyXWz5jAqGggxCsAAAAAAJk11Pzzb1Sb/aG82ir48HANwupKUNGNPsCoGZyYk6iwAAOZh93qNzt79fV1Gl2+5fUD8PCIHwk5Nk1HF4GuKZgfeiyXVxmoRIJgoAAMAAAC4ILXr7JG2JnmsvUn6PW6dBYDxpdkS5DXFc+W/5i81xv4BABApaodvhX1A9vR2BV6dcrC/h8k1gMkkx9vk4rxCua5ojryiqMTYIwxgZigAAwAAABhXm9Mh/+xolodb6qXRMayzADB5ajy06ux474JlsiknX2cBAAit5sC961jBt8uYWqNWlwCIDqoz+OqCYmNM9GX5RZIQx5hoYDooAAMAAAD4tyGvR57oaDG6fY8M9AhfFgAEy4bsPHnX/KXy8sLZRmEYAIBgURNqdvd2ygvdHcZ7j9ulPwEQzXKTko2O4OuL5xn3kgAmjwIwAAAAAGPE859a6o0Rzw6fT2cBIPjmpqbLjfMWy5vnLJKkeDo6AADTUzM8JM93txtjnQ/09Yh3lLHOQCxTa0VePWuuvL5kvpSkpOksgPOhAAwAAABY1KDXI092tMjvm2ulyj6oswAQHurB3TvnL5E3zVlo7H0DAGAi6pDivr4uo+irOn07XA79CQArUZNktuUWyPXF89kXDEyAAjAAAABgIf7A7f++vm6j2/fZ7jbx+OmUABBZeUnJ8tY5i4xisNr5BgDAKV0up3HP+kxnm+zv7+beFcAZsgL3jq8qnitvKlkoKzOzdRaAQgEYAAAAsIBut1MebmmQh1sbpNU5orMAYB45iUnyX/OXyjvmLZY0W4LOAgCsptkxbHT5PtnRKkcHe40DjABwIaszc4zJMq8tniepdAUDFIABAACAWHZqt+8jbU3i8rPbF4D5qULwuxcsk3fMXcxIPwCwAFXgPT7YJ892tckzgVf9iF1/AgBTp7qCXzd7vrx5zkJZlJ6ps4D1UAAGAAAAYozb75fnutvkt401cmSgV2cBILrkJiXLu+YvlRvnLWZHMADEGPVA+njgPvWJzhaj05d9vgCCLS7wuii3QN48Z5FcUzRbEuLixz4ALIICMAAAABAj1I401e37++Za6fe4dRYAoltxSqpRCFYP75LieXAHANGsZnhInuxokcfam6TRMayzABBaBUkpRkfw2+ctNqbNAFZAARgAAACIcof6e+T+xmp5rrudHWkAYtaCtAz55JLVcm1Ric4AAKLBqaLvPzqapYHxzgAiSB0mfGXRHHnvwuWyhPHQiHEUgAEAAIAopAq9L/R0yM/rK+UoY54BWMjarFz572VrZUtOvs4AAMymxTFidPk+Gnix0xeA2cTHxcnl+bPknfOWyPa8Qp0FYgsFYAAAACCKjPi88o/2Zvl1YzUdFAAs7eK8Qrl1+Xq6NwDAJAa9HqPTVxV9D/f3GHt+AcDslmdkyXsWLJNXzZortji1ORiIDRSAAQAAgCjQ7XbKH5vr5XfNtTLAfl8AMCTExcsbSubLRxevkvykZJ0FAISLmkqzr69bHmlrlH91tYrT59OfAEB0KUlJk3fOXyJvmrNQkuNtOgtELwrAAAAAgImpnWm/rK+Uf3a0iHfUr7MAgNNlJCTKhxatkHfMW2wUhQEAoVU+NCB/aW0I3KM2Sz+HEwHEkMLkFGM09JvnLpJ0W4LOAtGHAjAAAABgQhX2Abm/oVoe62g2OisAABe2IC1DPrt8nVyRP0tnAADBYvd65fHAvekjbU1yeKBHZwEgNmUkJMjrZy+Q9y1cJgVJKToLRA8KwAAAAICJqH1pv2yokh3d7exNA4BpuqqgWG5dvk7mpqbrDABgOtT96KHA/enDLfXyZGeruPyMeAZgLak2m7xj3hJ51/ylkpOYpLOA+VEABgAAAEzgVOH3+e52nQEAzERifLy8Zc4i+diSVYzvA4Ap6nG75G9tjcaY54YRu84CgHWpjuAb5y2R/5q/VDITEnUWMC8KwAAAAECEqBtxVfC9t65cTgz2jyUBAEFVnJIqn122Tq4tKtEZAMD5lA31y59a6o0xz3T7AsC51MHCt85dJO9buJxCMEyNAjAAAAAQAXt6u+SHNWVSOtinMwCAULqyoFi+sGK9lKSk6QwAQFGF3ic7WuU3TdVSPjSgswCAiWQnJsk75i6Wd85fanQHA2ZDARgAAAAIIzXq+e7ak3Kgr1tnAADhkmKzyXvmL5ObFi43RkQDgJXVDQ/JQy31xqhnu9ejswCAqchPSpYPLVopN8xZIAlx3F/CPCgAAwAAAGGgCr8/qi2XfX1dOgMAiJTlGVly+8qNsiE7T2cAwBr8o6PyQk+HPNBUI3t7u4yVJACAmVuQliGfXLJarikqkTidAyKJAjAAAAAQQhR+AcCc4uPi5E1zFsqnlqyWDPa3AYhxbr9fnuhokV82VErN8JDOAgCCbW1Wrnx66RrZmlugM0BkUAAGAAAAQqB2eEh+XFsuT3a26AwAwIwKk1PkthUb5OWFs3UGAGJHj9slDzXXye+ba6Xf49ZZAECoXZxXKLcsWyfLMrJ0BggvCsAAAABAEHW4HHJvXYU83NpgjNgDAESH64rmyBdXbpCcxCSdAYDoVWkflPsbq+WfHc3i8ft1FgAQTra4OLmhZKF8bMkq7jERdhSAAQAAgCAY9Hrkl/WV8kBTrbj8Pp0FAEST/KRkoxv42qISnQGA6KL2+v6ioVL2BN4BAOaQlZAoH1m8St46d5FRFAbCgQIwAAAAMAOqo+JvbY1yd+1J6XO7dBYAEM1UN/BtK9ZLblKyzgCAeamHuzu62+Vn9ZVybKB3LAkAMJ2FaRny2eXr5PL8WToDhA4FYAAAAGAa1Hjnx9qb5e7aMml3OnQWABAr8pKS5Yt0AwMwMXU/+lRXq9xTWy41w0M6CwAwu6sKiuXW5etkbmq6zgDBRwEYAAAAmKLSwT75ZuVxOUKHBQDEPNUNfPvKDZLN3jYAJqHWjfyttVF+1VglLY4RnQUARJPkeJu8a8FSuWnBckmx2XQWCB4KwAAAAMAkdbgc8sPqMnm0vckYtQcAsIbC5BS5Y9UmuYJxfQAiyOnzyYMtdfLrhmrpdjt1FgAQzUpS0uTzK9YbXcFAMFEABgAAAC5APWz7VUOV/DLwUh0XAADriQu8bpizUG5Ztk5S6dIAEEYev1/+1tYo99SVS5eLwi8AxCJVAP7Cig0yOyVVZ4CZoQAMAAAAnIe6Uf5XZ4t8p6pU2tjzCwAIULvavrp6s2zKydcZAAiNU4Xfn9SVSyeFXwCIeWoU9IcWrZR3zV8qtjh1/BCYPgrAAAAAwDhODPbLVyuOGvt+AQA4nXog9/6FK+QDi5ZLQly8zgJAcHhH/fLP9haj47fZMayzAACrWJGRLbev3CDrs/N0Bpg6CsAAAADAaQY8brm75qT8qbVe/NwqAwAmsDozR762ZossTs/UGQCYPl/g3lN1/P60rkJanSM6CwCwovi4OHnLnEXyiSWrJSMhQWeByaMADAAAAASom+JH25rkO9Wl0ut2jSUBALiA5HibfGrparlx3hKdAYCp29PbJd+qOi5V9kGdAQBApDA5RW5fuVFeVlCsM8DkUAAGAACA5VXYB+Rr5cfk8ECPzgAAMDXXF8+T21ZukDQbHRoAJu/oQK98r/qEHOrnPhQAcH7XFc2RLwbuNXMSk3QGmBgFYAAAAFiW3euRH9WWyx+aa42RewAAzMTCtAz59rptsjwjS2cAYHy1w0Py48B96JOdLToDAMDECpJSjAOH1xTO1hng/CgAAwAAwJIe72iRb1Yel263U2cAAJg5NRL68yvWyxtLFugMALyk3emQn9ZXyMOtDeLnsSwAYBroBsZkUAAGAACApXS5nHJX5TF5qrNVZwAACL5ri0rkzlWbJDMhUWcAWNmwzys/r6+U3zbWiMvv01kAAKaHbmBcCAVgAAAAWILqsFCdFt+pKjUewAEAEGrz1UjotRfJysxsnQFgNerB66NtTcaeXybPAACCTXUDf3nVRg4d4hwUgAEAABDzKu2DcufJw3J8sE9nAAAID0ZCA9ZVGrj3/EblcTk60KszAAAEX0lKmnx1zRbZkpOvMwAFYAAAAMQwNV7vl/VV8vOGSvH4/ToLAED4vWnOQvn88vWSGB+vMwBiVYfLIT+sLpNH25uMDmAAAEItPi5O3j53sXx66RruN2GgAAwAAICYdKi/R7508rA0jth1BgCAyFJdGd9Zt03ykpJ1BkAscfh88ouGSvl1QzV7fgEAEbEqM0fuWrNFFqdn6gysigIwAAAAYop62HZPbbnc11ht7P0FAMBMipJT5Pvrt8varFydARALnu5qk29WHpM2p0NnAACIDLWC5DPL1spb5y7SGVgRBWAAAADEDLVf7fayQ1JP1y8AwMTUQ7kvrtwgr589X2cARKtmx7B8vfK47Ohu1xkAAMzh6sLZcueqTZKTmKQzsBIKwAAAAIh6dP0CAKKR2gv8hRXrJSGOPW1AtPH4/fKbphrjHpRxzwAAsypOSZW71mw1VpHAWigAAwAAIKodU12/Jw9L3fCQzgAAED3YCwxEn319XfLVimPcfwIAokJ8XJx8cOEK+eCiFcY1rIECMAAAAKKS6rT4UW253E/XLwAgys1PTZcfb7xE5qdl6AwAM+pwOeQblcflqc5WnQEAIHpclFtgdAMXJafoDGIZBWAAAABEnZrhIfn8iQNSPjSgMwAARLfsxCT5/vrtjOcDTEg9PP1jc518v+aE2L3esSQAAFFI7QO+a80WuSx/ls4gVlEABgAAQNRQN65/bqmXb1YdF6ePXWsAgNiSFB8vX1m9WV49a67OAIi0Jsew3HnyiDH2GQCAWKCGQL9nwTL5xJLVjISOYRSAAQAAEBV63C75UtkheaGnQ2cAAIg96hHchxatlA8vXjmWABARvtFR+XVjtdxTW26sHgEAINaokdDfWLtVCpIYCR2LKAADAADA9J7uapM7Tx6Wfo9bZwAAiG1vLFkgt6/cKDa6MoCwU2tG7gjce5YN9esMAACxSe0D/tbai2QTa0hiDgVgAAAAmJYa8/yDmjJ5oKlGZwAAsI5L84rkO+u3SbotQWcAhJLq9P2/mpPym8C9p59HpgAAi0iIi5dPL1sjN85bYkyjQWygAAwAAABTOjHYL58t3W/sXQMAwKrWZOXI3RsuZjQfEGLHB/vkthMHpX7ErjMAAFjLdUVz5H9Wb5I0Dh/GBArAAAAAMBV1c6o6fr9XfUI8fv9YEgAACytJSZOfbr5M5qem6wyAYPGO+uX+xhqj81ddAwBgZYvSM+X767YZ74huFIABAABgGnavR+44eUSe7GzRGQAAoOQnJctPNl0qKzKydQbATFXbB+ULZQeNnb8AAGBMdmKSfGPtVmMdCaIXBWAAAACYQulgn9xSul9aHCM6AwAATpeVkCg/2niJbMjO0xkA0+EbHZVfN1bLj2tPipuJMwAAnCM+Lk4+sWS1vGfBMvYCRykKwAAAAIgodTP6u6Ya+U7VCcbuAQBwAak2m3x//Xa5hI4MYFrqhofktrJDxuFDAAAwsVfPmit3rtokKYF7UEQXCsAAAACImH6PW247cVBe6OnQGQAAcCFJ8fHy9TVb5dqiEp0BMBkPtdTJtypLxeX36QwAALiQlZnZ8sP1F0txSqrOIBpQAAYAAEBEHO7vkc+U7pcul1NnAADAZCXExcv/rt4srymeqzMAzmfI65GvlB+RxztadAYAAExFQVKK/HDDdlmblaszMDsKwAAAAAi7P7XUy12Vx8TDzjUAAKZN7WP77PJ1cuO8JWMJAOfY19ctXzhxQDo5dAgAwIyoKTRqHPRri+fpDMyMAjAAAADCxuHzyR0nD8s/O5p1BgAAzIQqAt+8bK28e/7SsQQAg290VH5aVyH31leIn8efAAAEhbr3fM+CZfLJpWuMa5gXBWAAAACEReOIXW4+vk+q7IM6AwAAguWTS1bL+xYu1xFgba3OEflc6QE5MtCrMwAAIJheOWuOsY4kOd6mMzAbCsAAAAAIuee72+ULJw4a+9cAAEBo3Lx0jdGRAVjZo+1N8tXyozLs8+oMAAAIhY3ZefKD9dslNylZZ2AmFIABAAAQMmrc3r2M3gMAICzUGL7PrVgvb5+7eCwBWIjL75PvV5fJA001OgMAAEJtbmq63LPxElmQlqEzMAsKwAAAAAiJAY9bPlO6X/b2dukMAAAINVUEvm3lBnnLnEVjCcAC1KoRdd9ZPjSgMwAAIFxyEpPkhxsuNjqCYR4UgAEAABB0DSN2+fjRPVIfeAcAAOFlFIFXbJC3zKUIjNj3TFeb3F52iFUjAABEUKrNJt9ce5FcVVCsM4g0CsAAAAAIqhd7OuSzpQfEzkM4AAAiRhWBv7hyo7x5zsKxBBBjfKOjcndNmfyqoUp4uAkAQOTFx8XJF5av5xCiSVAABgAAQFCom0r1AO6HNWXs+wUAwATUQ7ivrNos18+epzNAbGh1jshnju+X0sE+nQEAAGbxgUUr5KOLVxkHEhE5FIABAAAwY06fT7508pA83tGiMwAAwAxUEfiba7fKdUVzdAaIbrt6OuXWEwdkwOPWGQAAYDY3zFkot6/YYNyLIjIoAAMAAGBGOl1O+dSxvXRgAABgUonx8XL3+ovl0vwinQGiD9NmAACILi8vnC3fWLtVkuNtOoNwogAMAACAaTs+2CefOLpHetwunQEAAGaUbkuQX2y5XFZn5ugMED1GfF75UtlhebKTaTMAAESTbbmF8oMN2417UYQXBWAAAABMy1OdrfKFsoPG+GcAAGB+OYlJ8ustV8ii9EydAcyvyTFsTJupsg/qDAAAiCZrs3LlxxsvMe5FET4UgAEAADBlDzTVyLeqShm/BwBAlClOSZX7t1xpvANmt7OnQ24tPSCDXo/OAACAaLQkPVPu3XSZFCWn6AxCjQIwAAAAJs0XuHW8q/KYPNRcpzMAACDaqAdw9225QrLpwoBJqYeVv6yvlLtrT3LgEACAGDEvNV1+tvkyKUlJ0xmEEgVgAAAATMqwzyufPb5fXujp0BkAABCt1mXlys83Xy6pNpvOAObg8vvk9rLD8nhHs84AAIBYoYq/vwjcg85JpQgcahSAAQAAcEEdLod8/OgeKR8a0BkAABDtriwolh+s3y62uDidASKr3+M29v0e6u/RGQAAEGvUKpKfb7pM5qdl6AxCgQIwAAAAJlQ62GcUf3vcLp0BAACx4oY5C+XLKzfqCIicKvugcc/Z6hzRGQAAEKvyk5KNaTRqNQlCI16/AwAAAOfY09sl7z+0k+IvAAAx6s8t9XJ/Y7WOgMjY2dMh7zr4AsVfAAAsQj1net+hF40DYAgNOoABAAAwrkfam+TLZYfFO+rXGQAAEIvi4+Lke+u2ydWFs3UGCB91AOG71SfEzyNKAAAsJzcpWX666VJZkZGtMwgWCsAAAAA4xwNNNfKtqlIexAEAYBEpNpv8cvPlsjYrV2eA0PIF7jO/UXlc/tBcqzMAAMCKchKTjPvQpRlZOoNgoAAMAACAf1M3ht+rKpX7GAUJAIDlFCanyO8uukpmJafqDBAadq9XPn18r7FuBAAAQO0EVkXgRewEDhoKwAAAADB4/H65reyQPN7RrDMAAMBqVmXmyH1brpBUm01ngODqcjnlo0d3S/nQgM4AAABQBA62eP0OAAAACxvxeeXjR/dQ/AUAwOJODvXLbWUHWQOBkKgZHpJ3HthB8RcAAJyjx+2SDxzeJc2OYZ3BTFAABgAAsLjewA32uw++ILt6O3UGAABY2VOdrXJ37UkdAcFxbKBX3hO452x1jugMAADAmTpcDnnfoRe5XwgCCsAAAAAW1u50GMVfujAAAMDpflFfKY+2N+kImJl/dbbK+w7tlH6PW2cAAADG1+Z0yAcC9w1qbQSmjx3AAAAAFtXiGJH3H97JaB0AADCu5Hib3L/1CmMvMDBdDzTVyLeqShkrDgAApmRpRpb8avPlkp2YpDOYCgrAAAAAFqT2r33gMKcpAQDAxEpS0uQP214mOTx4wxSpB47fqyqV+xqrxxIAAABTtCk7X+7ddKmk2Gw6g8liBDQAAIDFlA72GfvXKP4CAIALUfvXbi09QPcmpkT983LnycMUfwEAwIwcHuiRTxzbI26/X2cwWRSAAQAALGR/X7e8n/1rAABgCnb3dsq9dRU6Aibm8fvlltL98nBrg84AAABM357eLrm97BAHEqeIAjAAAIBFPNPVJh8+skuGfV6dAQAAmJx76yvkhZ4OHQHjc/h88vGje+Rfna06AwAAMHP/7GiWr1Ue0xEmgwIwAACABaiHcJ85vp+ROQAAYFpUx8XnSw9Ik2NYZ4AzDXjcctOhF2VXb6fOAAAABM9DzXXyk7pyHeFCKAADAADEuCc6WuSzpfvFO0rxFwAATN+g1yM3H9srTp9PZ4Ax3W6nvO/Qi3J8sE9nAAAAgu+e2nL5W1ujjjARCsAAAAAx7NH2Jrn1xAHxsScFAAAEQaV9UL5SfkRHgEiLY0TefeAF458NAACAUFJPt+48eYSJI5NAARgAACBGqf0ot5cdMkY2AgAABMsj7U3ydzovEFA7PCT/dXCHNDIaHAAAhImacPeZ4/s4fHYBFIABAABi0F9aG+TzJw7S+QsAAELiqxVHpX7EriNYkSr+vv/wTulyOXUGAAAgPOxer3z4yC5pczp0BmejAAwAABBjHm5tkDvLj9D5CwAAQsbh88mtpQfE7ffrDKykfGhA3n3wBYq/AAAgYtR9yEeO7JIhr0dncDoKwAAAADHkoeY6ufPkYYq/AAAg5E4O9csPak7oCFZxYrDf6Pzt97h1BgAAIDJqhofkluP7mYA3DgrAAAAAMUKNff5a5THhlhcAAITLbxtr5Pnudh0h1pUN9cuHjuySAYq/AADAJHb1dsq3q0p1hFMoAAMAAMSAv7c1MvYZAACEnbrz+NLJw4wCtoDD/T1y06EXKf4CAADTeaCpRh5qqdMRFArAAAAAUe5fna3yZcY+AwCACOlzu+RzJw5wLxLDDvX3yEeO7Ba716szAAAA5vL1iuOyr69LR6AADAAAEMWe7mqTz5ay6wQAAETW/r5u+XVjtY4QS1Tnryr+Dvso/gIAAPPyjvrlv4/vl0bHsM5YGwVgAACAKKX27d0SuLGl+AsAAMzg7pqTxo5YxI6jA71G8XeE4i8AAIgCalXFx4/ukSGvR2esiwIwAABAFNrd2ymfOb7fON0IAABgBuq+5AsnDorL79MZRLPSwT75MJ2/AAAgytQNDxn3pFZfT0IBGAAAIMrs7e2STxzdy8NVAABgOrXDQ/KTugodIVpV2AeM4q+d7hkAABCF1NS8e+utfU9KARgAACCKqE6MTx6j+AsAAMzrVw1Vxt5YRKcq+6C8/9BOY4QiAABAtLq3rkJ2dLfryHooAAMAAESJavug0YnBDjYAAGBmatzel08e5sBaFKofscsHD++Sfoq/AAAgyql7UjUKutExrDPWQgEYAAAgCjQHblY/eGQXnRgAACAqqELi/9Wc1BGiQWPg79n7Dr0o3W6nzgAAAES3Qa9Hbj62Vxw+6x1MpAAMAABgcr1ul3zkyG7pcvEwDgAARI/fNNXIQUZBR4U2p0NuOryT+00AABBz1HqL/yk/oiProAAMAABgYnavRz50ZJfRRQMAABBN1Ni928sOsb7C5NRhww8e3intTofOAAAAxJbH2pvkweY6HVkDBWAAAACTcvp88tGje6R8aEBnAAAAootaY3E3o6BNy+71GpNmOGwIAABi3beqjsvJoX4dxT4KwAAAACbk8fvlU8f3ymHGJgIAgCj3++Za7mlMyOX3yceP7pYyCz0IBQAA1uX2++WW4/uNA3BWQAEYAADAZNS4xNvKDsmunk6dAQAAiF7q3kbtXfOO+nUGkab+nnz+xEF2NAMAAEtpdAzLneWHdRTbKAADAACYzHerT8jjHc06AgAAiH41w0NyX0O1jhBJo4HXHScPy1OdrWMJAAAAC3mio0Uebm3QUeyiAAwAAGAiDzbXyf2NPBwFAACx5966CmlyDOsIkfLtquPy17ZGHQEAAFjPXRXHpMI+oKPYRAEYAADAJNQJxLsqj+kIAAAgtqids1+tOKojRMI9deXym8YaHQEAAFiTui+9tfSAOH0+nYk9FIABAABMQO1f+2LZIWMfGwAAQKza1dMpj3e06AjhpEYd3lNbriMAAABrqx0eMtawxSoKwAAAABGmduJ98uge4/QhAABArPtm5XEZ9Hp0hHB4oadDvlJ+REcAAABQHmyulR3d7TqKLRSAAQAAIqjT5ZSPHNnFQ1AAAGAZ3W6n/LCmTEcItROD/XLL8f3iY9IMAADAGdTd0ZdOHpYet2ssEUMoAAMAAETIkNcjHzqyS9qcDp0BAACwhj+11MuxgV4dIVSaHcPysaO7ZcTn1RkAAACcrtftkv+JwUkpFIABAAAiwDvql88c3y/V9kGdAQAAsA7/6Kh8pfyo8Y7Q6Pe45cNHdsdkRwsAAEAwPdvVJg+3NugoNlAABgAAiICvVx6X3b2dOgIAALCeCvuA/DnGHrSZhcPnk48c2S0NI3adAQAAwES+WXlcmhzDOop+FIABAADC7NeN1fJQc52OAAAArEvtAh7wuHWEYFC7fj9zfJ+UDvbpDAAAAC5Ercz4UtmhmJlQQwEYAAAgjF7o6ZDvVZ/QEQAAgLWp4u9P6yt0hGD4euUx454TAAAAU3Owv0f+ECNNGxSAAQAAwqR8aEBuOb6fXXcAAACn+X1TndQzqjgoftNYIw8yaQYAAGDavl9zQhpjYBQ0BWAAAIAw6HI55RPH9hjjZAAAAPAS76hfvl1VqiNM14s9HfKdav46AgAAzITT55M7Tx6WaG/foAAMAAAQYi6/Tz55bK+0Ox06AwAAgNPt6G43CpiYnprhIfls6QEmzQAAAATB/r5u+WOUT1WhAAwAABBC6iHcraUHpHSwT2cAAAAwHtUFrLqBMTXdbqd85MgusXs9OgMAAICZUpNVmqN4FDQFYAAAgBD6cV25PNPVpiMAAACcT+3wEPtrp0iNKPz40T3SxqQZAACAoHIE7rO+WnFMR9GHAjAAAECI/KuzVX5WV6EjAAAAXMg9teXS73HrCBNRw56/dPKwnBjsH0sAAAAgqHb2dMjjHS06ii4UgAEAAEKgwj4gXyw7aDyYAwAAwOQMej3yi/pKHWEiP6wpk8c7mnUEAACAUPhW1fGoXLVBARgAACDIVNfKzcf2GaNiAAAAMDV/aK5jpPEFPNbeRKEcAAAgDLpcTvlBTZmOogcFYAAAgCDyjvrlM8f3SbNjWGcAAAAwFS6/T+6tK9cRzlY+NCB3lh/REQAAAELtjy31cnSgV0fRgQIwAABAEH294rjs6+vWEQAAAKbjr22NUjM8pCOc0uN2ySeO7REnk2YAAADCxj86Kv9TfsRo/IgWFIABAACCRD2ofKilTkcAAACYLvWQ7Ue1J3UExeP3y6eP75N2xmMDAACEXZV9UB5oqtWR+VEABgAACIIjA73yFUbxAQAABM3Tna1SOtinI3y98pgc7u/REQAAAMLtJ7Xlxk7gaEABGAAAYIbUKD6191d1ZQAAACA4RgOv71afGAss7sHmOmP3HAAAACJn2OeVH9SU6cjcKAADAADMgG90VG4p3S+dUXL6DwAAIJoc6OuW3b2dOrIm1fX7zarjOgIAAEAkPdLWKMcGenVkXhSAAQAAZuD71SeMB5MAAAAIjR9UlxndwFbU5nTIzUyaAQAAMA11X/r1yuPiHzX3HSoFYAAAgGl6qrNV7m+s1hEAAABCoWyo39gHbDVuv1/++/g+6XW7dAYAAABmUDrYJ39vb9KROVEABgAAmIaGEbt86eRhy3ajAAAAhNO9dRWWu+/6RuUx4+EiAAAAzEdNBbR7PToyHwrAAAAAUzTi88qnju019U0eAABALKmwD8iO7nYdxb5H2prkjy31OgIAAIDZqCktP62v1JH5UAAGAACYoq+WH5Wa4SEdAQAAIBx+XFtuiS7gKvugfKXiiI4AAABgVg801UizY1hH5kIBGAAAYArUjd0jJt/xAQAAEItODvXLzp4OHcWmIa9Hbj62V5w+n84AAADArDx+v9xTW64jc6EADAAAMElqB9t3q0/oCAAAAOH2k7oKfRV7VHfzl08elkaTdpEAAADgXI91NEvZUL+OzIMCMAAAwCSoboxbSvcbJ/sAAAAQGccGemVvb5eOYssv6ivlqc5WHQEAACAa+EdH5btVpToyDwrAAAAAF6C6Mb5UdkhaHCNjCQAAAETMvfWx1wW8r69b/q/2pI4AAAAQTdS9nNlWlVAABgAAuIDfNFbL011tOgIAAEAkHejrloP9PTqKfl0up9xaut/oHgEAAEB0+l71CVPdz1EABgAAmIDa+/uDmjIdAQAAwAzurSvXV9FNPST83IkD0uN26QwAAACiUaV9UP7R0ayjyKMADAAAcB4DHrf89/F97P0FAAAwmT29XcZBvWh3T1257O/r1hEAAACi2U9qy8Vnki5gCsAAAADjULdqXyw7JG1Ox1gCAAAApnJ/Y7W+ik5qV9zP6it1BAAAgGjX6BiWR9qbdBRZFIABAADG8dvGGnm+u11HAAAAMJsnO1ul2TGso+iiRj5/rvQAe38BAABijOoCNsM0QQrAAAAAZ6m2D8oP2fsLAABgaqp4+rumWh1Fj1N7f7vdTp0BAABArGh1jshf2xp1FDlxowH6GgAAwPKcPp+8bf9zUjs8pDMAEN2S4uMlJd4mmYmJEhf4P3UKOCMhcexDzS+jYvd6jWuHz2ucVh4OvJtldxEAnE+6LUGevPyVknnWzzUz+7/ak/LTugodAQAAINYUJqfIPy59hSQHvotHCgVgAACA09xZfkT+3FKvIwAwn8T4eCkKfJmclZwqJSlpxnV+UorkJCVJbmKS5CUlS15isqQlJEiGLUHi4+L0f3LqHD6fDHk9xsseePV73NLlckqX2yndgffOwEt1sLU4RozPACASbl66Rt6zYJmOzG13b6d8+MhuRj8DsBRVAEkP3JumBe5NFXV4xzbBPaq69/SM+mXE65WRwP2oN3ANANHm1uXr5MZ5S3QUfhSAAQAAtKc6W+XTx/fpCAAiRz0Qm5uaLgvTMmRR4LUwPVMWBN7nB3IFySky/ZJu6KgHdWoXZ1Pg1ewYkbrhIakeHpSawLuargAAoaIOxPzzsldIQpy5N531ul3ypr3PMvoZQNRTBdzilFSjw60o8DPYuE5S1ymSnpAoGQkJkmW8Jxp/rDrAOBPq0Izd5xVX4J5SHTpUP0fVLnX1c1UdSuzxqGt1UNFhjF49NdkGACJJ/Yz856XXGVO5IoECMAAAQEC70yFv3vesDNDBBiDM1EOx5ZnZsjIjW1ao98BrSXpmREdFBZN6YNfsHDH2q1faB+TEYL/xogACIJi+umaLXF88T0fmox6+ffzoHtnR3T6WAACTy0lMkkVpmbIoPWPsUGLg/nRearrMSkk17l/NTBWGGx3D0jhif+l9JPDusFMcBhBWt6/cKG+es1BH4UUBGKal/sFUD4mODvQaexgHvG5x+Rj3AQBTocaAbszOk+tmlZi+IyKSVHHipsM75UBft84AQGiozl3Vybsh8LP51EsVe2cypjladbgcUmoUg/vkUH9P4LpP3H7u9wFMjzo889C2q3VkPr9vrpW7Ko7pCADMQx06VIcQ12blyLL0LKPQuzjwUgXgWKQm1pQPDcjJwKt8qF/K7QPGihMACAV1cObvl1w74dj7UKEADNNRnQB/aK6Tv7c1Gt1YAICZuyi3QH666bKI3GxEg5/VV8jdNSd1BADBpQq823ILjZ/FWwOvWH2YNlMuv0+ODfTJgf5uOdjXLUcD1yoHAJP1s8D97va8Qh2Zhzrc/vb9z/MzDUDEqWcCS9OzZE1WTuCVK+sCr6UZmZY/MK6eR6uisDqQeLC/x2hIYoUJgGC5a80WeW0EJtVQAIZpePx++Vl9pdzXWMUvWAAIgR+s3y5XF87WEU45OdQvN+7fId5Rus4ABIeavnB5/iy5LL/IKPoWJKXoTzAVqlBysK9HXuzpMF71I3b9CQCMT/3M/cXmy3VkDupn2Tv2Py9V9kGdAYDwUbt4N2bny+acfNkSeK3KzJEUW2ysGQkl9Zz6VDFYHU480t8rIz5GRwOYnqUZWfLn7S83JoKFEwVgmII6ZfWJo3uNX6wAgND48sqNckOEdk6YlXog97Z9z0nN8JDOAMDUqS9xq7Ny5Mr8YrmiYJaszsyx5EjnUGt1jsiL3R3yTFeb7Ovr5uAOgHHdveFiuaqgWEeR9/XKY/K7plodAUBoqYOIp4q96n1FRjb3pUHgGx2VsqF+2dnTIc93t0vZYL+xvhAAJisSjTkUgBFx6vTUOw/s4DQsAISY2ommdqPhJd+sPC6/barREQBMnnqQtiFrbMf6tUUlMis5VX+CcBjyemR3b6c839UuT3e10ZEB4N8WpmXIwxe/3BTjTF/o6ZCPHdlNkQBAyKTabHJRbqFckqdeRcbuXoSe2hm8o7tddgR+zqt7UqZZArgQNXL/gYuu0lF4UABGxN1Sul+e6GjREQAgFMw4Di/SVPfYBw7vFD+3QgAmSRV9t+bky3Wz5sg1hSWSn5SsP0EkOXw+eb67TR5rb5adPZ10BgOQr63ZIv8RgT1rp+txu+SGvc9Ib+AdAIJF3Y+uzMiWS/KLjILvpuw8SYy39v7eSFOTxdTzhac7W+WpwGvQ69GfAMCZfrXlCmNCQ7hQAEZE3d9YLd+uKtURACAU1JfBBy96mbFvAmPsgS9k6oFcm9OhMwBwfurnpyokvGbWXClOodPXzPo9buNw6WPtTXJ0oJeuO8CiLs0rkp9sulRHkfGJo3vkue52HQHA9Kk9vpflz5KXFRQbP99yOYRoWm6/X17s6TDuRXd0dxjFYQA45eWFs+X767frKPQoACNi1AOZ9x560ViqDwAInY8uXiUfXLRCR1BuKzsoj7Q16QgAzpWTmCTXz54n1xfPZ3x+lGp2DMvDrQ3yt7ZGY0wfAOtIsdlk11WvjdgYaPWz546Th3UEAFM3OyXVKPqqneaq0zeJLt+oow6eP9vVLk92thhFYbVHGIC1qSkOf7/kWpmfmq4zoUUBGBGhRiG9Zd+zPIgBgBBbnpElv7/oZYyEOs2zXW3yyWN7dQQALzm119co/AZeyfE2/QmimRr1r8by/amlXp7uauXhG2AR/7r8lRHZz97qHJE37X1G7F52kwOYGvX9/dqiEnlZwWwOIMaYTpdT/hy4F/1Taz3PwwGLe8e8xfK55et1FFoUgBF26oHLTYdelIP9PToDAAgFW1yc/HbrVbImK0dn0Od2yRv2PmO8A8ApaozeDSUL5I2B19wwncRFZKjR/6oQrB6+8bsAiG1PXf4qKUpO0VF4qAMnHzi80zh0AgCTMSc1TV5ZNEdeN3u+LE7P1FnEqlMHEx9oqpEd3e2sKwEsKNVmkycve6VkJybpTOhQAEbYfbPyuPw28EsOABBa71u4XD65ZLWOoHy2dL883tGiIwBWpzor3jFvibx61hy6fS1G7WN7rL1Zfhf4XlJpH9RZALFCPVB7/opXG5Mdwuk3jTXyrarjOgKA8anxzi8vLJHrikpkU06+zsJqGkfsxsoA9er3uHUWgBV8eukaefeCZToKHQrACKtnutrk5mN7Od0EACG2MC1D/rj9agoap3la/w4CYG2qGHBN4Wy5cd4S2cwDNwSoLozfNlbLjp4OoysDQPR7y9xF8sUVG3QUHrXDQ/LWfc8ZB0wA4GxZCYnyquK58vrZ82VdVq7OAiIOn0/+3Fovv26olg6XQ2cBxDJ1EOgfl15nTG8MJQrACJv6Ebu8Y/9z7MEBgBBTxY1fbb6ck8SnGfC45f/teUa63ezaAaxKHYh5fcl8edf8pTKPMc8YR83wkPyyoVL+2d4i3lG/zgKINnlJyfLHbVdLYRjHP6tVV/954Hk5MdivMwAw9t38krwio+h7dWExB7QxIY/fL4+0N8mvGqqkYcSuswBi1XfWbZNXFJXoKDQoACMsRnxeuXH/88ZDFQBAaKmutluXr9MRlNtOHDS+SAGwHjUG9K1zF8k75i42igLAhbQ6R4wOjL+0NYjTRycfEE0yExLlno2XyPrsPJ0Jj5/UlcuPa8t1BMDq1EQutdNXvcK9ixzRT02keaqrVX5eXynlQwM6CyDWbM8rlJ9tukxHoUEBGGFxS+l+eYKdiwAQciUpafLwxS+XNFuCzmBHd7t87OgeHQGwitykZHn3/KVG8ZefiZiOXrdL7m+slt831xqj+QCYm9rr/o01W2VReqbOhIfaI/72/c8ZnVsArCshLt7o8n3b3MVyUW6BzgIz82JPh9xdc1JODjFhAog1avjz3y651jg0FCoUgBFyv26slu9UleoIABAq6sbhnk2XyqV5RWMJiN3rkTfseVo6XYx+BqxCFX7fYxR+F0uqjTF7mDlVCP5FQ6U81FzPbk/AhFR33XsWLDOKLqHeo3Y2Rj8DKEhKkdfNnmfce6qdjkCwqeLNvzpb5IfVZdLoGB5LAogJ75y/RG5ZFropjhSAEVJHBnrlvQdfZIcWAITBDXMWypdXbtQRlDtOHpaHWxt0BCCW5SQmyXsXLKPwi5DpcjnlZ/WV8ufWejr9ABPYlJNvjPe/pmi20XkXCWpP4/eqT+gIgJVszS2Qt85ZFNGfQbAWdf/5p8B96L11FcYBRQDRLyshUZ6+4lUh2xFPARgh0xP4RfSWfc8aD0oAAKFVmJwif7n4GuPGAWP29XXJ+w/tNE7LAohd6ovSjfMWy/sWLjd2PwKh1uZ0yL115fK3tkaj+w9AeKif96rg8rKCYrmiYJax+iSSGkbs8qa9zzIZALCQ+Lg4uSJ/lnxw0QpZm5Wrs0B4qdUkakWJ2hGspp4BiG7/u3qzsTM+FCgAIyTUg5CbDr0oB/t7dAYAEErfX79dXl44W0dQD+Ju2PusNI7YdQZArFEP4P6jeJ58bPEqKWbcHiKgZnhI7qo4Kvv6unUGQDCpn/MrM7JlW16hbM8tkM05BaaZ8OAfHZX3HnpRDvHMA7CENFuC/L+SBcaozkgfPgFOUU1X368+IY+2N3HwHYhi67Jy5YGLrtJRcFEARkh8s/K4/LapRkcAgFB6bfE8uWvNFh1BubvmpPysvkJHAGLNxXmF8umla2VlZrbOAJHzfHe73FVxTFqdIzoDYLrmpqYbP+PVa3tuoWQnJulPzEV1Xql/7wHENjVp6+1zF8tb5i5i2hZMS00/+1rgd1Lt8JDOAIg2D227OiTPNygAI+ie6GiRW0r36wgAEEpq5+VfL75G8pKSdQaqI0utIGA/IxB7lqRnyqeWrpGrCop1BjAHp89n7AL9RUOluPn9A0yaKvhuys4z9vmqsc6zks0/0UEd9njjnmdkxOfVGQCxRk2XuWnBcnlDyQJJime/L8zPO+qX+xtrjDUlakQ0gOhy47wlcuvydToKHgrACKr6Ebu8Y/9zYvfyRQgAwuFbay+SV86aoyOocXzvPviCHBno1RkAsWB2Sqp8bPFqeW3xXGMkKGBWaifoVyuOyp7eLp0BcLqi5BSjs1eNdd4WeFc/36PNBw/vkt29nToCEEvUIZSbFi43xj1T+EU0anc65JtVx+WpzladARANVIPP05e/ShKD/LuHAjCCRp1+vXH/80bnFQAg9FQH3N0bLtYRlIda6uR/y4/qCEC0S463yXsXLpP3LlhmXAPRQH3BfrC5Vr5bfcLoDAasLDcpWS7KKZBteQVG4XdBWob+JDo90t4kt504qCMAsUJN1Pqv+UvlxnmLuedETNjR3S53lh8x9gQDiA7fXbdNri0q0VFwUABGUKh/iG45vl+e7GwZSwAAQiojIdEY/ay6KDCm2+2U1+9+Woa8Hp0BEM0uyi2QL67YIIvSM3UGiC7NjmG5reyQHO7v0Rkg9qXZEmR9dq5cnFdk7PFdmZEdM5MbBjxuef2ep6XX7dIZANEuPylZ3r9whbxpzkI6fhFz1O+r/604SjcwECVC0ehDARhB8evGavlOVamOAACh9pXVm+X1s+frCMp/H98n/+KLDRD1CpNT5JZla+VVs+bqDBC9fIGv27+or5Sf1FUYu9mAWJNis8nm7Hzj0M72vEJZnZkTs6P67zh5WB5ubdARgGiWGvjZ9fa5i+WmhSskIyFBZ4HYpBq21KS0fo9bZwCYkS1wD/3kZa80nokECwVgzJjas/jegy/yQAMAwkQ9XPvppsuELZgv2dXTKR86sktHAKKRKhi8dc4i+fiSVcaUAyCWnBzql1tKD0jjiF1ngOik9pKty8r99x7f9YHrYO8qMyPVyf/ugy8Y088ARC/1cF3t9/3wopVBfcAOmF2P2yX/U35Enu1q0xkAZvTpZWvl3fOX6mjmKABjRtQvj7fse5Z9AgAQJuqk8p+3v1zmpqbrDDx+v9yw9xmp56E6ELVWZmbL7Ss3GkUFIFbZvV65veygPM2DN0QRdThHjXHelJMfeOXJpXmzLNctp+411XOPmuEhnQEQjdRexU8sWS0Lo3wXOTATf2ypl29WHheX36czAMxkSXqm/OXia3Q0cxSAMW1qnNlNh16Ug+y0AoCwUfsw3zJ3kY6g/Ly+Un5YU6YjANFEHWr54KKVxgnXWB0ZCpxOffn+VUOV8XvLz1dxmJQ6aKj29469iiTL4lMZuNcEotuKjGz5/Ir1sjknX2cAaysfGpDPlO5nMg1gUn/cfrXxuysYKABj2r5ReVweaKrREQAg1DZm58l9W66gSHKaNqdD3rDnKXH4OL0KRJtrCmfLF1ZsYPweLOn57nb5/ImDYvd6dAaInPlpGXJxbqGxx3db4JWblKw/QatzRP7fnqe51wSiUGZConxk8Up529zFxuhnAC8Z9nnlzpNH5PGOZp0BYBbvW7hcPrlktY5mhgIwpuXxjhb5bOl+HQEAQi05Xo1+vtp4QIeXfPr4Pnmqs1VHAKJBTmKSfGHFennVrLk6A1hTw4hdPnlsr9QyVhZhVpCUItvyCozuXrXLd3ZKqv4EZ/vQkV2yq6dTRwCigTow/YbZ842H5xxoASb2h+Za+XZVqbj9fp0BEGlzUtPkH5deJ8E4ukQBGFPW6XLK63c/ZZwUAgCEx20rNshbGf18hj29XfKBwzt1BCAaXFVQLF9auZGuX0Ab9HrkE0f3yCHW6iCE1Lj9Ddl5RsFXjXVelZkTlAdKsU4dMlSHDQFEj7VZucZBQ/UOYHLKhvrlM8f3S7NjWGcARNpvt14p6wP37zNFARhTxuhnAAivG+ctkVuXr9MRFI/fL2/a96zU0TUFRAW1P/JTS9fIm+Ys1BkAp6iOiy+cOChPdrboDDAzatSp2ht2aofvlpx8SYyP159iMlx+n7x+99PGCGgA5pdis8mHFq2Ud89fysokYBoGPG757+P7ZF9ft84AiKRgPQumAIwpe8u+Z41l8QCA0FIP79TOopsWrqBL4yy/qK+UH9SU6QiAmV1dOFvuWLmREXzABPyBr+VfqzgmD7XU6Qwweeo+cUVmtjHOWRV9N+cUGF2/mL4f1Z6Ue+sqdATAzC7LnyW3r9wgJSlpOgNgOnyB+9GvVx6TB5u5HwUiTa1seeryV874UBMFYEzZ7WWH5G9tjToCAISC2sX29TVbZVNOvs7glB63S67f/S+xe1lFAJiZ2l3+qaWr5R3zlnCIBZikXzZUyQ+qTwhf0nEhapT+pux8o+B7ZUGxFDFaP2jUCMz/t+cZowsYgHkxYQYIDTX581tVpcYBRQCR8/PNl8u23AIdTQ8FYEyZw+eT+xqr5IXuDulyOQPxzB/Au/x+vlwBQIDqkHvnvCXytrmLJSMhQWdxui+VHZK/chAJMLU1WTly15qtsjAtQ2cATNYfmmvlropjFIFxBnWPuD23QHf5FsmcVDrdQkXt5X6uu11HAMzotcXz5LPL1jJhBgiR5wO/B28tPSAjQXjuD2B63jJnkXxx5QYdTQ8FYFiCd9Qf+IUVugKzOhFl93p0FBqDIf7vV510oTzZpQ4KeAJ/H0LFOEQQwr/H/DN0YfwzNDH1/7s6QDMeta9IFUkuyysyvsiqGONTKwjetv85TqICJqU6fVXH76eXrmHfJDADf26pl69UHOX3nYWp+8GN2XlGsVd1+a7MyGavZRi82NMhHzmyW0cAzCYnMUm+tHKjXFtUojMAQqXSPigfP7pb2pwOnQEQTmriz78um9kYaArAAAAgarzn4AtysL9HRwDMRH05UaPrL5rhiCIAY/7UUi//SxHYMmxxcbI+K0+2543t8V2XlctBmjDz+P1yw95npH7ErjMAzOSSvCL5yurNjLwHwkhN//zQkV1SZR/UGQDh9JutV8qG7DwdTR0FYAAAEBWe7GyRzxzfryMAZqL20nx97VYpSOKBHBBMf2ltkDvLj1AEjlFzU9ONYq96qcJGZkKi/gSRoHZwf7/6hI4AmIWaiKCmy7x17mJj2gyA8Or3uOXDR3bJicF+nQEQLu9esMz4HThdFIABAIDpqT3xb9jztLQ4RnQGgBmoUUQfWbRSblq4nNGkQIiovfd3nDxMETgGlKSkGR2+ao+ves9nd6Vp9Lpd8h+7/2WstQFgHsszsuSuNVtlWeAdQOSoXcA3H9snu3s7dQZAOMxPTZdHL32FjqaOAjAAADC9n9dXyg9rynQEwAzykpLlrjVbjK41AKGlisBfLjskfHmPLmm2BFmfnfvvPb6rM3P0JzAb1Wmvdm8DMAd1rPC/5i+VTy5dLQlxjMMHzEAdzL/l+H55rrtdZwCEw8PbXy5Lp3kQigIwAAAwtR63S66nIwMwlW25hfLNtVuNIjCA8GA8rfklx9tkU06e0eGrir6rMrOZjhAFaoaH5E17nxEfj8cAU8hISJA7V22WVxSV6AwAs1ATadShKbWmBEB4fGzxKvnAohU6mhoKwAAAwNS+WnFUHmyu0xGASHvTnIXyhRXr6cYAIkBNw1BTMWAOqri7MiNb7/EtMoq/qgiM6PKhw7tkFyMtAVNYm5Ur3153kTEyH4A5qWLSnScPy8MUgYGwWJWZIw9ue5mOpoYCMAAAMK1mx7C8fs/T4vH7dQZApKiixhdXbpDXz56vMwAi4ZuVx+W3TTU6QrjNTU3XBd+xXb7ZiUn6E0SjF3o65KNHdusIQCSpQ4afX75eEuM5ZAiYneoE/mLZIXm0vUlnAISKmif01OWvksLklLHEFFAABgAApnVL6X55oqNFRwAiZVZyqnxv/TajKwNAZKkv8GofsNoLjNDLTUqWi3IKjILvpflFdKXFEDXyWY1+ViOgAUSO2pf+v6s3y7WMfAaiivo9emvpAXmyk2c2QKjduWqT/L+SBTqaPArAAADAlE4M9ss79j9nPOgGEDnbcgvk2+u2SQ5dboBpqAdunzi6x+heRHCpQsSWnHxjpPP2vEJZlpFlnLpH7HmouU7+t+KojgBEQnFKqvxg/XZjvCWA6OMd9cunj+2T57rbdQZAKFxXNMdYkTBVFIABAIApvf/wTtnb26UjAJGgTpjevnID+34BE3L5ffL+QzvlyECvzmA6zt7juzknX5IYPxrzhn1euX7XU9LtduoMgHBTP2+/u26b5CUl6wyAaKRWdt18fJ/soAgMhExGQqLsuPLVU342QwEYAACYzs6eDvkw+9iAiFHdbh9atFI+vHjlWAKAKfV73PJfB3ZI/YhdZzAZp+/xvSSvSDITEvUnsIq7a07Kz+ordAQg3N42d7Hcunyd2OKYsQDEAnUwUe3U39fXrTMAgu2+LVcYh6emggIwAAAwFX/g1uTt+5+Xk0P9OgMgnFJtNrlrzVZ5eeFsnQFgZi2OEXnngR10Mk6gICnFeFiiCr6X588yRo7CunrdLnntrn8ZXcAAwksVfG9Ztk7eMW+xzgCIFXavV959cIdU2gd1BkAw3bRwuXxiyWodTQ4FYAAAYCqPtTfJ508c1BGAcCpKTpH/23CJrMzM1hkA0UAdmnrvwRcpaGlZCYlyUW6BscNXjXVemJahPwFE7qo4Jr9vrtURgHBR0xbUvt+tgZ/PAGJTm9Mh/3ngeelycTARCDb1nOahbVfraHIoAAMAANPwBW5LXr/7KWl0DOsMgHBZmpEl92y8RGYl0xkHRKPdvZ3ysaN7jD1sVpNis8nm7HzZllco23MLZVVmtrHbFzhbc+Ae8/V7nrbkvydAJM1OSZUfb7xUlqRn6gyAWFU+NCDvOfgCBxOBIFPfbp6+4lXGdKPJogAMAABM4+HWBrnj5GEdAQiX9dl58n8bLpacxCSdARCNHu9ols+dOGisU4hlqri7MiNb7/Etkk05eZIcb9OfAuenpsyoaTMAwkcdMvzxhksYvw9YyM6eDuNgojrkDyB4vr5mq7ymeK6OLowCMAAAMAXvqF+u3/2UscsQQPi8rKBYvrXuIoonQIz4ZUOVfL/6hI5ix9zUdF3wLZRL8oqMUaLAVFTZB+XN+56N+QMSgJmoUfzfW7dNMviZDVgOB/yB4HtjyQK5Y9UmHV0YBWAAAGAKDzXXyf9WHNURgHB4/ez5xpcHG6NSgZjyjcrj8kBTjY6ikyr4bsrOk005+XJlQbGxoxyYiY8f3SPPd7frCECoXT97ntwZuM9MiIvXGQBW84OaMvlFfaWOAMyU+o70j0tfoaMLowAMAAAizuX3yX/seko6XA6dARBqH1i0Qj62eJWOAMQS1eH4mdL98lRnq86Yn9pltS2vwNjhqzrGSlLS9CfAzB0f7JP/3P+88AAMCI+3zl0kn1++nn3sgMWpe1I1CvrFng6dATBTj1923aS/K1EABgAAEae6lFS3EoDwuHnpGnnPgmU6AhCL1OGqjx7ZLfv6unXGXNQ40K05+UaxV+3xXZKeqT8Bgu+9h16UAyb9dwGINTctXC6fWLJaRwCsrt/jlrfte05anaz7AoJBTdf4fyULdDQxCsAAACCi1APq1+z6l3S5nDoDIFRUD8Yty9fJf85bMpYAENOcPp/RdbGvr0tnIkeNml+Rka33+BbJ1tx8xoIiLNQ//zcd2qkjAKH04cUr5cOLVuoIAMZU2AfknQd2GPemAGbmP4rnydfWbNHRxCgAAwCAiLqvoUq+W31CRwBCRY3g+9LKjfLGSZ4UBRAbHEYReLfsD3P3o/qZsyYzR3f4FsqG7DxJjrfpT4HwofsXCD11yPAzy9bJO+dzyBDA+B5tb5IvnDioIwDTVZicIk9f/iodTYwCMAAAiBjV/fuqnU9Kj9ulMwBCQXXefXX1FnlN8VydAWAl4SoCL83I+vcOXzXeWY15BiJJjUC/6dCLOgIQChwyBDBZXyk/In9sqdcRgOn6+yXXysK0DB2dHwVgAAAQMez+BUJPFX+/sXarXFc0R2cAWJHb75c7Tx6WR9qbdGbmSlLSjO7ebbmBV16BFCSl6E8Ac3jPwRfkYH+PjgAEm+r8vWMKuwgBWJu6H3134Hdz6WCfzgCYjv9ZvVneMHu+js6PAjAAAIgIT+DG/7W7/yXtTofOAAg21ZHxNTp/AZzmTy318q2q40ZX8FTlJCYZ3b2qy1cVfuemputPAPNh9y8QWqr4+4UVG+StcxeNJQBgEpodw/Lmvc/KsM+rMwCmSk3dUAewLoQCMAAAiIiHWxvkjpOHdQQg2FTx987AF4LXT+JUKABrUYev7qkrl3+0NxvrGM5HdfRuyM6VjTn5RtF3eUaW8bMFiAZ0/wKh9emla+TdC5bpCAAm7y+tDfJlngcB07Y4PVP+evE1Ojo/CsAAACDsfIHbj9ftfkqaHMM6AyCYVHlG7WK7Yc7CsQQAjGPQ6zH2AlcODRjXmQmJkpeUJEXJqbIiI1vmpKbpPxKILnt7u+T9h+n+BULlE0tWy00Ll+sIAKbultL98kRHi44ATIV65vP8la8xJjRNhAIwAAAIu8fam+TzJw7qCECwfWHFennb3MU6AgDAWuj+BULno4tXyQcXrdARAExPv8ctN+x9RrpcTp0BMBX/t+FiubKgWEfji9fvAAAAYaFOnv2ioWosABB0qiOD4i8AwKoO9/dQ/AVC5N3zl1L8BRAUqnPxf1dvNjoZAUzdkYFefXV+FIABAEBYPd3ZKtX2QR0BCKb/nLeEcXwAAEvjoCEQGq+eNVc+tXSNjgBg5i7JK5J3BL7DApg6CsAAAMB07mus1lcAgum1xfPkM8vW6ggAAOuptA/KC93tOgIQLJfmFclX12yW+Dh69QAE16eWrpYFaRk6AjBZpYN94rvAhl8KwAAAIGwO9HXLsUmcUAMwNVcVFMtXVm/ioRwAwNJ+2VBprBsBEDyrM3Pku+u3SUIcj5EBBF9yvE2+vHIjo6CBKXL6fFIzPKSj8fGbGwAAhM39dP8CQbcpO1++ve4iHsoBACytxTEiT3S06AhAMMxLTZcfbbxE0mwJOgMAwbc1t0Cunz1fRwAmq2yoX1+Nj6dEAAAgLOpH7LKjp0NHAIJhbmq6fG/9NuPUNAAAVnZfY9UFx+ABmLzcpGT5yaZLJT/wDgChptYZqZ87ACavbJACMAAAMIFfN1aLn4dyQNBkJybJjzdeInl8SQYAWFyv2yV/bW3UEYCZUpNlvr32IqMDGADCISfw/fYzS9fqCMBknBjs01fjowAMAABCTj2Ue7StSUcAZko9lPvOuotkYVqGzgAAYF2/baoRl9+nIwAzdduK9XJRboGOACA8rp89Ty7JK9IRgAuptA+Kd9Svo3NRAAYAACH3++ZaHsoBQRIXeN25apNsyy0cSwAAYGEjPq882FynIwAz9a75S+WGOQt1BADhddvKDaw4AiZJPWuttg/p6FwUgAEAQEg5fT4eygFB9MFFK42T0QAAQIzRz0Nej44AzMRl+bPk5qVrdAQA4Tc/NV3eOX+JjgBcSNnQ+fcAUwAGAAAh9Uh7k/R73DoCMBNXF86WDy9eqSMAAKzNPzoqv2uu1RGAmViSninfWnuRxMepeTMAEDnvW7hc8pOSdQRgIhSAAQBAxPyBh3JAUKh9v19dvdkYAQ0AAER29HRI44hdRwCmKzMhUX644WLJSEjQGQCInHRbgnx08SodAZhIlX1QX52LAjAAAAiZfX3dE96IAJgc9TDu++u3B94TdQYAAPymsVpfAZgudbjwzlWbZF5q+lgCAEzgjSULZFlGlo4AnE+1fVBG9fXZKAADAICQofsXmDk1hu/ra7bK4vRMnQEAAOqQ4YG+bh0BmK73LFgm1xaV6AgAzEF9D/40O8mBCxryeqTT5dDRmSgAAwCAkGh3OuTZrjYdAZiujy5eKVcWFOsIAAAo9zVWnbfbAcDkbM0tkI8vWa0jADCXy/JnyaX5RToCcD7nm75IARgAAITEQy114hvlsRwwE9vzCuV9C5brCAAAKN1upzzR0aIjANNRkJQi31y7VWxxagg0AJjTfy9da3QDAzg/CsAAACBs3H6/PNzaoCMA06Eeyt21ZgtfdgEAOMtDzfXG/SaA6VFFX1X8VfebAGBmag/wq2fN1RGA8ag9wOOhAAwAAILunx3N0ut26QjAVBl7f9du4aEcAABnURNmHm6t1xGA6fjgohXG+GcAiAbvX7icg9HABKqGKQADAIAwebC5Tl8BmI6PLV4l23ILdQQAAE55pqtNOl1OHQGYqk3Z+fKBhSt0BADmtzg9U64rmqMjAGerG7aLf5w1fBSAAQBAUJUPDUjpYJ+OAEzVpflF8t4Fy3QEAABOx0FDYPoyEhLla6wYARCF1OQCfnYB43P5fdLiHNHRSygAAwCAoPoTI/mAactJTJKvrNrMF1sAAMbR6BiW/X1dOgIwVbetWC9zUtN0BADRY0l6plxTOFtHAM7WMGLXVy+hAAwAAILG4fPJP9qbdARgqm5fuVEKk9n7CwDAeP7QVCvnDrcDMBlqfOpri+fpCACiz0cWr+KwNHAeFIABAEBI/bOjWexer44ATMUbSxbIK4pKdAQAAE6nRtv9va1RRwCmoiQlTe5YtVFHABCdVBfw1QXFOgJwuvpxCsBxowH6OqS8o345NtAnxwf7pMkxLP1ut/4EAABzSoyPN74oq4LMysxsncVEbtz/vPG7HsDUzE1Nlz9uv1rSbQk6AwAATvfXtkb5UtkhHQGYLNUr97PNl8u23IKxBABEsdLBPnnH/ud1BOCUi/MK5aebLtPRmJAXgGuHh+SBphr5Z0eL2L0enQUAIHqoL8xvn7dYPrtsHaNmJlBpH5Q37X1GRwAmyxb4uXLflitkQ3aezgAAgLOph73qoS+AqXnLnEXyxZUbdAQA0e+dB3bI0YFeHQFQVBPT45ddp6MxIRsBPeBxGycz37j3GfljSz3FXwBA1FInpX7XVCu/b64dS2Bcfwr8vgcwde+av5TiLwAAE6iwD1D8BaahOCVVPrV0jY4AIDbcOG+xvgJwSrvLYaxMOV1ICsBV9kF5875njfE8/vBMmAYAIOT+0Fynr3A2p88nj7U36QjAZM1Py5APL16pIwAAMJ6/trL7F5iOL63cKBkJrBgBEFteUTRHZiWn6giAomqxjSPDOhoT9AJwq3NEbjq8U9qdDp0BACA2qN9xGN8zXW0yxLQPYErUSPk7V22S5HibzgAAgLN5/H4OGgLTcP3seXJ5/iwdAUDsUGuU3jJ3oY4AnNLkCGEBWLUXf/rYPulzu3QGAIDYMZvThef193a6MoCpevOchbIlJ19HAABgPM91t0u/x60jAJNRkJQin122TkcAEHvePGcRh6mBs3S4zmzMDWoB+K6KY1I21K8jAABiy2Wcnh5Xl8spe3q7dARgMoqSU+STS1brCAAAnM9fWxv0FYDJunX5OslOTNIRAMSenMDPuFfPmqMjAMrZk5mDVgB+OHBDrl4AAMSq67ixHNdjHc3s/Aem6HZjH1uijgAAwHjUQcOdvZ06AjAZF+cVyiv57grAAt4xb4m+AqCEpABcYR8wun8BAIhVaoTWpuw8HeF0j7Yx/hmYipcVFMtVgRcAAJjY3wL3mRw0BCYvMT5ePr98vY4AILatzMyWVZk5OgLQHuwR0INej9x8bJ+x/xcAgFj1iqISiY+L0xFOKR8akEr7oI4AXIjaUfTZ5exjAwBgMh5pb9JXACbjXfOXyqL0TB0BQOx73ex5+gpARzA7gNUpzM+VHpBmx7DOAAAQmxj/PL6/0/0LTMn7Fy6XuanpOgIAAOdzuL9H6oaHdATgQkpS0uQDC1foCACs4bXF84zpBwBEOl3OM6bnzOjfjHvrKuTFng4dAQAQmxj/PD5f4Ibi8Y4WHQG4kPmp6fKuBUt1BAAAJvJYe7O+AjAZty5fJyk2m44AwBpyEpPkivxZOgKszTvqlx63S0czKADv7u2Ue+srdAQAQOxi/PP41L1At9upIwAX8vkV640R0AAAYGLq4dWTnRw0BCbr8vxZcnXhbB0BgLW8bvZ8fQXg9D3A0yoAtzpH5NbSA2e0EgMAEKsY/zw+un+ByVMP5S7jVDIAAJOyq6dT+j1uHQGYiDqs/N/L1uoIAKznyoJZkpuUrCPA2tpP2wM85QKwy++TTx/bx404AMASGP88PrffL890tekIwETUQ7lPL12jIwAAcCH/5KAhMGlvKlkoS9IzdQQA1pMQFy+vpnkDMMyoAHxXxTEpG+rXEQAAsY3xz+Pb2dMhdq9HRwAmckPJAlmakaUjAAAwEafPJ89y0BCYlHRbgnx48UodAYB1XV/MGGhA6ZjuCOiHWxuMFwAAVsH45/Ex/hmYnDQeygEAMCXPdrfJiM+rIwATee/CZZLP2FMAkDVZOTInNU1HgHV1uZz6agoF4PKhAaP7FwAAq2D88/jUOogXetp1BGAiNy1cbvwsAQAAk/OP9mZ9BWAiRckp8s55S3UEAHhZwWx9BVhXj9ulryZZAB70euTm43uNB74AAFgF45/H90K3Gv9MVwZwIYXqodz8JToCAAAXop4/7e7t1BGAiXxiyWpJsdl0BAB4eSEFYKDXM4UCsH90VD5XekBaHCM6AwCANTD+eXz/7KArA5iM9y9cLsnxPJQDAGCynupsFbffryMA57M0I0v+o3iejgAAypacfMlJTNIRYE1T6gD+SV2FvNjToSMAAKyB8c/jc/jU+GfuC4ALKUlJkxtKFuoIAABMhioAA7iwjyxaybQqADiL+rn4soJiHQHWNOBxi2901LiesACsxu78tL5CRwAAWMd1sxj/PB51KMzpYyUEcCEfXLRCEuMntW0FAAAE2L0e2dvXpSMA57MsI4sxpwBwHi8vKtFXgDWpqc59egz0eZ9KtTpH5NbSA8YfDACA1VxXxPjn8Tzb1aavAJzP/LQMed3s+ToCAACT8Vx3u3gY/wxckNr9y2FlABjfJXmFksp+dFjcqTHQ4xaAXX6ffPrYPun3uHUGAADrUOOfNzL++RxqfAjjn4ELUyP5bDyUAwBgSp7hoCFwQWuzcuVKxpsCwHklx9vk0rwiHQHW1DtRAfhrFcekbKhfRwAAWAvjn8e3v6/b2CMB4PzmpabLq2YxQQAAgKlQK0Z2ctAQuKCPLV4lfFMFgIldQgEYFneqAzhuNMC40v7cUi93lh/REQAA1nPflitkc06+jnDK1yuPye+aanUEYDx3rNokbyxZoCMgPNTank6XU5odw9Lldsqw1ytOv0/cjFIFECWq7IPyWHuTjgCMZ1N2vvx66xU6AgCcT8OIXa7f/ZSOAOv572Vr5V3zl55ZAC4fGpB3HthhjIAGAMCK1Pjnpy5/JR3AZ1E3C6/a+YS0OR1jCQDnmJWcKv+49BWSGD/ukB0gqFSxRI1LPdjfLaWDfWL3evUnAAAgFv1k46VyaT5dbQAwGa948QnpcPEMC9b0ngXL5Oala14aAT3o9cjNx/dS/AUAWBrjn8dXPtRP8Re4gP+av5TiL0JKFXnVJIY37Hlabtj7jPyo9qTs6e2i+AsAQIxbkZEtl1D8BYBJ255XqK8A6zljB7AaGXZr6QFpcYwYSQAArOqVRezuHI/qMgNwfjmJSfKmOQt1BASXOqT7q4YqefWuJ41x/LXDQ/oTAABgBe9buIzdvwAwBdtyC/QVYD1DXo/xbhSAf1JXITt7OowEAABWtSAtQzay+3dcz3W16ysA43n7vMWSarPpCAie/X3dcsPeZ+V71SdkwOPWWQAAYBVzUtPkFRxUBoApuTiPqQmwrn8XgI8M9MpP6yuMAAAAq1KnqT+7fB2nqsfR5XJKpX1ARwDOlhQfL2+ds0hHQHCoKU0/ri2X9x/eKY0jdp0FAABW8575y8TGmiIAmJKi5BSj0QOwon8XgO+pLTceLgAAYFXqq/Qty9fJFfmzxhI4wws9HcKdAnB+r5k1V/KSknUEzJzH75dbTxyQn9TxXQ0AACtT95ivL5mvIwDAVLAHGFY16NEF4EP9PcYFAABWNC81XX608RL5z3lLdAZne5E1EcCE3jZvsb4CZs7p88knju2VJzpadAYAAFjVjYH7zOR41owAwHRsys7TV4C1DJ7qAF6TlWNcAAAQqzISEiQrIdF45SQmyfKMLHnd7Pny/fXb5W+XXCOX0/l7Xt5Rv+zp7dIRgLNtycmX1ZncTyM4VOfvR4/ulp0cvAEAwPJU4ffNrBkBgGlbm5WrrwBrGfZ6jGlicX1u1+ivGqrkQF+39Hnc+uPwSYiLkzRbgo7CLy0hwfj/IRLiJU4yEhJ1FH7JtviIniJUhZhISQr8706xRe5/e0bgn/n4CP1zlxAfH/h3LnL/29W/7wlx8ToKr/jAX/KI/jsX+OcuOfDXP1KyEpP0VfglBf6eR/LfOUyfuj9476EXdQTgbN9bv12uKZytI2Bm/qf8iPyppV5HAADAyt5YskDuWLVJRwCAqVLLdK54/rF/d0MCVvLiVa+VuNEAHQMAAJzh+9Un5JcNVToCcLrZKanyz0uvi9ihLsSWB5pq5BuVx3UEAACs7o/br5YVGdk6AgBMxwcO72SyHSzJeF6lrwEAAM7xAmNIgfN6Q8kCir8IiprhIfle9QkdAQAAq9uck0/xFwCCgDHQsKohr4cCMAAAGF+nyynV9kEdATidKvy+YfYCHQHT5xsdldtOHBS3368zAADA6m6ct0RfAQBmYg0FYFiUGn1OARgAAIxrT2+nsS8FwLkuzSsyRkADM/XbphopG+rXEQAAsLpZyany8sLZOgIAzMTarBx9BVgLHcAAAOC89vaxIwU4nzeW0P2LmVNfyH5eX6kjAAAAkbfOXSQ21owAQFCoQzWFySk6AqxjxOelAAwAAMa3v69bXwE4XX5SsryssFhHwPSp4u+Ax60jAABgdQlx8fL/OGgIAEG1JpMuYFiP0+ejAAwAAM7VOGKXdqdDRwBOd33xPOPhHDATXS6n/K6pVkcAAAAiVxXMMg4bAgCCZ1lGtr4CrMPlpwAMAADGsYfxz8B5vXb2PH0FTN+99RXGFzIAAIBT6P4FgOBblpGprwDroAMYAACMi/HPwPiWpGfKCk4PY4ZanSPyl9YGHQEAAIgUJKXIZfmzdAQACBY6gGFFdAADAIBzjAZeFICB8b22mO5fzNyPak+Kx+/XEQAAgMgbSuaLLS5ORwCAYJmfmi7x/HyFxdABDAAAzlFlH5Ret0tHAE5RXxdfUzx3LACmqX7ELv9ob9YRAADA2H3mGxj/DAAhkRgfL8XJqToCrMFBBzAAADjbfvb/AuPalJMvJSlpOgKm54c1ZeIbVbMWAAAAxmzNLTA61AAAoTGXn7GwGBcdwAAA4GxHBnr1FYDTvWYW3b+YmROD/fJ0Z6uOAAAAxrxhNt2/ABBKc1M5zA1rcdIBDAAAzna4v0dfAThF7Qu6unC2joDpubumzNizDgAAcEpyvI37TAAIsYLkFH0FWAM7gAEAwBlaHCPS6XLqCMApG7LypJAvjJiBQ/09squ3U0cAAABjri4sloyEBB0BAEIhPylZXwHW4KIDGAAAnO7wAN2/wHiuLqIrAzPzg+oyfQUAAPCSV7FmBABCjgIwrMbl81MABgAAL2H8MzC+axjLhxlQnb8csAEAAGfLSkiUy/Nn6QgAECr5SUz0grX4ZZQCMAAAeMnhgV59BeCUFRnZMi81XUfA1P20rkJfAQAAvOQVs+ZIUjyPZwEg1OgAhtX4RykAAwAAbcjrkdrhIR0BOOXldP9iBnb3dhr7fwEAAM72asY/A0BYUACG1YwGXhSAAQCA4chAr3E6DMCZLi9gLB+m7166fwEAwDgKk1Nka06+jgAAoZSRkMjEBViKjw5gAABwyvGBPn0F4JScxCRZk5mjI2Bq9vR20f0LAADGdV3RHImPi9MRACCU1E/b7MD3e8AqRtkBDAAATikdpAAMnO3S/CIezGHaflJXrq8AAADOdDVrRgAgrLISEvUVEPvoAAYAAP9WNtSvrwCcclk+458xPez+BQAA56O60LYw/hkAwiqTAjAsRK35owAMAACk1TkivW6XjgAoqu/30ryisQCYInb/AgCA87mqoFhsTJkBgLCiAAwrGQ28KAADAAApG6T7FzjbyswcyU9K1hEweXvZ/QsAACbwcsY/A0DYZbEDGBbCCGgAAGA4wfhn4Bzbcwv0FTA17P4FAADnk2KzySVMmQGAsKMDGFYySgEYAAAopYN9+grAKVsoAGMa9vR2yUG6fwEAwHmoFSOpNpuOAADhQgEYVuIPvCgAAwBgcWonxElGQANniI+Lk805+ToCJo/uXwAAMBHGPwNAZGQlUgCGdajnWhSAAQCwuCbHsAx6PToCoKzIyOZ0MKbsQF83u38BAMB5qYexl+XP0hEAIJz4jg8rSaAADAAAytn/C5zjIsY/Yxp+Wl+hrwAAAM61MiNb8pOSdQQACKcsCsCwEArAAABAquyD+grAKVspAGOK1C51tf8XAADgfOj+BYDIoQMYVpIQF08BGAAAq6MADJwpLvDamJ03FgCTdG8d3b8AAGBil+cX6SsAQLixAxhWYqMDGAAAVFIABs4wLy1DchKTdARcWIV9QHZ0t+sIAADgXBkJCbIuO1dHAIBwowMYVkIHMAAAFjfs80qLY1hHAJT1WTyYw9T8rK5SRvU1AADAeC7JKzIexgIAIiOLg96wkIR4OoABALC0avsgRQvgLHRmYCrqhofkqa5WHQEAAIyP/b8AEFkZtgSJj1NLn4DYxwhoAAAsjvHPwLnW0QGMKfh5Q6X4RzlKAwAAJnZpHvt/ASCSVPE3zZagIyC22RgBDQCAtVVRAAbOkBQfL8szsnUETKzZMSz/aG/WEQAAwPjmp2VIcUqqjgAAkZISb9NXQGxLoAMYAABrqx6mAAycbkVGtlEEBibjlw1V4qP7FwAAXMDWnHx9BQCIpEGvW18BsY0CMAAAFlc7PKSvACgrM+n+xeR0uBzy97ZGHQEAAJzfRbkF+goAECkjPq+4/X4dAbEtVe281tcAAMBihrwe6XW7dARAWZaRpa+Aid3XUM3DAwAAMClbcigAA0Ck9Xvo/oV1pNpsFIABALCqhhG7vgJwCvt/MRnq8MyfW+t1BAAAcH7zU9PZ/wsAJjBAARgWkkYHMAAA1lVHARg4Q1zgRQcwJuO3TTXi9Pl0BAAAcH5bGf8MAKYw4PHoKyD2MQIaAAALowMYONPslDTJTEjUETA+u9crDzbX6QgAAGBiFIABwBwYAQ0rYQQ0AAAWRgEYOBPdv5iMh1rqjB3qAAAAk7GV/b8AYAqDFIBhIYyABgDAwuqHKQADp1tKARgX4Pb75YGmGh0BAABMbFZyKvt/AcAkut0ufQXEPgrAAABY1Gjg1eigAAycbkFahr4CxvfX1gbpcjl1BAAAMLF12bn6CgAQaZ0uh74CYh8joAEAsKgOp0McPp+OACgLUtP1FXAu3+io3NdYrSMAAIALW52Zo68AAJHGYV5YCQVgAAAsqsU5oq8AnLKQDmBM4ImOFml2DOsIAADgwtbTAQwAptHlpgAM62AENAAAFtVCEQM4Q1ZCouQmJesIONd9jVX6CgAA4MLiAq9VdAADgGnQAQwrSaUADACANdEBDJxpYXqmvgLOtaO7XcqHBnQEAABwYer+MjMhUUcAgEjyjvqlz+PWERD7chKTKAADAGBFbQ4KwMDp2P+Lifyige5fAAAwNWvo/gUA0+h2ucQ/OqojIPZlJSZK3GiAjgHEiHanw+hUKRvqlx63S1x+n/4EiF1J8TYpSEqWLTkFct2sEkkOxDi/mw69KPv6unUE4IOLVshHF6/SEfCSQ/098u6DL+gIAABgcj61dI28d8EyHQEAIunIQK/814EdOgJiW1J8vBy4+nUUgIFY0jBilx/UlMkzXW2caIKlzU1Nl7s3XCxLGOl6Xq/e9aS00AUM/NsdqzbJG0sW6Ah4yUeP7JYXejp0BAAAMDnqO+lVBcU6AgBE0iPtTXLbiYM6AmJbYXKKPH35qxgBDcSKP7fUyw17n5GnOlsp/sLymh3D8sHDO8Xu9egMTqd+RnQ4nToCoBSnpOor4CWV9kF5keIvAACYhsUcSAYA01DPCgGrUPt/FQrAQJRTC+y/Un5E7gy83H6/zgLodDnlN001OsLpOgJ/bdTPDgAvmZ1MARjn+mVDpXCsDgAATJVaSTQnJU1HAIBIYwoerIQCMBAj7qo4Jn9sqdcRgNM93tGir3C6Vic3vcDZZvOADmdRPyuf4PcIAACYhkXpGRIfF6cjAECk0QEMK8mmAAxEv9811VL8BSZQPzwkDp9PRzily+XQVwAUdTIyxWbTETDmN4014mOtBgAAmIYl6Vn6CgBgBhSAYSV0AANRTo2t+G51qY4AjEc9tu/3uMcC/FuXy6WvACjs/8XZBr0e+Utrg44AAACmZlFahr4CAESay++TbjfPwmAdWQmJxjsFYCBKfb/mBDt/gUlIiedX3dnoAAbOlJ+Uoq+AMQ8218qIz6sjAACAqSlJZb0IAJhFs2NE/Ex3goXQAQxEsWMDvfIkO+mAC1I7l07tPMBLujj1CJwhPylZXwFiHLD7Q3OdjgAAAKauJIUCMACYRd3wkL4CrCFHP+eiAAxEGXVW6TtVJ4x3ABNTxV9VBMaZut1OfQVAyaMAjNM82t4kXS5+TgIAgOmbTQEYAEyjenhQXwHWUJQ8NumOAjAQZZ7oaJbDAz06AjCRPLp/x9VNYQM4Ax3AOEUdsPtNY/VYAAAAMA22uLh/P3gFAERe7bBdXwHWMCs51XinAAxEEY/fL3fXnNQRgAuhq298dLYBZ+JnBU55vrtdahgPBgAAZkA9dFVFYACAOTACGlZTSAcwEH1+01QjTY5hHQG4kNxEijpnU7sth7weHQFQ6ADGKfc1VOkrAACA6ZmdMtZ1AwCIPP/oqNSP0AEM60iOt0lWQqJxTQEYiBJ9bpf8vL5SRwAmg66+c6n9v+wQB86UncC4eIiUDvbJoX7WbAAAgJmZRQEYAEyj2TkiLr9PR0DsO30NBQVgIEr8uK5c7HTtAVOSm0RR52x9bre+AnBKZuLYyUhY26/o/gUAAEHAJCoAMI8a+6C+Aqzh1PhnhQIwEAXUnoI/tzToCMBk5fHF+xwDXgrAwNkybAn6ClalVmw83dWmIwAAgOnLTeQgMgCYxcmhAX0FWMOs5JcmkVAABqLAd6pPiHfUryMAk0UH8LkGPBSAgbNl6N0osK77G6uN3VAAAAAzlUMBGABM4+RQv74CrGEWHcBA9NjX1y07utt1BGAq6AA+Vz8FYOAMyfE2SYrnltjK1MGYv7c16ggAAGBmcjiIDACmUUYBGBZTSAcwEB1UJ8p3qkp1BGCqcpMoAJ+NDmDgTBkJjH+2ut8114rD59MRAADAzORwEBkATKHH7ZIul1NHgDWwAxiIEn9ra2RMBTADeYzeOseAx6OvACiMf7Y2l98nDzbX6QgAAGDmshO5vwQAM6D7F1ZUnEIHMGB6Tp9P7qkr1xGAqYqPiwt88aYAfDY6gIEzpdps+gpWpA7b9bpdOgIAAJi5TA4YAoApnBykAAzrmZOSpq8oAAOm9cuGKml3OnQEYKpU8VcVgXEmdgADZ0qKpwBsVWrVxgNNtToCAAAIjhTuLwHAFE7QAQyLSbHZpIAR0IC5dbqc8uvGKh0BmA7GP49v0MsIaOB0SfHcDlvVs93tUjc8pCMAAIDgUA9fAQCRNRp4HR3oHQsAi5ibmi6nt0PxxAswoR/WlInD59MRgOnIS0rWVzjdMAVg4AzJdGhY1q8bOGwHAACCj/tLAIi8phE7635gOaePf1YoAAMmU2EfkEfbm3QEYLpyEykAj2fE59VXABQ6gK3pcH+PHOE0OAAACLKEuHixsYoIACLuMN/3YEHzUtP11RieeAEm852qUmMnHYCZyU1iBPR4RpguAJwhmQKwJd3XWK2vAAAAgifFxr0lAJiBOvQLWM2cVDqAAdN6rrtd9vR26QjATOTRATwuBx3AwBkSKQBbTsOIXZ4P3HMBAAAEWxLjnwHAFNj/CytSO4BPxxMvwCR8o6Pyg+oTOgIwU+wAPpd31C9uv19HABSbMKLPau5vrGbaCgAACAnGPwNA5A16PVI3YtcRYB0UgAGTerC5TmqGh3QEYKYYAX0uxj8D54rjIZ2l9Lpd8ve2Jh0BAAAEF4fMACDy1Phnfh7DatTTrTkpjIAGTMfu9chP6sp1BCAY8pNS9BVOGfEy/hmAtf2+uVZcfg7DAACA0GDeEgBE3l5WLMKCCpJTJMV25ioKCsCACfyhuU76PW4dAQiG+WeNvIDqAKYADMC6nD6fMXEFAAAgVEbpOAOAiNvTRwEY1rMoLUNfvYQCMGAC+/u69RWAYNiYnSeFyXQAn83BCGgAFvbXtgYO3AEAgJCi/AsAkdXjdkmNfVBHgHUsTs/SVy+hAAyYQAL7B4GgUf82fWrpmrEAZ3Az9hQ4B7+BrUE9jP1dU+1YAAAAECI+OoABIKLU+Gd+EsOKFqfTAQyY0lvnLpJ4isBAUHx62VrZnJOvI5zOw8MIABa1o7td6kfsOgIAAAgNP9+5ACCi9jL+GRZFBzBgUlcWFMvPN10m1xXNkaUZWTI3NX3cV25SsmQlJE75lWZL0H8mIHapf9bvWrNF3jV/qc7gbF6/X18BOMUzyr8XVnB/Y7W+AgAACB2n30fnGQBEkOoABqxoSXqmvnpJ3GiAvgaAcwz7vNMaYaQKTSOB/+x02L1e8U/jK9PYn3N6I27tXs+0/pyewJ9zuntV7YG/PtM5HTz25wzvX9sZ/e+c5l9bd+DP6ZzEnzM/KVm25RXK/ytZYBSBcX7Pd7fLx4/u0REA5ZWz5si31l6kI8SiKvugvGnvMzyMBQAAYbH3ZddLqs2mIwBAuNQOD8kb9jytI8A6shOT5IUrX6Ojl1AABgDAIp7uapObj+3VEQDlZQXF8sMNF+sIseiLZYfk722NOgIAAAitZ694tXFQGQAQXr9qqJLvVZ/QEWAdm3Ly5ddbrtDRSxgBDQCARTACGjiXi38vYlqv2yVPdLToCAAAIPTUJDUAQPg9192urwBrGW/8s0IBGAAAi/Cy6xQ4h8s/vfH2iA6/b67l7zEAAAirES8FYAAItwGPW44N9OoIsJbFFIABALA2D1sfgHNQHIxdapf8n1rqdQQAABAedAADQPi90NMhPp57waIoAAMAYHE+Rt0C53D6KADHqsfam6TH7dIRAABAeAx5PfoKABAuOxj/DAtblp6lr85EARgAAIvwCSchgbPZGdEXk9RPu9821YwFAAAAYdTjcuorAEA4qJVnO3s6dQRYS35SshQmp+joTBSAAQCwiLjA/wE4U7/Hra8QS/b0dkqVfVBHAAAA4dPNBBIACKs9vV1MX4BlrcrM0VfnogAMAIBFUP4FzqV2ADMGOvb8tpHuXwAAEBmsoACA8Hq8o0VfAdazOosCMAAAlhcfRwkYGE8fXcAxpX7ELjt7Gf8FAAAio9vNCGgACBeP3y/PdbXpCLCelRnZ+upcFIABAABgaQMUgGPK75pqxT/KznMAABAZPS46gAEgXNTh30HGP8PC6AAGAACMgAbOo8/DQ7pYMezzyqPtjToCAAAIPzqAASB8nmT8MywsKyFRZqek6ehcFIABALAIRkAD46MDOHb8tbVB7F6vjgAAAMKvw+VgGgkAhIHL75Pnuhn/DOtalZUzYcMPBWAAACyC8i8wvg4XXRqxQD1mfbC5biwAAACIELffL53cXwJAyL3Q3cEBYFjaqgn2/yoUgAEAsIg4OoCBcbU7HfoK0WxnT4fUj9h1BAAAEDnNjmF9BQAIlb+1sf4H1qY6gCdCARgAAIuw0QMMjKvVOaKvEM1+31SrrwAAACKriQIwAISU2rf+Yk+HjgBrWpVJARgAAAQkxvNrHxhPGwXgqNfoGJadvZ06AgAAiCwKwAAQWo+1N4uPfeuwsOzEJFmQlqGj8fEkGAAAi0imAAyMq40R0FFPdf/6+fIPAABMotnBAUMACKVHGP8Mi9uYnXfBWY88CQYAwCKS4m36CsDpBjxuGfZ5dYRoMxL4e8fuJwAAYCZNDru+AgAE24nBfqm0D+oIsKYN2Xn66vwoAAMAYBF0AAPn104XcNT6e1uj2L0eHQEAAERezfAQ00kAIEQ4AAxQAAYAAKdhBzBwfnXDQ/oK0UQ9Vv19c91YAAAAYBJOn489wAAQAmoC1KPtTToCrMkWFydrsnJ0dH48CQYAwCJSGAENnJfq0kD02dfbRfEeAACYUhXjSQEg6B5ta2ICFCxvZWa2pNkSdHR+FIABALCIJDqAgfOqpYgYlf7K6C8AAGBSFIABIPgeamECFLAxO19fTYwnwQAAWEQSHcDAedWNUACONnavV57uatURAACAuVTaB/QVACAYDvb3BH62crgGmMz+X4UCMAAAFpFMBzBwXnXDdvGPqo2yiBbPdLUa+/UAAADMiCIFAATXg821+gqwto0UgAEAwOnSEi68GwKwKpffJ83OER0hGuzo7tBXAAAA5tPsGJZB9lQCQFB0u53ydFebjgDrmpWcKsUpqTqaGAVgAAAsIjneJol0AQPnxZ626OEd9cvu3k4dAQAAmI+aLXN8oHcsAADMyB+a68Tj9+sIsK6tuQX66sJ4CgwAgIVkJCTqKwBnOzHYp69gdieHBmSIjhoAAGByRwe4vwSAmVKrfx5qrtMRYG3bKAADAIDxpNsYAw2cz4nBfn0FsyulWA8AAKLAUTqAAWDG/txaL/0et44Aa9ueV6ivLowCMAAAFpJJBzBwXqoDWI3qg/mVUawHAABR4Phgr/hHucMEgOlSP0N/11SrI8Da5qamS0lKmo4ujAIwAAAWkp5ABzBwPoNejzQ5hnUEM2sc4e8TAAAwP7vXK7XDQzoCAEzVk50tfE8HtKl0/yoUgAEAsJAMRkADE2IPcHTodDv0FQAAgLkdZgw0AEzbfQ3V+grAVPb/KhSAAQCwEEZAAxNjt2x06HOz/wkAAESHfX1d+goAMBW7ejqlbIj1P4ASF3hdRAEYAACcTzoFYGBCh/vp0IgGPnbpAQCAKLG3t4s9wAAwDffWV+grAIvTM6UgKUVHk0MBGAAAC8lKpAAMTESdLrZ7PTqCWcWro68AAABRoN/jlnL7gI4AAJOxs6dDDvf36AjAVPf/KhSAAQCwkNzEJH0FYDyqO+MQXzJNLzcxWV8BAACY3+6eTn0FAJiMe+ro/gVOd1EuBWAAADABiibAhe3v69ZXMKs5qWn6CgAAwPz2sAcYACbtxZ4OOTbAeibglIS4eNk2xf2/CgVgAAAsJDeJDmDgQvZRADa95RnZ+goAAMD8jvT3isvv0xEAYCL31JbrKwDK5pw8yUyY+lo/CsAAAFgIHcDAhVXYB2SQPcCmdsk0dt8AAABEiir+7umlCxgALuS57nY5PtinIwDK5QXF+mpqKAADAGAhdAADF6b2AO/jAZ2pbcstnNbpVwAAgEh5pqtNXwEAxqO+i/+g+oSOAJxyZf4sfTU1FIABALAQOoCByXmhp0NfwYxSbDZ585yFOgIAADC/Z7vaxDc6qiMAwNkebm2QmuEhHQFQ5qSmyeL0TB1NDQVgAAAsJCk+XjISEnQE4Hxe6O4wTh/DvP5z/hK6gAEAQNTo97jlyECvjgAAp1Oj8u+tq9ARgFOuzJ/e+GeFAjAAABaTQxcwcEHdbqeUDfXrCGZUkJQity5fpyMAAADzU13AAIBz3ddQLR0uh44AnHJlwfTGPysUgAEAsJi8JArAwGQ8392ur2BWr5s9X94yd5GOAAAAzI09wABwrl63S37dWKUjAKeo9Vdbcwt0NHUUgAEAsJii5BR9BWAiFICjwxeWr5c3lizQEQAAgHk1O4aZMgMAZ7m79qTYvV4dAThle26hJMfbdDR1FIABALAYCsDA5FQMDUi7kxFUZhcfFyd3rNokt63YYOw5BwAAMLNH25r0FQDgxGC//KW1QUcATndF/vTHPys8IQEAwGJmJafqKwATGQ28/tXZOhbA9N46d5H8cdvVck3hbInTOQAAALP5R0ez+EbVnSYAWJs/8LPwrspjxjuAM6nnGlcVFo8F00QBGAAAi6EDGJi8f3Y06ytEg0XpmfK99dvldxe9TN48Z6FkJiTqTwAAAMxB7brc09upIwCwrr+2NcqxgV4dATjdhuy8GTfxUAAGAMBi6AAGJq90sE8aHcM6QrRYk5Ujt6/cKM9c8Sr5ycZL5QOLVsiWnHzJSUzSfwQAAEDkPNbOIUMA1qZ2/v5fzUkdATjbtUUl+mr64kYD9DUAALAAVcz6j13/0hGAC/nY4lVGARGxwe71SLNjRPo9bhkKXHv8fhnxefWnQPSrH7HL/Y3VOgIAmFGqzSbPXvFqSbMl6AwAWMvXK4/J75pqdQTgdGr88z8vu05KUtLGEtNEARgAAItx+X2y7dlHjP2mAC5MjRX+28XX6AgAzEvtlHzngR3G9AIAgLn9z+rN8obZ83UEANah7lX/M3DPyu5fYHyrM3PkD9tepqPpYwQ0AAAWkxxvk2zGoAKTVjc8JJX2QR0BgHn9qPYkxV8AiBJ/bK7TVwBgHerA4v+UH6H4C0zgFUEY/6xQAAYAwIKKklP0FYDJ+Htbo74CAHM63N8jv2yo0hEAwOyOD/ZJ2VC/jgDAGn7ZUCnlQwM6AjCeaygAAwCA6Zo9wx0SgNWoArDb79cRAJiL2mf9uRMH6KQAgCjzp5Z6fQUAsa9hxC4/ravUEYDxLM/IkoVpGTqaGQrAAABY0JxUCsDAVPR73PJMV5uOAMBcvlpxVNqcDh0BAKLFP9qbxe716AgAYpc6pviV8qPi8vvGEgDGdW2Qun8VCsAAAFjQnJR0fQVgsv7cSocGAPN5rL3JKCAAAKLPiM8rjwR+jgNArPtjS53s6+vSEYDzubaQAjAAAJgBOoCBqdvX2yWNI3YdAUDkdbgcclfFMR0BAKLRg811RmccAMQq9T36O1WlOgJwPssysmRp4BUsFIABALAgCsDA1KkHc39paxwLACDC1L7fL5w4KIOMDgWAqFY7PCQ7utt1BACxxafuWcsOicPH6Of/3959x8ldVosfPzszO9tme++9ZHfTs0kIXcoVEfV6sYCiFAu9twsKNlAEG4p41YsVu9j9ISqd9J5NsimbspvtvffJb55vnnghErJlyne+83m/XvOaOWeCf1wum2ef8z3nAKdySUau/uQdFIABAAhBOVGMgAZm45nmw+wsAmAKTx3eJxt6OnUEAAhmP/T8TAcAK/reoT2yva9bRwBOxhYWJhdl5OjIOygAAwAQgmLsDkkId+oIwHT1jI/Jn1vY0wYgsHYN9MqTB+t0BAAIdpt6u2QbBRIAFrPbc2b97sG9OgLwVmoSUyQ9IkpH3kEBGACAEEUXMDA7P2rYb4xeBYBAUOPz7q3dKBNut84AAKxAnTEBwCrU5Kx7d26SyaOcWYHpuNjL458VCsAAAISoXArAwKwcGh6U17rbdQQA/vXovh3GzyEAgLU839Fi7AMGACv40t4dcpCfacC0RNjscn5qpo68hwIwAAAhqiDapT8BmKmf0KEBIABe6GiR3zQd0hEAwErUhJkfc8YEYAH/r+2I/JYzKzBt56ZmiMsRriPvoQAMAECIKoyhAAzM1truDqkb6NMRAPhe9/iYfK5uq44AAFb0+5YGOcyUBwBBrGFkSD7PmRWYkXf6YPyzQgEYAIAQVRAdqz8BmI0fHN6nPwGAb6mt4w/s3iJd42PHEgAAS1JdwN89tEdHABBcxt1uuWvHBhmcnNQZAKeS6IyQVclpOvIuCsAAAISo/GiXhOnPAGbub+1NUs9OIwB+8LPGenm5s1VHAAAr+0vrEfZmAghKj+7bIbsHenUEYDouSs8WR5hvSrUUgAEACFFRdrukR0bpCMBMGR0aB+nQAOBb6kGTr+/fpSMAgNWpM+aTnDEBBJln247IL48c1BGA6XpvVoH+5H0UgAEACGGFjIEG5oQuYAC+pMbo3Vu7UcbcUzoDAAgFz3nOmHsG+3QEAOamfl49uHuLjgBM1/y4RClzxenI+ygAAwAQwgqiXfoTgNmgCxiAL311fy0FAAAIQeqM+c363ToCAPPqnRiXW7atk5EpHlgEZuq/sn3X/atQAAYAIIQVx9ABDMwVXcAAfOGlzlb5eeMBHQEAQo3a/b66q11HAGA+6mGVe3dulObRYZ0BMF3Rdof8R3q2jnyDAjAAACGs1IdjRoBQoX7p/cb+nToCgLlrHxuVT+/aLEd1DAAITY/u2yFTnrMmAJjRV/bX8qAKMEsXZ+RIjN2hI9+gAAwAQAgrdcVLmP4MYPZe7GyVdd0dOgKA2VMPldy3c5MxTg8AENrUlJlnmg/rCADM40+tjfKThnodAZgpX49/VigAAwAQwlwOh2RGRusIwFyop59V4QYA5uK7h/bI+h4eKAEAHPOtA7tlcHJCRwAQeFt6u+Szu7foCMBMlbvipTI2QUe+QwEYAIAQxxhowDvqBvrkr21HdAQAM7e5t0v+5+AeHQEAINIzPibfO7RXRwAQWA3Dg3LL9nUy7nbrDICZep8fun8VCsAAAIQ4CsCA93x9/04ZnZrSEQBMX//khDH6mV2PAIAT/bhhv+wZ7NMRAASGWlFyw7a1rCoB5iDSbpeLMnJ05FsUgAEACHFlFIABr2kfG5WfNO7XEQBM3wO7Nkvz6LCOAAD4P+rhoIf3bBceEQIQKKrj99bt6+Tw8KDOAJiNd6TnSKwjXEe+RQEYAIAQV+qK158AeIMa0dc0QhEHwPT9tLFenu9o0REAAP9O7dx8pumQjgDAf9TDJw/s3mysKwEwN5fnFutPvkcBGACAEFcY7ZIou11HAOZKjYD+wp5tOgKAt7a1r1u+tn+njgAAODn190X3+JiOAMA/vrqvVv7aekRHAGZreWKqXycxUgAGACDE2cLCpMKVoCMA3vBaV5v8k24+AKfQOT4qd+xYLxNut84AAHByal/8o/tqdQQAvvf9Q3vlRw2sOQK84fLcIv3JPygAAwAAqYyjAAx42yN7t8vw1KSOAOCNJo+65c4dG6RjbFRnAAA4tb+0NsqrXW06AgDf+XXTIXm8fpeOAMxFdlS0nJOSoSP/oAAMAACkMpYCMOBtraMj8p0DdToCgDf6yr6d7FEDAMzKg7u3SO/EuI4AwPue72iRh1htBHjNZTlFxhRGf6IADAAA6AAGfOQnjfVS29+jIwA45tm2I/K05+cDAACzoaZHPLxnu44AwLtWd7fLXbUbxH30qM4AmIsou13+MytfR/5DARgAAEhhtEti7A4dAfCWKc8vzPfv2ixj7imdARDqDg4NyGd3b9URAACzox4meratSUcA4B1qQs3t29fLhNutMwDm6l2ZeRLrCNeR/1AABgAAxgiSith4HQHwJlXs+Vb9bh0BCGVDU5Ny2471xjsAAHP1+bqt0jY2oiMAmJstvV1y/dY1MsxZFfAaNfRZjX8OBArAAADAUBWXqD8B8DY1Clr9Mg0gdI273XLr9nVyYGhAZwAAmJuByQljqgRDWgHMlfp99TqKv4DXnZaUJkUxsTryLwrAAADAsCCeAjDgK2p30n27NvHLNBCijJ8BOzfJuu4OnQEAwDte7WqTHzXs1xEAzNy2vm46fwEfuTK/VH/yPwrAAADAsCg+WX8C4AtNI8PylX21OgIQKlRX1oO7t8hz7expBAD4xuP7dxkFHACYqe2enx3XbV3NihLABypjE2RlUqqO/I8CMAAAMKRFREpWZLSOAPjCr5sOyV9bj+gIQCj42r5a+UNLg44AAPC+yaNuuat2g/ROjOsMAJzapt4uuXbrahmcpPgL+MI1BWX6U2BQAAYAAP+yMD5JfwLgK1/Ys00aR4Z0BMDKvndoj/yQsZwAAD9oHR2R+3duYh8wgGlR4+Ov3ULxF/CV3KgYOS81U0eBQQEYAAD8CwVgwPcGJyfkrh0bZNzt1hkAVvSrIwflm/W7dQQAgO+9ovYBH96nIwB4c39vb5Zbtq+TMfeUzgDwtqvyS8UWFqajwKAADAAA/mVRAgVgwB92DfTK1/fv1BEAq/l/bUfk4b3bdQQAgP98vX6X0dkHAG/mL62NcnftBpnggWTAZ1KckXJJZq6OAocCMAAA+JdyV7xE2e06AuBLTzfWyz/am3UEwCpU99X9OzeL+yhDOAEA/qf+/vnvnZukgZUjAE6gfge9z/PzYYpzKuBTV+QVS4Qt8PerFIABAMC/2MPCZAFjoAG/UL9yf3rXZtk/2H8sASDobertkjt2rJfJo3RUAAACp29iXG7cukYGJid0BkAoU797PnmgTh7Zu4M94YCPuRwOeV92gY4CiwIwAAB4g5qEFP0JgK8NTU3KjdvWSs/4mM4ACFZberuMy/bRKXapAQAC79DwoNxVu4GJFECIU6OeVdfvkwfrdAaAL30wp0hcjnAdBRYFYAAA8AY1iRSAAX9qHh2Wu3duZAwXEMRU8ff6rWuMhzoAADCL1V3t8o36XToCEGoGJyflhm1rjL2/AHwv0m6XD+UW6yjwKAADAIA3mB+fyB5gwM/WdXfIY/tqdQQgmFD8BQCY2Q8O75OfHzmgIwChonN8VK7Z/Kqs9fyuCcA/VPdvsjNCR4FHARgAALyBI8wmi+OTdQTAX55urJdnmg/rCEAw2NjTKdduXU3xFwBgamrv5wsdLToCYHV7BvvkQxtekt0DvToDwNei7Q65Kq9ER+ZAARgAAPybZYyBBgLic3Vb5Xku54Cg8GpXm1y3dY2MsPMXAGByag/w3bUbjakVAKztFc8Z9apNr0jL6IjOAPCHy3KLJNFE3b8KBWAAAPBvllMABgJCXc7dU7tRtvV16wwAM3qxs1Vu275extwUfwEAwUH9nXXDtrWyd7BfZwBYjZoqdZPnv3O1+xeA/6ju34+YaPfvcRSAAQDAv6mKS5QYz+EFgP+py7mbt6+ThpEhnQFgJn9oaZBbPf+NUvwF5sYeFqY/AfCXwckJuWnbGmkfG9UZAFagzqX37dxkjHtXDxUD8K/LTdj9q1AABgAA/0ZdyNXQBQwETM/4mFy3ZbV0e94BmIfqqnhg12Yu1oA5KoyJlSUJyToC4E9qLOzHNr8qneMUgQEr6BgblWs2vyZ/bm3UGQD+5HI45KMm2/17HAVgAADwpk5PTtefAARC48iQsV90YHJCZwAEiir3Pl6/y+iqoPQLzN11heVyWlKajgD426HhQbl6E0VgINipvd4f3PCibGeFEBAwH84tkfhwp47MhQIwAAB4U2dQAAYCbvdAr1y7ZTU7nIAAmjp6VD67e4t8/9BenQEwFyWuOLkwLVtWJqXqDIBAUEXgT3rOmb0T4zoDIJj8pumQ0fmrOoABBIbLES4fzjPf7t/jKAADAIA3lR0VLXlRMToCECg7+nvk+q2rZWiKIjDgbyNTU3LTtrXyTPNhnQEwVzcWzRNbWJhUxiZIgkm7JYBQsW+wXz6x5TXpZ+IMEDTU+fTu2o3yubqtMnnUrbMAAuEjecUS5wjXkflQAAYAACfFGGjAHLb2dcst29bKqOeXfQD+oboprtr0irza1aYzAOZKFX3PTc00Pqsi8Aq6gIGAqxvoMybO9NEJDJje4eFB+dDGl+TZtiM6AyBQkp0R8hGT7v49jgIwAAA4qVXJ7GYDzGJ9T6fcsn2djLkpAgO+pi7D1eXaroFenQHgDTcUz5Mw/Vk5N+VYMRhAYNX298iVm16RdkbJAqb1j/ZmuXzDS7J/sF9nAATSdUUVEm136MicKAADAICTWp6YKk4bxwXALNZ0t8t1W9ewExjwode62uTqza9I6+iIzgDwhuq4RDnjhOkyZ6dmcNYETKJ+aEA+uullaRwZ0hkAZqAeAH5k7w65fcd6GWBcO2AK+dEueW9Wvo7Mi1M2AAA4qSi7XZYmpOgIgBls7Ok0drUxpg/wvh837Jcbtq3lIQvAB24urnxD968SY3cYDxwCMIemkWGjE1jtBgYQeOrBDNX1+3Rjvc4AMINbPOdaR5j5y6sUgAEAwFs6JzVDfwJgFmpM31WbXzV2lAKYO9VZ8cCuzfLYvlpxHz2qswC8ZVliiqw8yb7f8/ROYADmcHwH/va+bp0BEAh/ammUyza8yAMZgMmoqTbnpWXpyNwoAAMAgLd0Tkrmv3VrAAg8tfvpio0vSwNj+oA5UfsOr970qvy+pUFnAHjb9YUV+tO/Oyc1U2xhnDYBM+mfnJBPbFktL3e26gwAf+kZH5Nbt6+T+3dtktGpKZ0FYBZ3llYHzT0pBWAAAPCWMiOjpDw2XkcAzKR5dNjo0Kgb6NMZADOxqbdLPrD+BdnR36MzALxtVXKa0QF8MsnOCFkUn6QjAGYxPDUpN29fx+hZwI9e62qTSz1n0+c7WnQGgJmcm5opSxKSdWR+FIABAMApnZvCaD7ArNSYPrWr7SU6NIAZURfaH9/8mnSNj+kMAG9Tnb23l1Tr6OTOSw2OMXpAqFFrER7Zu0M+V7dVpliRAPiM6vRV/61dv3UNa34Ak1Ln2puLK3UUHCgAAwCAU2IPMGBuqkPjlu3r5KnD+3QGwMkMTk7K3bUbjEu2yaNunQXgC+/JzJMyV5yOTu68NB42BMzsN02HjJG06swJwLu29HbJe9c9bzycyGMWgHmpc21xTKyOggMFYAAAcEoVsQmSERmlIwBmpDo0vr5/Jx0awFtQ49I/uP4FebatSWcA+EqEzS7XvsXu39fLioyWeZ7zJgDzUtNm1NSZppFhnQEwF2PuKfmq5/e3qza/KkdGhnQWgBm5HA65sXiejoIHBWAAAHBKYZ7XOYyBBoKC6tBQ3cADkxM6A0D55ZGD8uGNL0kDF2yAX1yZXzKjBwjflspZEzA79SDV+9Y/z35SYI5U1+/7178oPzy8z3iQF4C5fbKwQlKckToKHhSAAQDAtFyYxm42IFi83Nkql61/UfYO9usMELp6J8aNsZUP7dkm425GPgP+kOSMkI/mlepoes7nrAkEBbVK4TbP36tq8gyFK2Bm1H8/ag2J6vo9ODSgswDMLC8qRi7LKdJRcKEADAAApmVJQrKkRgTf025AqFJdjh/a8JL8rvmwzgChZ013u/zXOjqVAH+7sWieMSpvJtROtYJol44AmJkq+z51eJ/ctG2t9DN1BpiWV7ra5L3r/mns+uXhCSB43FO+QJy24CylUgAGAADTYgsLk/NS6cwAgonaK/Xg7i3GXuAJOh8RQtT/76vOpOu2rpGOsVGdBeAPhTGx8p9Z+TqamQvSsvUnAMFAFbTU1Jna/h6dAXAidRa9u3aD3OA5l7aOjugsgGBwVkqGnJmcrqPgQwEYAABMG2OggeCk9gJfvflVaR4d1hnAurb1dRs71VRnEt0VgP/dXlIl9rAwHc3MxRk5+hOAYNE4MiRXbHxZnjxQx9+7wOuo/x7U72HvXvtPebatSWcBBItwm03uKq3WUXCiAAwAAKaNMdBA8FJFsUvXPW9cQgBWdLzr96ObXmGnGhAgNYkpcnZKho5mrigmVipi43UEIFhMHT0qTx6sM/4ObhrhgUNg10CvfHjjy8YkpkHGpANB6cO5xZIf5OtJKAADAIBpU2Ogz2cMNBC0BicnjUuIO3dsYF8bLGUrXb9AwKlz4h1e6JJ4R0au/gQg2KgHDt+3/gX5a+sRnQFCi/od65G9O+TyDS8xGh0IYsnOCPl4QZmOghcFYAAAMCMXprObDQh2z7U3yfvXvSCbe7t0BghOA5MT8oU92+RKun6BgFPjmytjE3Q0e+9IzzGKyQCCk+p2vHfnRrl/1ybpmxjXWcDa1AOIv246JO9c/Xd5urGeBxKBIHdrSZW4HOE6Cl5hRz30ZwAAgFNSv8hctPo5aRkd0RkAwUpdsKuxRjcWzZNIu11ngeCguose3bdDusbHdAZAoKgLsj+edp6kOL2zKuRjm1+V9T2dOgIQrFQH1e0l1XJJJp39sK71PR3y6N5a2TPYpzMAgtn8uET5ybKzLPFAIh3AAABgRtQB6GJG8wGWoB7o+HHDfnnvuudlbXeHzgLmdnh4UD6x5TWju4jiL2AO1xdVeK34q3DWBKxB/T2tOoFv275OOsZGdRawhgbPmfTmbWvlY5tfo/gLWIQjzCafnbfYMtNo6AAGAAAzdmBoQN6z9p86AmAVF6Zly6cqFkpCuFNnAPMYmZqSHx7eZ+z5HXNP6SyAQCuOiZVfrzjXuDDzluGpSXnbK88a7wCsIc4RbuwJf09WvjDkHcFMrSD5n4N75OdHDsiE262zAKzgmoIyuaW4UkfBjwIwAACYlQ+uf1F2DfTqCIBVqA6uu8vmy9vZ9w2TUJ3qf2hpkG/W75bOcbqHADNRRZz/XXKGLEtMOZbwogd2bZbfe/7bB2Ati+OT5d7y+TLPCzvDAX8ad7vlV00H5bsH90gv+60By8mOipbfrTjPUuuxKAADAIBZ+WljvXx57w4dAbCamsQUuadsgZS54nQG8L/NvV3Gnt+d/TxwBJjRRek58kj1Mh15l/rv/8pNr+gIgJUYa4U8Pz9UR3CSM0JnAXNSDyP+o6NZvrF/lzSODOksAKv55sKVcnZKho6sgQIwAACYle7xMTnv1WdliqMEYFlcziFQ6ocG5MkDdfJce5POADCbGLtD/nDa+ZIW4b3dvyd699p/ykHPzwMA1hTrCDfGbV6RWyzhNu+NkQe8ZW13h3x1f63UDbDjF7Cy/0jPlkera3RkHRSAAQDArF2/dY282tWmIwBWFR/ulBuKKuR92YViD2NrG3yneXRYnqjfLX9pO2J0WwAwr9tLq+XKvBId+cb3D+2Vx+t36QiAVZW44uTW4ko5y2KdVwhe2/u65euev3829nTqDACrcjnC5Q8rz5NUHz7UGCgUgAEAwKz9vb1Z7tixXkcArC4/2mUUgi9Myza6gwFvaR0dkf89vFeeaT4sE263zgIwq6KYWPnNinPFEebbjr2OsVH5j9eek8mj/FwAQoHaD3xLSaUsSUjWGcC/NvR0Gg8frelu1xkAVvff5QvkspwiHVkLBWAAADBr6pL+gtf+ZoyDBhA6imNi5bqiCrkgLVsoA2MuWkZH5McN++U3TYdkzD2lswDM7juLVsmq5DQd+dadOzYwDh4IMSuTUuW2kiqZF5ugM4BvqVHP3z6wW7b2desMgFBQFZcgTy8727IPuFMABgAAc/LVfbXyw4b9OgIQShbGJ8lNxfNkeWKqzgDT0zA8KE8d3id/bGmksw8IMmoKxGPz/bcjTY3fvHrzqzoCECrUZbz6efOJgjJjRDTgbWrdiJpqpqbQsOMXCD1q9/zPa86RMgv/HUMBGAAAzMnBoQF5z9p/CgcKIHQtik+SqwvK5KzkdEZD4y1t6e2SHzXslxc7W9nxCwQhl8Mhv1t5nqRHROmMf1y67nnZO9ivIwChRJ0s1W7gazxnTXXmBOZKPXz4/1qb5PuH9xr3GQBC0/VFFXJtYYWOrIkCMAAAmLMrN70im3u7dAQgVKnR0Ffml8o70nOMp2kBRRV6n+9oMQq/2xirBwS1T5UvlPfnFOrIf37ddEg+X7dVRwBCVU1iilyTX+a3EfSwlr6JcfldS4P8ovGANI8O6yyAUFQRGy8/qzlbHGHWvregAAwAAObsTy2Ncv+uTToCEOpUZ9gVecXy3qx8cTnCdRahpmt8TH7XfFh+3XTQ2PULILgtTkiWHyw5IyCTHkampuT8V5+VgckJnQEQytRu4A97zpoXpmVJhM2us8CbU+Odf3HkgPyl9YiMuad0FkCoUkVfVfxVRWCrowAMAADmbHRqSs7jUg7ACaLsdrkoPUc+kFNoXNQhNKgxz79sOmjsVJtws98XsAKnzSa/Wn6uFMXE6oz/fXnvDvlpY72OAECNpQ+Xt6dny+U5RewJxhuoM+gLnS3ym6ZDsra7Q2cBQOS6wgq5rsjao5+PowAMAAC8gks5AG+lMjZBLs0ukIszco3CMKylY2xUnmtvMjp+2dMJWM8NRfPkk4XlOgqMhpEhedeaf7A/HMCbOn7WvCQzl67gENY5Pip/bGmUnzcekLYxJtAAeKMyV5z8vOackFlZRQEYAAB4RcPwoFyy5h/CwQLAW4kPdxqdGqoQvDA+Sfw/SBTeoqY/vNjZKn9saZDV3e0UZQCLUl11vzTJRdm1W1fL6q52HQHAv0t2Rsh7svLlvzyvnKgYnYWVqW7fV7ra5E+eM+lLnW0yeZQJNAD+nRr9/HTNWSE1nYwCMAAA8Jrrtq6R1zy/eAHAdGRGRhkjotUlXUG0S2dhZuNut6zpbpfn2prk+Y4WGZqa1N8AsCK17/eHS8+URfFJOhNYL3W2yk3b1uoIAE5O/fxamZRqPHT4ttRMibE79DewAlXQ2NrbZez1/Vt7k/RNjB/7AgBO4hOF5XJj0TwdhQYKwAAAwGte7myVG7mUAzAL1XGJ8h/p2XJuaqbk0a1hKsNTk0bH3QsdLfKC5+f8IPvegZDxodxiuadsvo4CT00aeOeaf8iRkSGdAYBTUyOhVTH4wrRsOT8ti3UkQax5dFiebWuSZ5oPG1PIAGA6imJi5ZfLzwm5FQEUgAEAgNeoQ4XazXaYX8QAzIEa13d2SobxqklMEXsYg6L9rXt8TF7raje67V7papWRqSn9DYBQoaY0PLPyPNN1zf3w8D756v6dOgKAmVE/09QDh2olyarkNGMkKMxN7fJVk2dUt+/2vm6dBYDpUWtMnl52tlTExutM6KAADAAAvOrHDfvlsX21OgKAuUlxRspZKemyMilNliemSJIzQn8Db1IF3o29nbK2u13WdHfI/sF+/Q2AUPXEotPkzOR0HZmHGvN54Wt/48EUAHOWEO6U89Ky5ELPa2lCijhNsOscx+we6JUXO1vlxY5WqfN8poABYLZuK6mSq/JLdRRaKAADAACv6p+ckAtefZZLOQBep/qAi11xsiIx1SgGL/O8Yh3hx77EjKixztv7emRLX5ds6OmUbX3dMuF2628BhLp3ZOTIl6qW6ch8Ht23Q37SUK8jAJg7NRZ0cUKS8dDhOSkZxrhQ+M/U0aNGd+9z7c3yz45maR0d0d8AwOwtSUiWp5acYeyFD0UUgAEAgNc9vGe7/OLIAR0BgG+oX+LKXHEyPy5Rqjwv9V4cExuyv9ydjPqFT+1I2zXQaxR6t/R2y57BPmOXJgCcKDUiUn674m1GZ5xZtY+NyjtWPyfjPLgCwEcKol1yRnK6nJGSLksTkkNub6Q/qPPpxt4uea2rTVZ3tcvQ1KT+BgDmTj0s/hvPmVatNQlVFIABAIDXNY4MySVr/kFxAYDfRdntMi82wSgGl7nije6NwhiXRJtsh6WvjLmn5ODQoNQP9cvugT5jfJ56DU5yoQbg1NTjM98y6ejnE322bqv8tumQjgDAdyI958uahBSpSUqVhZ4zZmVcAgXhGVI3AweGBmRTT6dR9N3U2ykdY6PHvgQAH1DTbNRUm1BGARgAAPjEHTvWy9/bm3UEAIGjChqZkdFSGBMrJUZBOFZyoqIlIyJKMjz5YNv3ph6uaR0bkaaRYTkyMiSHhweNCzX1OjI6zMM3AGbt0uwCeaBikY7MrcHz8+9dPHAIIADCPWdH9cDhgrhEWZSQJAvjkyTdc67E/5k86pb9gwNGoXeTUfDtkp7xMf0tAPiW2deZ+AsFYAAA4BM7+nvkQxte0hEAmFeKM1IyIlUxOEpSPZ8TnU5J9rynOCM8nyMkKdwpcZ6XGiFl9+F4adW92z8xYexS75sYl/axEekaHzO6IzrGPS/Pe/PIsLR48uzrBeBtOVEx8psV5wbVxIS7azfKs21HdAQAgaPOkYvik2SB51USE2esJVEj9UPBoOfsumewX+oGemXPQJ/xef9QP+dVAAGhRj6r0c/q9/dQRwEYAAD4zEc3vSJbert0BADBT40AVL9IxtgdRpEk2uEQR1iYOG12ifS8bGEiLv2LptpNOTo1ZXw+ThV5j73cMub5zij6Tk4YhV/1GQACQe1Of2rJGbIkIVlngsPewX5537rnjdGiAGA26syo1pGoYrB6V4XhghiXZEVG6z8RXHonxo3pM82jw8bkGVXsrRvsM6bSAIAZqDPt9xafLjWJKToT2igAAwAAn3mho0Vu2b5ORwAAADCjq/JL5baSKh0Fl5u2rZWXOlt1BADmpx4kzI2OMcZGp0VEGp3Cai1JmjNS0iOP5fzduXZ8Eo2aQtM0emzNiCrsqs9N+vPQ1KT+0wBgTsF8pvUFCsAAAMBn1E6296z9pxwaHtQZAAAAmEmJK05+UXNO0O1DP25rX7d8ZOPLOgIAa1BTZzIiooyJM3Hh4cakGZVTk2ZULsITxzgc4vJ8Vh1vJ1JjmU8cwDzgyakuXlXk7TfeJ6Rv8lg8csLUGgAINvPjEuVHy84UR1hwnml9gQIwAADwqT+0NMind23WEQAAAMxC7TX/6bKzpSouQWeC09WbX5WNPZ06AgAAQChRUxN+tfxcyY4KzhH7vkIpHAAA+NQlGbmSFxWjIwAAAJjF9UUVQV/8VT6WX6Y/AQAAIJSoGQifq1xC8fdNUAAGAAA+pcZRfTS/VEcAAAAwg8rYBGNPmhWsSk6zRCEbAAAAM3N5brGcl5qpI7weBWAAAOBz78nMk/SIKB0BAAAgkGLsDvly9TJL7Uj7REG5/gQAAIBQoB4AvL2kSkc4EQVgAADgc+E2m1yZX6IjAAAABNJ9FQslL9qlI2s4NzVT5scl6ggAAABWph5o/FLVMuPOEW+O/8sAAAC/uDS7QFIjInUEAACAQHh3Zp5ckpGrI2u5oXie/gQAAAAre2DeIsm32AON3kYBGAAA+EWEzS4fzaMLGAAAIFAKol3y3+ULdGQ9q5LSpCYxRUcAAACwog/kFMpF6Tk6wslQAAYAAH6jDmjsAgYAAPA/p80mX66ukWi7Q2es6YYiuoABAACsal5sgtxZWq0jvBUKwAAAwG9UF/DHC8p0BAAAAH+5vaRaKmLjdWRdSxKS5fTkdB0BAADAKhLCnfK1BcuN+0WcGgVgAADgV+/NzpecqBgdAQAAwNfOSsmQy3KLdGR9t5ZUii0sTEcAAAAIdups93DVUsmKjNYZnAoFYAAA4FeOMJt8srBcRwAAAPAltX7jC5VLJJTKoeWueLmYvXAAAACWcWPRPDmDKS8zQgEYAAD43SUZuVIUE6sjAAAA+ILqlHioaqkxLi/U3FxSKZF2xgMCAAAEu3NSMuQaVsrNGAVgAADgd+oy8vqiCh0BAADAF64tLJfliSk6Ci2q8/mynNAZew0AAGBF+dEuY/Qzyz1mjgIwAAAIiAvSsqU6LlFHAAAA8KblianyiYLQXrvxsYKykOx+BgAAsIJou0O+vmCFuBzhOoOZoAAMAAACQj25d0dp9bEAAAAAXpPijJQvVi01pq6EslhHuHyiMLSL4AAAAMFInWI/X7lEilkhN2sUgAEAQMAsTUiWc1MzdQQAAIC5coTZ5CvzayQ1IlJnQpsaA13qitMRAAAAgsFV+aVyQVqWjjAbFIABAEBA3VZSZVxUAgAAYO7uLK2WxQnJOoI9LEzuLp2vIwAAAJjdqqQ0ubm4UkeYLW5bAQBAQBVEu+TS7AIdAQAAYLbenp4jl+cW6QjHrUhKpYMEAAAgCKh7wkfn14T8KhNvoAAMAAAC7rrCcnE5wnUEAACAmVKXZQ/OW6QjnOiu0vkSZbfrCAAAAGYTH+6Uby1cKbHcEXoFBWAAABBwic4IuSa/VEcAAACYiRi7Qx5fuNJ4x5vLiIySq/PLdAQAAAAzUevhHquukbxol85grigAAwAAU/hIXonkc8gDAACYETUc77OVi40OYLy1q/JLuVQEAAAwoXvL5htrO+A9FIABAIAphNtscldptY4AAAAwHeohugvTsnWEt+L0nDfv5LwJAABgKpfnFsn7cwp1BG+hAAwAAEzjrJQM4wUAAIBTU10St5ZU6QjTcY7nrHlmcrqOAAAAEEinJaXJXaXzdQRvogAMAABM5Z6y+UZ3BgAAAE4uKzJaHq2uEXuYGgKNmbinfAHnTQAAgABTK0wenc951lc47QIAAFPJjYqRK/JKdAQAAIATRdsd8s2FKyUh3KkzmIk8z3lTjc4GAABAYMR7zrHf8pxn4xzhOgNvowAMAABM5+MFZZIWEakjAAAAHKf6I75QuURKXXHHEpiVjxeUS0ZklI4AAADgLxE2u3xjwQrJi3bpDHyBAjAAADAd1dVydxn7PwAAAE70icJyOT8tS0eYrSi7XT5dsUhHAAAA8Af1MOOD8xbJkoTkYwn4DAVgAABgShemZcvZKRk6AgAAwDmes9F1hRU6wlydmZwu78zI1REAAAB87baSKs5ffkIBGAAAmNZ95QuNbmAAAIBQVxDtkoerlootTPVNwFvU1JlkZ4SOAAAA4CuXZhfIlfmlOoKvUQAGAACmlRkZJdcW0eUCAABCW5wjXL65cKW4PO/wroRwpzw4b7GOAAAA4AtnpWTI/eULdQR/oAAMAABM7YrcYqmIjdcRAABAaHGE2eSx+cslP9qlM/A2NVr7AvYqAwAA+ERlbII8Wl0jdibZ+BUFYAAAYGrqcPhAxSLGHQIAgJB0b9l8WZmUqiP4yqc9581ERkEDAAB4VXZUtDyx6DSJstt1Bv5CARgAAJhedVyiXJZTpCMAAIDQ8JG8Enl/TqGO4EtqFPRdpdU6AgAAwFzFe85X3154miTzkF1AUAAGAABB4ZbiSsmLitERAACAtZ2RnC63l1TpCP7wzoxcYz8dAAAA5ibSbpfHF6yQwphYnYG/UQAGAABBQR0cH5y3WBgEDQAArK44Jla+XL2MFRgB8GDFIolzhOsIAAAAM+UIs8lj1TWyOCFZZxAIFIABAEDQqElMkQ8wChoAAFhYijNSvr1olbgoQgZEakSk3EbnNQAAwKyoxxcfnLeIqSomQAEYAAAEFXUhl8soaAAAYEERNrt8fcFyyYyM0hkEwnuzC2RlUqqOAAAAMF13l82Xd2fm6QiBRAEYAAAElShjFPQiRkEDAABLUeOeH65aKgvik3QGgaLOmQ9VLpWEcOexBAAAAE7p2sIK+VBusY4QaBSAAQBA0FmemCrvyynUEQAAQPC7o6RaLkjL0hECTY2CfqhqKQ8dAgAATMP7swvl+qIKHcEMKAADAICgdGdJtRREu3QEAAAQvN6fUyhX5NEtYTZnJqcb/24AAABwcuelZsp95Qt0BLOgAAwAAIJSpN0uj1Qvk3AbxxkAABC8zknJkPvKuDAzqztLq6XMFacjAAAAvN6KpFR5pLrGWGcCc+HGFAAABK15sQnyyYJyHQEAAASX+XGJ8mUuzEwtwmaXL1YtM94BAADwfxbEJ8k3FqwQJ80ZpsS/FQAAENQ+VlAmyxJTdAQAABAc8qJi5FsLVxpTTWBupa44ub20SkcAAAAod8XLE56zbLTdoTMwGwrAAAAgqKmOmc/PWyIuBwdOAAAQHBKdEfLtxauMdwSHD+YUGeO6AQAAQp16OO57S06X+HCnzsCMKAADAICglx0VLfewOw8AAAQB1SXx5KLTjA5gBA81pPtzlUskNSLyWAIAACAE5UW75DuLVkkCxV/TowAMAAAs4d2ZeXJxRq6OAAAAzCfcZpOvLlgulbEJOoNgoi46H6laxs5mAAAQkjIjo+S7i1fxQFyQoAAMAAAs49MVC6UwJlZHAAAA5qGKhg9VLpVVSWk6g2C0LDFFPpJXoiMAAIDQkB4RJU8tOVOyIqN1BmZHARgAAFiGGqn4WHWNRNjsOgMAABB4ql/0U+UL5e3p2ccSCGo3Fc2TRfFJOgIAALA21fH7v0vPMFawIXhQAAYAAJZS6oqTO0qrdAQAABB4NxdXyqXZBTpCsDs+yjuN8YcAAMDiEp0R8t3Fp0teVIzOIFhQAAYAAJbzwZwieXt6jo4AAAAC5/LcIrmmoExHsIoUZ6Q8Wl0jjjCu1gAAgDXFhzuNnb/FrFsLSpxSAQCAJal9wIymAQAAgfSezDy5p2yBjmA1ixOS5c7Sah0BAABYR6wjXJ5cdJqUu+J1BsGGAjAAALAkdVD9+oIVEmlnHzAAAPC/c1Iy5MF5i439v7Au1eGtCv0AAABWEecIN8Y+V8cl6gyCEQVgAABgWeopxU+VL9QRAACAfyxPTJVH59eIPYzybyi4v2KhVMYm6AgAACB4qeLv/yw+XariONsEOwrAAADA0t6VmSfvzy7UEQAAgG8tjE+SxxeukAgbU0hChfp3/dUFyyUh3KkzAAAAwcfo/F1C8dcqKAADAADLu7d8viyOT9YRAACAb1TExssTi06TaLtDZxAqsiKj5dHqGrHR9Q0AAIJQojNCnlp6JlNNLIQCMAAAsDxHmE0em18jqRGROgMAAOBdZa44+d7i043OCYSmFUmpcmPRPB0BAAAEhyRnhHzfc45V51lYBwVgAAAQElTx94tVy9jFBwAAvK44JtYo/sYzAjjkXVNQJhemZesIAADA3FKckUbxt5Tir+VQAAYAACFjeWKK3F02X0cAAABzlxftku8uPt0YmweoRw0/W7nYeCgAAADAzNQKix8tO1NKKP5aEgVgAAAQUi7LKZL3ZxfqCAAAYPYyI6Pku4tXsWYCbxBjdxi7oFVHDQAAgBllR0XL/y45Q3KjYnQGVkMBGAAAhJx7y+dLTWKKjgAAAGYuIzJKnlpyptE5AZxI/f/FtxatlCi7XWcAAADMoSgmVn689CyjCAzrogAMAABCjiPMJl+dv1zyeMoRAADMgur8VR0TXJrhrVTGJsij1TViC1ODoQEAAAKvIjZefrj0TCbYhAAKwAAAICTFhzvl8YUrxeUI1xkAAIBTO178ZVwepuOslAy5s7RaRwAAAIGzOD7ZOMcmhDt1BlZGARgAAIQsNfLmS1VL6coAAADTkhMVIz9YeqbxDkzXh3OL5fLcIh0BAAD438qkVHly8WkSSyNEyKAADAAAQprqyvhU+UIdAQAAvDm10/X7S05n5y9m5e7S+XJuaqaOAAAA/OcdGTny7UWnSbTdoTMIBRSAAQBAyLs0u0A+mleiIwAAgDfKi3bJj5adSfEXs6YmzjxStUyq4xJ1BgAAwPc+mFMkD1cuFUcY5cBQw79xAAAAj9tLq40nIgEAAF4vP9olTy05Q9IjonQGmJ1Iu12+sWCFsUcaAADA167OL5X7yhew+ixEhR310J8BAABC2ph7Sj6++TXZ2tetMwAAIJQVxcTK9xafLqkRkToDzN3ewX65ctPLMjg5qTMAAADeowq+95bNN7p/EbroAAYAANAibHZ5fOFKo9MHAACEtorYePnBkjMo/sLrylxx8tj85RJu41oOAAB4l7rb+nL1Moq/oAAMAADwegnhTvn2otMk2RmhMwAAINQsjk+W/11yhiRyHoCPrEpKk0era8TOSEYAAOAlsY5weXLRaXJhWrbOIJRRAAYAADhBblSMfHfx6RLnOTgDAIDQsjwxRb69+DTjAg3wpbelZsrn5i1hLx8AAJgzNbXmqaVnyDLPWRZQKAADAAC8iVJXnDyx6DSJtNt1BgAAWN3ZKRnG3/8xdofOAL51SWau3FM2X0cAAAAzVxwTK08vO1vKXfE6A1AABgAAOKmF8UmM5gMAIES8IyNHvrZgubE3DfCny3KK5LqiCh0BAABMX01iivxk2VmSERmlM8AxFIABAADeguoE+lzlEqEEDACAdb0/u1AerlwqjjCuSRAY1xVWyEfySnQEAABwahdn5MqTi1aJi9UleBNhRz30ZwAAAJzEDw7vk6/t36kjAABgFR8rKJObiyt1BASOuqD7fN1W+U3ToWMJAACAN6GaFK7KL5VbSqpoWMBJUQAGAACYpm/W75bvHdqjIwAAEMzUZdltpdVyJV2XMBH30aNy785N8mzbEZ0BAAD4P06bTR6ct1guycjVGeDNUQAGAACYAdUFrLqBAQBA8Aq32eShyiXy9vQcnQHMY/KoW27dvl5e7mzVGQAAAJH4cKd8bf5yWZaYojPAyVEABgAAmAF1cHp4zzb55ZGDxxIAACCoRNsd8tUFy2VVUprOAOYz5p6S67eukQ09nToDAABCWV5UjHxr0WlSEO3SGeCtUQAGAACYIXV4Yj8bAADBJzUiUp5YeJpUxMbrDGBeQ1OTcv2WNbKlr0tnAABAKFqemCpfmV9jdAAD00UBGAAAYBbUfrb7dm2Sv7aynw0AgGBQFBMr3150mmRFRusMYH6jU1Ny0/a1sq67Q2cAAEAouTS7QO4rXyCOMJvOANNDARgAAGCWpjzHqLtqN8g/2pt1BgAAmNHC+CT55sKVkkDXBIKQKgLfsn2drOlu1xkAAGB19rAwubO0Wj6UW6wzwMxQAAYAAJgDVQS+d+dG+Vtbk84AAAAzOT8tSx6uXCqRdrvOAMFn3O2WO3eslxc7W3UGAABYlXpo8bH5NcboZ2C2KAADAADMkRoH/eldm+VPrY06AwAAzEB1TNxVWi22sDCdAYLXhNttTJ95vqNFZwAAgNWUuOLkmwtWSnYUa0swNxSAAQAAvEAVgR/YvUX+2NKgMwAAIFDUyLx7yxbIB3IKdQawBlUEvrt2g/yTIjAAAJZzbmqmPFy1VGLsDp0BZo8CMAAAgJeoIvBndm+R31MEBgAgYNSF2Zfn18iZyek6A1iLOnN+atdm+TPTZwAAsAQ1q+aq/FK5ubiSyTXwGgrAAAAAXqQu5D5Xt1WeaT6sMwAAwF+yIqPliUWnSXFMrM4A1sT0GQAArMHlcMhDlUuN7l/AmygAAwAAeJk6XH1lX638uGH/sQQAAPC5+XGJ8vjClZLsjNAZwNqYPgMAQHArc8XJ1xaskNyoGJ0BvIcCMAAAgI98+0CdfOdgnY4AAICvXJiWLQ9VLZEIm11ngNCgisAP7dkmv246pDMAACAYvCMjRz5TsVgi7Zxf4RsUgAEAAHzoF0cOyJf27jAu5wAAgHexLw045skDdfIkDx4CAGB6jjCb3F5aJR/OLdYZwDcoAAMAAPjYn1ob5YFdm2WKYxcAAF4TbXfIQ1VL5Tz2pQEGNQr6s7u3cOYEAMCk0iOi5MvVy2RxQrLOAL5DARgAAMAPXuhokbtqN8i4260zAABgttSeNLXvtzgmVmcAKOrMeXftRhlzT+kMAAAwg+WJKfJIdY0kOyN0BvAtCsAAAAB+srqrXW7fsV6GpyZ1BgAAzNSqpDT58vwaiXOE6wyA19ve1y03blsrvRPjOgMAAAKFlSUIFArAAAAAfrR3sF+u37pa2sdGdQYAAEzXpdkFcl/5AmN3GoCTqx8akOs8Z87W0RGdAQAA/pbojJAvVi01HmAE/I0CMAAAgJ81jgzJdVtWS4PnHQAAnFqEzS4PVCySSzJzdQbAqajiryoCq2IwAADwr2Vq5HPVMkmNiNQZwL8oAAMAAARA38S43LRtrWzt69YZAADwZjIjo+Qr85dLdVyizgCYrv7JCbnZc+bc3NulMwAAwJfUmOdPFpTLJwvLGfmMgKIADAAAECAjU1NyV+0GebmzVWcAAMDrnZWSIQ9VLpH4cKfOAJipcbdb/nvnRvl7e7POAAAAX8iIjJIvVS2TJQnJOgMEDgVgAACAAJo86pbP122T3zUf1hkAAKC6JW4oqpCPFZQLfRPA3LmPHpWH9myTXzcd0hkAAOBN56dlyWfmLZY4R7jOAIFFARgAAMAEnm6sl0f31RqXcwAAhLKEcKd8qXqZrEpK0xkA3vKbpkNGIXiKMycAAF4RYbPLrSWV8qHcYp0BzIECMAAAgEn8o71Z7tu1SUanpnQGAIDQUhWXYOz7zYqM1hkA3vZKV5vcU7tBBicndQYAAMxGRWy8fLFqmRTHxOoMYB4UgAEAAEyktr9Hbt62TjrHR3UGAIDQcHlukdxRUi3hNpvOAPCV/YP9ctP2tdI0MqwzAABgutSKkstzi+W2kipxcnaFSVEABgAAMJn2sVG5cdsaqRvo0xkAAKzL5QiXByoWydvTs3UGgD/0TozL7TvWy8aeTp0BAACnkhkZJV+oXCo1iSk6A5gTBWAAAAATUiP51Gg+NaIPAACrWhyfbOz7VRdpAPxv3O2Wz9VtlT+2NOgMAAA4mYszcuX+8gXGA4yA2VEABgAAMCl1SPvOgTr5zsE64zMAAFZxfGzeHaVV4ghjbB4QaE831stj+2plimtCAAD+TZwjXD5VsVDenp6jM4D5UQAGAAAwuWfbmuSB3ZtldGpKZwAACF5Jzgh5uHKprEpO0xkAZrC5t0vu2LFeusbHdAYAAJyenC6fmbdI0iOYWIPgQgEYAAAgCOwZ7JNbtq2T5tFhnQEAIPisTEqVh6uWSoozUmcAmEnb2Ijctn291Pb36AwAAKHJ5XDI7SXV8l/ZBcb0GiDYUAAGAAAIEt3jY3L7jvVGdwYAAMHEabPJTcWV8pG8Ei7QAJNTe4Ef2rNNftd8WGcAAAgtq5LS5DPzFktGJF2/CF4UgAEAAILIhNstj+zdIb9qOqgzAACYW6krTr5YtUzKPO8AgsfPGg8Ye4Enj7p1BgAAa1Ndv3eUVMt76fqFBVAABgAACEJ/bm2Uz9VtZS8wAMC01KXZ5bnFcltJldEBDCD4bO3rlrtrN0jr6IjOAABgTWrX76crFkpWZLTOAMGNAjAAAECQUnuB79i+XhpGhnQGAABzyIyMks9XLpXliSk6AyBY9U6My307N8mrXW06AwCAdcQ6wo0HFtn1C6uhAAwAABDEBicn5YHdm+Uf7c06AwBAYF2Yli0PzFskcY5wnQEQ7NTl4Q8O75PH63eJm6tEAIBFnJ2SIQ9ULJLUiEidAayDAjAAAECQU4e5nzXWGzvapjjaAQACRHVP3Fe+QC7OyNUZAFazsadT7tm5UTrGRnUGAIDgowq+/122QM5Py9IZwHooAAMAAFjE+p4Ouad2o3SNj+kMAAD+8bbUTLm/fCHdE0AIUMXfe3dulA09nToDAEBwsIWFyaXZBXJrcaW4mFYDi6MADAAAYCE942PyqV2b5RV2tAEA/ECNeb61pMq4SAMQOo5PoPnKvp0yedR9LAkAgImVu+LlUxULZWF8ks4A1kYBGAAAwGKOX8h9df9OmXBzIQcA8A216/f+8gWS6IzQGQChpra/R+6t3SgNI0M6AwCAuUTa7XJVXql8vLBMHGE2nQWsjwIwAACARe3s75V7ajdwIQcA8KpkZ4Qx7pmdaQCUwclJeXjPNvlza6POAABgDmenZMh9nnNrZmSUzgChgwIwAACAhQ1NTcoX6rbJX7iQAwB4ger6VaPzEsKdOgMAx/yhpUG+uGe7DHvOnwAABFJ2VLTcW7bAKAADoYoCMAAAQAj4XfNh+dLe7TIyNaUzAABMX1ZktNxfsVDOTE7XGQD4dw3Dg3Lfrs2yva9bZwAA8J8Im12uzi+VqwtKjc9AKKMADAAAECKaRobl/l2bZHNvl84AAPDW7GFh8sGcIrmpeJ5E2x06CwAn5z56VH7YsF+eOLBbJtxunQUAwLdUt6/q+lXdvwAoAAMAAIQULuQAANM1LzZBHqhYJFVxCToDANO3b7DfePiwbqBPZwAA8L68aJfcUzafSTXACSgAAwAAhCB1IXffzk2yZ5ALOQDAG7kc4XJDUYVcllMktrAwnQWAmRtzT8kT9bvlx431xoOIAAB4S4zdIZ8oLJcP5xZLuM2mswCOowAMAAAQotSF3JMH6oyOYC7kAACKGp33qYqFkh4RpTMAMHebervk07s2y5GRIZ0BAGB21AOK78nMkxuL50mKM1JnAZyIAjAAAECIW9fdIQ/s3iwtoyM6AwAINWp03n1lC2RVcprOAIB38fAhAGCuliemyJ2l86UiNl5nAJwMBWAAAADI6NSUfOcgF3IAEGqi7Ha5Mq9UrikoEyej8wD4wba+bvnM7i1SPzSgMwAAvDX1sOLNxfPkwrRsnQFwKhSAAQAA8C9bervkwd1b5NDwoM4AAKxIbfa9IC1b7iitlsxIxj0D8C/VDfw/B/fIDw7vkymuJgEAJxEf7pRPFpbLB3MKxRHGw4rATFAABgAAwBswng8ArG1ebILcWzZfFick6wwABEbdQJ+xikS9AwBwXITNLpfnFhlTauIc4ToLYCYoAAMAAOBNbe/rlgd2b5EDjOcDAEtQHRTXFpbLZTlFYgtTPcAAEHiqA/gXRw7It+p3y9DUpM4CAEKROqOen5olt5VUSXZUtM4CmA0KwAAAADgp1Q38vUN7jfF8E263zgIAgkm4zWaMzbu2sEJi6aAAYFIdY6Pypb3b5e/tzToDAAglK5NS5faSaqmIjdcZAHNBARgAAACn1DA8KF/Ys03WdnfoDAAgGJydkiF3lc2XvKgYnQEAc/tnR4t8ac92aRsb0RkAgJUtjE+Sm4srpSYxRWcAeAMFYAAAAEyLOjT+uaVRHttfKz3jY8eSAABTmh+XKHeWVrPnF0BQGp2aku8crJMfNew3RkQDAKynxBVnrCe5IC1bWE4CeB8FYAAAAMxI/+SEPHmgTn5+5IC4OUoCgKnkRbvk5uJ5XKQBsISDQwPyyN4dsrq7XWcAAMGuKCZWrskvk4szcoydvwB8gwIwAAAAZmVjT6cxFvrA0IDOAAACJdEZYXRQvC+7QBxhNp0FAGt4qbNVvrhnuzSPDusMACDYZEVGy8cKyuS9WfkUfgE/oAAMAACAWZs86pafNR4wRvQNTk7qLADAX1wOh1yRWyJX5JUYnwHAqkampuR7h/bIjxv2y7jbrbMAALPLi4qRjxWWyyUZuWKn8Av4DQVgAAAAzFnvxLj8z8E9jIUGAD+JtNvlv7IKjC6KZGeEzgKA9TWMDMmje3cYXcEAAPPKj3bJJwrK5R0ZORR+gQCgAAwAAACv2TXQK1/as1229nXrDADAm8JtNnl3Zp5cV1ghqRGROgsAoWddd4d8ZX+t1A306QwAwAxyomLk6vxS+c+sfAq/QABRAAYAAIBXqcPln1sa5Wv7d0rn+OixJABgTtSetPNTs+TWkkrjUg0AIMbkmT+2Nsq36ndJ+xjnTgAIpFJXnHy8oEwuTMtmxy9gAhSAAQAA4BNqJ/BTh/fKTxrqZcw9pbMAgJlQl2fvSM+RawvLJS/apbMAgNcbnZqSnx05IN8/tMc4gwIA/KcyNkGuLiiVC9KyhbIvYB4UgAEAAOBTqhvjOwfr5Jnmw+wHBoBpcoTZ5KL0bPl4YbkUUPgFgGlR02eeOFAnv/ecO6c4dwKAz6hC7xnJ6XJNQZksSUg+lgRgKhSAAQAA4Bf1QwPGWOiXO1t1BgBwIrXj9+1p2fLJogrJY9QzAMxK8+iwfP/QXh5ABAAvU9NpzkxOl08Wlkt1XKLOAjAjCsAAAADwq7XdHfKVfbWyZ7BPZwAATptN3pWZJ9cWVkhaRKTOAgDmom6gTx6v3yWvdrXpDABgNqLtDvnPrHz5cG6xZEdF6ywAM6MADAAAAL9TnRh/bm2UJw/WSdPIsM4CQOhxORzygZwiuSK3WJKcEToLAPCmbX3dRiF4Q0+nzgAApiPFGSnvyy6Qy3OLJD7cqbMAggEFYAAAAATM5FG3/L65wdgRrHYFA0CoOH6Z9qG8YolzhOssAMCXXulqk+8cqJMd/T06AwB4MxWx8XJFXomxmkStKAEQfCgAAwAAIOAm3G75Q0uDfPtAnXSOUwgGYF1lrjj5YE6RXJKZKxE2u84CAPzpNVUIPrjH6AwGABxjDwuTc1IyjLPqiqRUnQUQrCgAAwAAwDRGpqbk50cOyFOH9kr/5ITOAkDwWxyfLFcXlMpZKRkSpnMAgMDa0tslTxzYLesZDQ0ghCU7I+TdmXny/pxCyYpkvy9gFRSAAQAAYDqDkxPys8YD8tPGeumdGNdZAAgualzeRek58pG8EqPzFwBgTmu7O+S7h/bIRgrBAELI0oRk+UBOkZyXmsmYZ8CCKAADAADAtFRH8DPNh+Spw/ukgx3BAIKE2u/7rsxcuSy3SNIjonQWAGB2uwd65acN9fKXtiPi5soUgAXF2B1yUUaOfCCnUMpd8ToLwIooAAMAAMD0xt1u+WNLg9GZ0To6orMAYC6VsQnyodxiuSgjWxxhdFEAQLBqGBmSnzcekF83HTTOoQAQ7AqiXfKerHy5NLtA4hzhOgvAyigAAwAAIGhMuN3y+5YG+dHhfcbFHAAEWqTdLhdn5MoH6aIAAMtpGR2RHzfsNybSqMk0ABBM1AOJ56VlygeyC2VZYorOAggVFIABAAAQdNRIvuc7WuRHDftlW1+3zgKA/+RFu+R92QXyn1n5dFEAgMX1T07Ib5sOyc+PHGAaDQDTy42KkXdn5hnn1NSISJ0FEGooAAMAACCo7RrolafZ1QbAD5w2m5yTkmmMzluRlCphOg8ACA3qrPlKV5s8dWifbOnr0lkACDyXwyHnes6pl2TmcU4FYKAADAAAAEs4MjIkTzcekN82H5JRRvQB8KKimFh5V2aevDcrXxLCnToLAAhl2/u65SeN9fKP9maZ4noVQADYwsJkRWKq55yaK+elZhmrSQDgOArAAAAAsJTByQn5Q0uD/LSxXppGhnUWAGYmxu6Qt6Ue66JYmZSqswAAvFHn+Kj8saVRfnnkgLEzGAB8rSDaJRel5xgPKGZHRessALwRBWAAAABYkhrR91Jnq7GrbV13h3DoBXAqqouiJjFFLsnIlQvSsiWKLgoAwDSps+f6nk55urFeXvacQTl7AvAmlyNczk3JYMQzgGmjAAwAAADLaxgelGeaD8tvmg5J/+SEzgLAMcUxsXJhWjZdFAAArzg4NCC/8pw7/9TSwNkTwKyphxNXJaUZI57PTc2UCBsPJwKYPgrAAAAACBmDk5Py17ZG+W3TYdk90KuzAEJRakSkMTrvnRm5UhEbr7MAAHjPmHvK2BH8u+YG2dDDRBoAp6aKvovjk+TC9Gw5PzXLOLMCwGxQAAYAAEBIUgXg3zYflr+2HjH2BgOwPpfDIeemZMrFGbnGXl91wQYAgD+0jY3IXzznzl8dOSjNo8M6CwDHir4L41TRN8uYSkPRF4A3UAAGAABASFOdGWpXsBoPza5gwHoi7XZZkZhqXKadn5bFXl8AQECpXcGvdbfLH5objDOoOosCCD2q6LskIdlzRs2S8+j0BeADFIABAAAATe1r+1Nro/zF82oZHdFZAMHG5QiXc1MyjNF5pyWlidNm098AAGAeagrNCx2t8lx7k7zS1WYUhwFYF52+APyJAjAAAABwAnX5trm3S/7c2ijPtTczIhoIAvHhTjkrJd24TKPoCwAINmpEtNoX/IeWBqkb6NNZAMGOoi+AQKEADAAAALwFNZbvxY5Woxj8Wle7TB51628ABFpeVIycnZoh56RkGiP07Oz0BQBYgCoAq67gv7U1SePIkM4CCBbRdoeclpQqZ6ZkyNmeV7IzQn8DAP5DARgAAACYpv7JCXlJj+lb3d0uE26KwYA/qQ6KCle8cZGmCr+VsQn6GwAArKl+aECea2uSv7YdkcPDgzoLwGyyo6KNKTTqnMo0GgBmQAEYAAAAmIW+iXH5Z0eLUQxe391JZzDgIy6HQ1YkpspZuoMiiQ4KAECIqu3vkb+3N8vznjMoxWAgsBxhNlmSkGR0+Z6VnC6FMbH6GwAwBwrAAAAAwBypYrC6iFOvtd0dxthoALOjunxVZ6/qnDg9OU0Wxicx2hkAgBMcGRmSlzpb5bm2ZtnW3y1urngBn0sId8ryxFTjocRzUjMk1hGuvwEA86EADAAAAHiRKv5u6e0+diHX3iQdY6P6GwAno7p6lyWkyMqkYxdqqRGR+hsAAHAq6rz5QuexhxE39XTxMCLgJcfXj5yZkm5Mo6mKTTByABAMKAADAAAAPqI6Mbb1dcuLna1GQfjA0ID+BghtcY5wWZKQLDWJqUbRt9QVp78BAABzcfxhxLXd7UZB+BCjooEZyYmKMc6n6qW6fVXXLwAEIwrAAAAAgJ90jo/Kmq4OoxisLuX6Jyf0N4C1RdsdsiA+UVYmpcni+CSZ7/ms9qYBAADfqh8akFe62uTVzjbZ0tclE263/gaAkhcVIzVJqbIiMcV4ODHZGaG/AYDgRgEYAAAACIApzzF8e1+3rO5ul9Vd7bJzoJfdbbAM1SmxKD5JlielGqOdy1xxjMsDACDARqemZKvn/KkeRFzb3SF1g32cPxFyUpyRxiQa1eG7KjlNsiKj9TcAYC0UgAEAAAAT6JsYl829XbK+p1M29XbK3sF+LuQQFFRhtyQmVhbGJxmvBZ5XQbRLfwsAAMyqZ3xM1vV0GMVg9d40Mqy/AaxDdfTWJKYY45yXe97zOKcCCBEUgAEAAAATGpqalB19PXRowHRcDodUxyXK4vhkqYxLkMUJycZOXwAAENw6xkaNMdFqh/CW3i7ZPdArnD4RTNSDiYXRLqmMPXZGVa+imFhhDg2AUEQBGAAAAAgCqiC8d6BPtvQdu5Db5nnvnRjX3wK+4XKES2lMnFHoVRdp6l1dqjHOGQAA6+seHzMm1GzSZ886z1l08ig7hGEeqrtXTZ85PommynNejbTb9bcAENooAAMAAABBSHUDHxweNPYIqwu57f09cnBowNgtDMxGkjPCKPLOM17xRrGXnWgAAOA4VfxVa0rUw4i7+ntlc18XY6PhN3T3AsDMUAAGAAAALEJdyh0eHjIu5HYNeF76fcw9pf8EIOK02SQ3Ksa4PCt2xUlxTKzxyvHkAAAAZqJldERq+3tkp+elzp27B/qkjyk1mKMIm90o7qozaqnnvKq6fOnuBYCZoQAMAAAAWNi42y37BvulbqBX9g8NSP1Qv+wfHJDO8VH9J2BVMXaH5EW7jMszdXF2/AItMzKaTgkAAOAzqivYeBhRP5C4Z7DPGCcNnEgVegtjXJ5zapyUqIKvPrNme86rrBwBgLmhAAwAAACEILU/eP9gv9QPDci+oX5jfPSh4UHpGKMwHEyOd/PmR7uMYm++/qxeqRGR+k8BAAAElnr4UD2UuMfz2jfYZ3xW59AJNzuFrS7KbjfOq8bLc0b912fPKzMyikIvAPgIBWAAAAAA/zIyNSWHhwelYcTzGh4yPqvC8JGRIemic8Pv1IVYqjPS2MWbFRVtXJId/5wf5eLSDAAABK2po0eNc+bxBxEPeN4PDnteQ4MyPDWp/xTMzuVwSHpElDFlJsNzNlWf1Xk1x3NezY2OkRTPWRYA4H8UgAEAAABMi9ol3DwyLC1jI9I6OiLNo57Pnli9t3pynWNj7BuegXCbTZKdEcYlmerWTfO81AWZitONQm+UcYnmCLPpfwIAACA0qN3Ch4YHjIcRG0eGpHHY8/K8H/GcPTlv+od6xDDZczZNiYjwnFOjPOfUY+/q3Jrueakirzqruhzhx/4BAICpUAAGAAAA4DX9kxPGGOmu8VFp97yrfW9tYyOe93Fj7HSf56Xe1WvQ82etxB4WJrGOcEl0RkhCuFMSPa8kz2f1Up+P5SIkJSLSKPyqFwAAAKZPXWS3jY5Ig1EMHjI+t4wOG+dOdeZUDykO0T38llTHrnroUJ1Z1Xn02Gen8fn1hV4Vq/MtACA4UQAGAAAAEBBq7N/xgrB6V6P+1IXd4OSk8XlExZ7PKlafx9xuo+PjeNeHyrs9/xvqf+dUF32q2Kx+8VEF2uPU/txIm11HIjEOh3HJFW13GF23ceHhxnu03S6RnpfT82fVPx/j+T7W8536fPylLtLUPwcAAIDAUmdF9UCi8RofNbqGj8eqaKxy6rOVRHjOqaozV60OUWfYN//sNCbNqHMrAMD6KAADAAAAAAAAAEKGethQFYGPP4jYNzEhfZP/N6mm3/NSE2z6X5cbnfLv6GlbWNi/psaowu3xdzVN5vjqEPWups3QqQsAOBEFYAAAAAAAAAAA3oLqLDYKxbogrIrIKqem0kwedRvv455YFYqHPa8JT27A8+fVu5pmM6Jybk9OT6ZRnbivH7l84q5dRjADAOaCAjAAAAAAAAAAAAAAWIRNvwMAAAAAAAAAAAAAgprI/wfi1isRxBm0FwAAAABJRU5ErkJggg==;" vertex="1" parent="1">
                    <mxGeometry x="490" y="334.5" width="89" height="31.17" as="geometry"/>
                </mxCell>
            </root>
        </mxGraphModel>
    </diagram>
</mxfile>